<svg width="49" height="48" viewBox="0 0 49 48" fill="none" xmlns="http://www.w3.org/2000/svg">
<path opacity="0.3" fill-rule="evenodd" clip-rule="evenodd" d="M24.5 2.09815e-06C11.2452 3.25692e-06 0.499997 10.7452 0.499998 24C0.499999 37.2548 11.2452 48 24.5 48C37.7548 48 48.5 37.2548 48.5 24C48.5 10.7452 37.7548 9.39372e-07 24.5 2.09815e-06ZM23.7071 29.2933L18.9142 24.5004L32.5 24.5004C33.0523 24.5004 33.5 24.0526 33.5 23.5004C33.5 22.9481 33.0523 22.5004 32.5 22.5004L18.9142 22.5004L23.7071 17.7075C24.0976 17.3169 24.0976 16.6838 23.7071 16.2933C23.3166 15.9027 22.6834 15.9027 22.2929 16.2933L15.7929 22.7933C15.4024 23.1838 15.4024 23.817 15.7929 24.2075L22.2929 30.7075C22.6834 31.098 23.3166 31.098 23.7071 30.7075C24.0976 30.317 24.0976 29.6838 23.7071 29.2933Z" fill="black"/>
</svg>
