<svg width="80" height="80" viewBox="0 0 80 80" fill="none" xmlns="http://www.w3.org/2000/svg">
<path d="M79.4509 38.4301L79.4515 38.4446L79.453 38.4591C79.4995 38.9251 79.5 39.4442 79.5 39.9448V40.1418C79.4511 61.1732 62.8271 78.5865 41.6055 79.4671C19.7973 80.3475 1.41296 63.4235 0.532849 41.6088C-0.34719 19.7959 16.566 1.4076 38.3681 0.52201C38.5756 0.52182 38.7666 0.515922 38.9512 0.510224C39.3014 0.499413 39.6284 0.48932 39.9998 0.520286L40.0206 0.522014H40.0414C61.114 0.522014 78.5707 17.2008 79.4509 38.4301Z" stroke="white"/>
<path d="M39.9922 70.5507C23.1363 70.5507 9.44629 56.8562 9.44629 39.9941C9.44629 23.132 23.1363 9.4375 39.9922 9.4375C56.8481 9.4375 70.5381 23.132 70.5381 39.9941C70.5381 56.8562 56.8481 70.5507 39.9922 70.5507Z" stroke="white"/>
<path d="M17.1162 38.7031H64.5021" stroke="white" stroke-width="0.263" stroke-linecap="round" stroke-linejoin="round"/>
<path fill-rule="evenodd" clip-rule="evenodd" d="M56.2332 50.9919C56.0846 52.2797 55.639 53.3199 54.8467 54.0133C54.0545 54.7068 53.0147 55.0535 51.6778 55.0535C50.737 55.0535 49.9448 54.8058 49.2515 54.3601C48.5583 53.9143 48.0137 53.2703 47.6175 52.3788C47.2214 51.4872 47.0234 50.5461 47.0234 49.4564V47.8218C47.0234 46.7321 47.2214 45.7415 47.6175 44.8994C48.0137 44.0574 48.5583 43.3639 49.3011 42.9181C50.0438 42.4724 50.8855 42.2247 51.8263 42.2247C53.1632 42.2247 54.203 42.5714 54.9953 43.3144C55.7875 44.0079 56.2332 45.048 56.3322 46.2863H55.1933C54.9458 44.1565 53.8069 43.1163 51.7768 43.1163C50.638 43.1163 49.7467 43.5621 49.103 44.4041C48.4593 45.2462 48.1127 46.4349 48.1127 47.9209V49.4564C48.1127 50.8928 48.4593 52.032 49.103 52.8741C49.7467 53.7161 50.638 54.1619 51.7273 54.1619C52.8166 54.1619 53.6584 53.9143 54.203 53.3694C54.7477 52.8246 55.0943 52.032 55.2429 50.9919H56.2332ZM44.9437 49.3078C44.9437 50.447 44.7457 51.4377 44.3496 52.3292C43.9534 53.1713 43.4088 53.8647 42.666 54.3105C41.9233 54.7563 41.0816 55.004 40.1408 55.004C38.7048 55.004 37.5165 54.5086 36.6252 53.4685C35.7339 52.4283 35.2883 51.0414 35.2883 49.2583V47.9704C35.2883 46.8312 35.4864 45.8405 35.8825 44.949C36.2786 44.0574 36.8728 43.4135 37.566 42.9181C38.3087 42.4724 39.1505 42.2247 40.0913 42.2247C41.0321 42.2247 41.8738 42.4724 42.6165 42.9181C43.3593 43.3639 43.9039 44.0079 44.3 44.8499C44.6962 45.6919 44.8942 46.6826 44.9437 47.7723V49.3078ZM43.9039 47.9704C43.9039 46.4845 43.5573 45.2957 42.8641 44.4536C42.1709 43.6116 41.2796 43.1658 40.0913 43.1658C38.9524 43.1658 38.0116 43.6116 37.3184 44.4536C36.6252 45.2957 36.2786 46.4845 36.2786 48.0199V49.3078C36.2786 50.7937 36.6252 51.933 37.3184 52.8246C38.0116 53.6666 38.9524 54.1124 40.0913 54.1124C41.2796 54.1124 42.2204 53.6666 42.8641 52.8246C43.5078 51.9825 43.8544 50.7937 43.8544 49.2583L43.9039 47.9704ZM32.6145 51.7844C32.6145 51.0909 32.3669 50.5461 31.8718 50.1498C31.3766 49.7536 30.4854 49.3573 29.198 49.0106C27.9106 48.6639 26.9698 48.2676 26.3756 47.8218C25.5339 47.2274 25.0882 46.4349 25.0882 45.4443C25.0882 44.5032 25.4843 43.7107 26.2766 43.1163C27.0688 42.5219 28.0591 42.2247 29.297 42.2247C30.1387 42.2247 30.8815 42.3733 31.5252 42.72C32.1689 43.0172 32.664 43.463 33.0601 44.0574C33.4067 44.6518 33.6048 45.2462 33.6048 45.9396H32.565C32.565 45.0976 32.2679 44.4041 31.6737 43.9088C31.0795 43.4135 30.3368 43.1163 29.3465 43.1163C28.4057 43.1163 27.663 43.3144 27.0688 43.7602C26.5242 44.206 26.2271 44.7508 26.2271 45.4443C26.2271 46.0882 26.4746 46.5835 26.9698 46.9798C27.4649 47.376 28.3067 47.7228 29.396 48.0199C30.5349 48.3171 31.3766 48.6639 31.9213 48.9611C32.5155 49.3078 32.9116 49.6545 33.2087 50.1498C33.5058 50.5956 33.6543 51.1405 33.6543 51.7844C33.6543 52.775 33.2582 53.5675 32.466 54.1619C31.6737 54.7563 30.6339 55.0535 29.396 55.0535C28.5048 55.0535 27.7125 54.9049 26.9698 54.6077C26.2271 54.3105 25.6824 53.8647 25.2863 53.2703C24.8902 52.7255 24.7416 52.0816 24.7416 51.3386H25.7814C25.7814 52.2302 26.128 52.9236 26.7717 53.4189C27.4154 53.9143 28.3067 54.1619 29.396 54.1619C30.3863 54.1619 31.129 53.9638 31.7232 53.518C32.3174 53.0722 32.6145 52.5274 32.6145 51.7844ZM61.3332 31.1791H55.6885L54.4011 34.6958H53.3118L58.0157 22.2633H59.006L63.7099 34.6958H62.6206L61.3332 31.1791ZM56.0351 30.2875H61.0361L58.5604 23.5016L56.0351 30.2875ZM46.2806 29.594V34.6463H45.2408V22.2633H49.4496C50.737 22.2633 51.7768 22.61 52.5195 23.2539C53.2623 23.8978 53.6584 24.839 53.6584 25.9782C53.6584 27.167 53.3118 28.0585 52.569 28.7025C51.8263 29.3464 50.7865 29.6436 49.4496 29.6436H46.2806V29.594ZM46.2806 28.7025H49.4496C50.4894 28.7025 51.2321 28.4548 51.7768 27.9595C52.3215 27.4641 52.569 26.8202 52.569 25.9287C52.569 25.0866 52.3215 24.3932 51.7768 23.8483C51.2321 23.353 50.4894 23.0558 49.4991 23.0558H46.2806V28.7025ZM42.8641 30.7828C42.7156 32.0706 42.2699 33.1108 41.4777 33.8042C40.6854 34.4977 39.6456 34.8444 38.3087 34.8444C37.3679 34.8444 36.5757 34.5968 35.8825 34.151C35.1893 33.7052 34.6446 33.0613 34.2485 32.1697C33.8524 31.3277 33.6543 30.337 33.6543 29.2473V27.6127C33.6543 26.523 33.8524 25.5324 34.2485 24.6904C34.6446 23.8483 35.1893 23.1549 35.932 22.7091C36.6747 22.2633 37.5165 22.0156 38.4573 22.0156C39.7942 22.0156 40.834 22.3623 41.6262 23.1053C42.4185 23.7988 42.8641 24.839 42.9631 26.0773H41.9233C41.6757 23.9474 40.5369 22.9072 38.5068 22.9072C37.3679 22.9072 36.4767 23.353 35.833 24.195C35.1893 25.0371 34.8427 26.2258 34.8427 27.7118V29.2473C34.8427 30.6837 35.1893 31.823 35.833 32.665C36.4767 33.5071 37.3679 33.9528 38.4573 33.9528C39.5466 33.9528 40.3884 33.7052 40.933 33.1603C41.4777 32.6155 41.8243 31.823 41.9728 30.7828H42.8641ZM29.7921 34.6958H30.832V22.2633H29.7921V34.6958ZM25.5339 31.1791H19.8891L18.6018 34.6958H17.5124L22.2163 22.2633H23.2066L27.9106 34.6958H26.8212L25.5339 31.1791ZM20.2357 30.2875H25.2368L22.761 23.5016L20.2357 30.2875ZM74.5042 29.3464C74.4052 29.3464 74.3557 29.3959 74.3557 29.495C74.3557 29.594 74.3061 29.6931 74.3557 29.8417C74.3557 29.9903 74.3557 30.1389 74.3557 30.2379C74.3061 30.4856 74.2071 30.6342 74.009 30.6837C73.8605 30.7333 73.6624 30.6837 73.5139 30.5847C73.3654 30.4856 73.2663 30.2875 73.1673 30.0893C73.1178 29.8417 73.1178 29.6436 73.1673 29.4454C73.2168 29.2473 73.3654 29.1482 73.5634 29.0987L73.712 29.5445C73.6129 29.5445 73.5634 29.6436 73.5139 29.6931C73.4644 29.7922 73.4644 29.8417 73.5139 29.9903C73.5634 30.0893 73.6129 30.1389 73.6624 30.1884C73.712 30.2379 73.811 30.2379 73.8605 30.2379C73.91 30.2379 73.9595 30.1884 74.009 30.0893C74.009 30.0398 74.009 29.8912 74.009 29.6931C74.009 29.495 74.009 29.3464 74.009 29.2473C74.009 29.1482 74.0586 29.0492 74.1576 28.9501C74.2071 28.851 74.3061 28.8015 74.4052 28.8015C74.6032 28.752 74.7518 28.8015 74.9003 28.9006C75.0489 28.9996 75.1479 29.1978 75.2469 29.4454C75.2964 29.594 75.2964 29.7426 75.2964 29.8912C75.2964 30.0398 75.2469 30.1389 75.1479 30.2379C75.0489 30.337 74.9498 30.3865 74.8508 30.4361L74.7023 29.9903C74.8013 29.9408 74.8508 29.8912 74.9003 29.7922C74.9498 29.6931 74.9498 29.594 74.9003 29.495C74.8508 29.3959 74.8013 29.2968 74.7518 29.2473C74.6527 29.2968 74.5537 29.2968 74.5042 29.3464ZM73.811 32.5164L74.009 32.4669C73.811 32.3678 73.6624 32.1697 73.6129 31.922C73.5139 31.5258 73.712 31.2286 74.2071 31.1295L75.544 30.8323L75.643 31.2781L74.3557 31.5753C74.2071 31.6248 74.1576 31.6744 74.1081 31.7239C74.0586 31.7734 74.0586 31.8725 74.0586 32.0211C74.1081 32.2192 74.2071 32.3183 74.4052 32.3678L75.8411 32.0211L75.9401 32.4669L73.91 32.9127L73.811 32.5164ZM75.2964 35.0426C75.0984 35.0921 74.9003 35.0426 74.7518 34.993C74.6032 34.9435 74.4547 34.8444 74.3061 34.7454C74.2071 34.5968 74.1081 34.4482 74.1081 34.25C74.0586 33.9528 74.1081 33.7547 74.2566 33.5566C74.4052 33.3585 74.6032 33.2099 74.9003 33.1603H74.9994C75.1974 33.1108 75.3955 33.1108 75.544 33.2099C75.6926 33.2594 75.8411 33.3585 75.9897 33.4575C76.0887 33.6061 76.1877 33.7547 76.1877 33.9528C76.2372 34.25 76.1877 34.4977 76.0392 34.6958C75.8411 34.8444 75.643 34.993 75.2964 35.0426ZM75.2469 34.5968C75.445 34.5472 75.5935 34.4977 75.6926 34.3986C75.7916 34.2996 75.8411 34.151 75.7916 34.0024C75.7916 33.8538 75.6926 33.7547 75.544 33.6557C75.3955 33.6061 75.2469 33.5566 74.9994 33.6061C74.8013 33.6557 74.6527 33.7052 74.5537 33.8042C74.4547 33.9033 74.4052 34.0519 74.4547 34.2005C74.4547 34.3491 74.5537 34.4482 74.7023 34.5472C74.8508 34.5968 74.9994 34.5968 75.2469 34.5968ZM73.8605 36.1818C73.811 36.1818 73.712 36.1818 73.6624 36.1323C73.6129 36.0827 73.5634 36.0332 73.5634 35.9341C73.5634 35.8351 73.5634 35.7855 73.6129 35.736C73.6624 35.6865 73.712 35.6369 73.7615 35.6369C73.811 35.6369 73.91 35.6369 73.9595 35.6865C74.009 35.736 74.0586 35.7855 74.0586 35.8846C74.0586 35.9837 74.0586 36.0332 74.009 36.0827C73.9595 36.1323 73.91 36.1323 73.8605 36.1818ZM76.3858 35.3893L76.4353 35.8351L74.4052 36.0827L74.3557 35.6369L76.3858 35.3893ZM73.9595 36.8257L74.4547 36.7762L74.4052 36.4295L74.7518 36.3799L74.8013 36.7266L75.9401 36.6276C76.0392 36.6276 76.0887 36.578 76.0887 36.578C76.1382 36.5285 76.1382 36.479 76.1382 36.4295C76.1382 36.3799 76.1382 36.3304 76.0887 36.2809L76.4353 36.2313C76.4848 36.3304 76.4848 36.4294 76.4848 36.5285C76.5343 36.8752 76.3363 37.0734 75.9401 37.1229L74.8013 37.222L74.8508 37.5687L74.5042 37.6182L74.4547 37.2715L73.9595 37.321V36.8257ZM76.6333 38.1631C76.5838 38.2126 76.4848 38.2126 76.4353 38.2126C76.5838 38.3612 76.6829 38.5098 76.6829 38.7575C76.6829 38.9556 76.6334 39.1537 76.5343 39.2528C76.4353 39.4014 76.2867 39.4509 76.0887 39.4509C75.8906 39.4509 75.6926 39.4014 75.5935 39.2032C75.4945 39.0546 75.3955 38.807 75.3955 38.5098V38.2126H75.2469C75.1479 38.2126 75.0489 38.2621 74.9994 38.3117C74.9498 38.3612 74.9003 38.4603 74.9003 38.6089C74.9003 38.7079 74.9498 38.807 74.9994 38.8565C75.0489 38.9061 75.0984 38.9556 75.1974 38.9556V39.4014C75.0984 39.4014 74.9498 39.3518 74.9003 39.3023C74.8013 39.2032 74.7023 39.1042 74.6527 39.0051C74.6032 38.8565 74.5537 38.7079 74.5537 38.5593C74.5537 38.3117 74.6032 38.1135 74.7023 37.9649C74.8013 37.8163 74.9993 37.7173 75.1974 37.7173L76.1382 37.6678C76.3363 37.6678 76.4848 37.6182 76.5838 37.5687H76.6333V38.1631ZM76.2867 38.7079C76.2867 38.6089 76.2372 38.5098 76.1877 38.4603C76.1382 38.3612 76.0887 38.3117 75.9897 38.2621H75.5935V38.5098C75.5935 38.6584 75.643 38.807 75.6926 38.9061C75.7421 39.0051 75.8411 39.0051 75.9401 39.0051C76.0392 39.0051 76.0887 38.9556 76.1382 38.9061C76.2867 38.8565 76.2867 38.807 76.2867 38.7079ZM76.2867 40.9369V39.8472H76.6333L76.5838 41.5313H76.2867L74.9003 40.4415V41.4817H74.5042L74.5537 39.8472H74.8508L76.2867 40.9369ZM73.9595 42.3733C73.91 42.3733 73.811 42.3238 73.811 42.2742C73.7615 42.2247 73.7615 42.1752 73.7615 42.0761C73.7615 41.977 73.811 41.9275 73.8605 41.878C73.91 41.8284 73.9595 41.8284 74.0586 41.8284C74.1081 41.8284 74.2071 41.878 74.2071 41.9275C74.2566 41.977 74.2566 42.0266 74.2566 42.1256C74.2566 42.2247 74.2071 42.2742 74.1576 42.3238C74.1081 42.3238 74.0586 42.3733 73.9595 42.3733ZM76.5838 42.0266L76.5343 42.4724L74.5042 42.3733L74.5537 41.9275L76.5838 42.0266ZM74.3557 44.1069H74.6032C74.4547 43.9583 74.3557 43.7107 74.4052 43.463C74.4547 43.0172 74.7023 42.8686 75.1974 42.8686L76.5343 43.0172L76.4848 43.463L75.1479 43.3144C74.9994 43.3144 74.9003 43.3144 74.8508 43.3639C74.8013 43.4135 74.7518 43.5125 74.7518 43.6116C74.7518 43.8097 74.8013 43.9583 74.9498 44.0574L76.3858 44.206L76.3363 44.6518L74.3061 44.4536L74.3557 44.1069ZM76.2372 45.7415C76.1877 45.7415 76.1382 45.7415 76.0392 45.7415C76.1877 45.8901 76.1877 46.0882 76.1877 46.3359C76.1382 46.534 76.0887 46.6826 75.9401 46.7816C75.7916 46.8807 75.643 46.9302 75.4945 46.8807C75.2964 46.8312 75.1479 46.7321 75.0489 46.534C74.9498 46.3359 74.9498 46.1377 74.9994 45.791L75.0489 45.4938H74.9003C74.8013 45.4938 74.7023 45.4938 74.6527 45.5433C74.6032 45.5929 74.5537 45.6919 74.5042 45.791C74.5042 45.8901 74.5042 45.9891 74.5537 46.0387C74.6032 46.1377 74.6527 46.1377 74.7518 46.1873L74.6527 46.6331C74.5537 46.6331 74.4547 46.534 74.3557 46.4845C74.2566 46.3854 74.2071 46.2863 74.1576 46.1377C74.1081 45.9891 74.1081 45.8405 74.1576 45.6919C74.2071 45.4443 74.3061 45.2957 74.4547 45.1471C74.6032 45.048 74.8013 44.9985 74.9994 44.9985L75.8906 45.1471C76.0887 45.1966 76.2372 45.1966 76.3363 45.1471H76.3858L76.2372 45.7415ZM75.7916 46.1873C75.7916 46.0882 75.7916 45.9891 75.7916 45.9396C75.7421 45.8405 75.6926 45.791 75.643 45.7415L75.2469 45.6919L75.1974 45.9396C75.1479 46.0882 75.1974 46.2368 75.1974 46.3359C75.2469 46.4349 75.2964 46.4845 75.445 46.4845C75.544 46.4845 75.5935 46.4845 75.6926 46.4349C75.7421 46.3359 75.7916 46.2863 75.7916 46.1873ZM74.4547 49.0601C74.1576 49.0106 73.91 48.862 73.7615 48.6639C73.6129 48.4657 73.5634 48.2676 73.6129 48.0199C73.6624 47.7723 73.811 47.6237 73.9595 47.5246L73.7615 47.4751L73.8605 47.0788L75.7916 47.5246C76.0392 47.5742 76.2372 47.7228 76.3363 47.9209C76.4353 48.119 76.4848 48.3667 76.3858 48.6143C76.3363 48.7629 76.2867 48.9115 76.1877 49.0106C76.0887 49.1592 75.9897 49.2087 75.8906 49.2583L75.6926 48.9611C75.8906 48.862 75.9897 48.7134 76.0392 48.5153C76.0887 48.3667 76.0392 48.2181 75.9897 48.119C75.9401 48.0199 75.8411 47.9209 75.643 47.9209L75.4945 47.8714C75.5935 48.0199 75.643 48.2181 75.5935 48.4657C75.544 48.7134 75.3955 48.862 75.1974 48.9611C75.0489 49.1097 74.8013 49.1097 74.4547 49.0601ZM74.6032 48.6143C74.8013 48.6639 74.9498 48.6639 75.0984 48.6143C75.2469 48.5648 75.346 48.4657 75.346 48.3171C75.3955 48.119 75.346 47.9704 75.1974 47.8714L74.3061 47.6732C74.1576 47.7228 74.009 47.8218 74.009 48.0199C73.9595 48.1685 74.009 48.3171 74.1081 48.4162C74.2071 48.4657 74.4052 48.5648 74.6032 48.6143ZM73.811 49.1097C73.7615 49.1592 73.7615 49.2087 73.7615 49.3078C73.712 49.5059 73.7615 49.6545 73.8605 49.8031L75.1974 50.1994L75.0489 50.6451L73.0683 50.0508L73.1673 49.605L73.4149 49.6545C73.2663 49.5059 73.2168 49.3078 73.2663 49.1097C73.2663 49.0601 73.3158 49.0106 73.3158 48.9611L73.811 49.1097ZM73.712 50.6947C73.9595 50.7937 74.1576 50.8928 74.3557 51.0909C74.5042 51.2395 74.6032 51.4377 74.6527 51.6358C74.7023 51.8339 74.7023 52.032 74.6032 52.2797C74.5537 52.4778 74.4052 52.676 74.2566 52.775C74.1081 52.9236 73.91 52.9732 73.6624 53.0227C73.4149 53.0227 73.2168 53.0227 72.9692 52.9236L72.8207 52.8741C72.5731 52.775 72.3751 52.676 72.177 52.4778C72.0285 52.3292 71.9294 52.1311 71.8799 51.933C71.8304 51.7349 71.8304 51.5367 71.9294 51.2891C72.0285 51.0909 72.1275 50.8928 72.276 50.7937C72.4246 50.6451 72.6226 50.5956 72.8702 50.5461C73.1178 50.5461 73.3158 50.5461 73.6129 50.6451L73.712 50.6947ZM73.4149 51.0909C73.1178 50.9919 72.8702 50.9423 72.6721 51.0414C72.4741 51.0909 72.3255 51.2395 72.276 51.4377C72.2265 51.6358 72.2265 51.8339 72.3255 51.9825C72.4246 52.1311 72.6226 52.2797 72.9197 52.3788L73.0683 52.4283C73.3654 52.5274 73.6129 52.5274 73.811 52.4778C74.0091 52.4283 74.1576 52.2797 74.2071 52.0816C74.2566 51.8834 74.2566 51.6853 74.1576 51.5367C74.0586 51.3881 73.8605 51.2395 73.5634 51.1405L73.4149 51.0909ZM73.3158 55.4002C73.2168 55.6479 73.0187 55.846 72.7712 55.9451C72.5236 56.0441 72.276 55.9946 71.9789 55.8955H71.9294C71.7314 55.7965 71.5828 55.6974 71.4838 55.5488C71.3848 55.4002 71.2857 55.2516 71.2857 55.103C71.2857 54.9544 71.2857 54.7563 71.3848 54.6077C71.4838 54.3601 71.6818 54.2115 71.8799 54.1124C72.1275 54.0629 72.3751 54.0629 72.6721 54.2115L72.8207 54.3105L72.2265 55.5488C72.3751 55.5984 72.5236 55.5984 72.6721 55.5488C72.8207 55.4993 72.9197 55.4002 72.9692 55.2516C73.0683 55.0535 73.0683 54.8554 72.9692 54.6572L73.2663 54.5086C73.3654 54.6572 73.3654 54.7563 73.3654 54.9049C73.4149 55.103 73.3654 55.2516 73.3158 55.4002ZM71.6818 54.7068C71.6323 54.8058 71.6323 54.9049 71.6818 55.0535C71.7314 55.1526 71.8304 55.2516 71.9789 55.3507L72.3751 54.5582H72.3255C72.177 54.5087 72.078 54.5086 71.9294 54.5086C71.8304 54.5086 71.7314 54.6077 71.6818 54.7068ZM71.9789 57.2329C72.0284 57.1338 72.0285 57.0348 72.0285 56.9357C72.0285 56.8367 71.9294 56.7376 71.8799 56.6881L72.078 56.2918C72.177 56.3413 72.276 56.4404 72.3255 56.589C72.3751 56.6881 72.4246 56.8367 72.4246 56.9852C72.4246 57.1338 72.3751 57.2824 72.3255 57.3815C72.177 57.6292 71.9789 57.7778 71.7314 57.8273C71.4838 57.8768 71.2362 57.8273 70.9391 57.6787H70.8896C70.5925 57.5301 70.444 57.332 70.3449 57.0843C70.2459 56.8367 70.2954 56.589 70.444 56.3413C70.543 56.1432 70.7411 55.9946 70.9391 55.8955C71.1372 55.846 71.3352 55.846 71.5333 55.9451L71.3352 56.3413C71.2362 56.2918 71.1372 56.2918 71.0382 56.2918C70.9391 56.3413 70.8401 56.3909 70.7906 56.4899C70.7411 56.6385 70.6915 56.7376 70.7906 56.8862C70.8401 56.9853 70.9886 57.1338 71.1867 57.2329L71.2362 57.2824C71.4343 57.3815 71.5828 57.431 71.7314 57.431C71.8304 57.431 71.9294 57.332 71.9789 57.2329ZM69.1071 57.6787C69.0576 57.6292 69.008 57.5796 69.008 57.5301C69.008 57.4806 69.008 57.3815 69.0575 57.332C69.1071 57.2824 69.1566 57.2329 69.2061 57.1834C69.2556 57.1834 69.3546 57.1834 69.4042 57.2329C69.4537 57.2824 69.5032 57.332 69.5032 57.3815C69.5032 57.431 69.5032 57.5301 69.4537 57.5796C69.4042 57.6292 69.3546 57.6787 69.3051 57.7282C69.2556 57.7282 69.1566 57.7282 69.1071 57.6787ZM71.5828 58.6198L71.3352 59.0161L69.5527 57.9759L69.8003 57.5796L71.5828 58.6198ZM70.1469 59.8086L69.1566 58.6198L69.4042 58.2235L70.7411 59.9572L70.543 60.3039L68.4139 59.759L68.6614 59.3628L70.1469 59.8086ZM68.7109 60.1058C68.6614 60.1553 68.6119 60.2048 68.6119 60.2544C68.4634 60.403 68.4634 60.6011 68.5624 60.7497L69.7012 61.5917L69.4042 61.988L67.7206 60.7992L67.9682 60.4525L68.1663 60.6011C68.0672 60.403 68.1168 60.2048 68.2158 60.0562C68.2653 60.0067 68.2653 59.9572 68.3148 59.9572L68.7109 60.1058ZM68.6614 62.9786C68.4634 63.2263 68.2653 63.3253 68.0177 63.3749C67.7702 63.4244 67.5226 63.3253 67.275 63.1272L67.2255 63.0777C67.077 62.9786 66.9779 62.83 66.8789 62.6319C66.7799 62.4833 66.7799 62.2852 66.7799 62.1366C66.7799 61.988 66.8789 61.8394 66.9779 61.6908C67.176 61.4927 67.374 61.3441 67.5721 61.3441C67.8197 61.3441 68.0672 61.4431 68.3148 61.6413L68.4634 61.7403L67.6216 62.7805C67.7702 62.8796 67.9187 62.9291 68.0672 62.8796C68.2158 62.8796 68.3148 62.7805 68.4139 62.6814C68.5624 62.5328 68.6119 62.3347 68.5624 62.1366L68.909 62.0871C68.9585 62.2356 68.9585 62.3842 68.909 62.5328C68.81 62.6814 68.7605 62.83 68.6614 62.9786ZM67.2255 61.8889C67.1265 61.988 67.1265 62.0871 67.1265 62.2356C67.1265 62.3347 67.2255 62.4833 67.3245 62.5824L67.8692 61.8889H67.8197C67.6711 61.7899 67.5721 61.7403 67.4731 61.7899C67.4236 61.7403 67.3245 61.7899 67.2255 61.8889ZM66.8789 63.8702C66.7799 63.7711 66.6808 63.7711 66.5818 63.7711C66.4828 63.7711 66.3342 63.8702 66.1362 63.9693C65.9381 64.0683 65.74 64.1674 65.5915 64.2169C65.2944 64.316 65.0468 64.2665 64.8983 64.0683C64.7497 63.9197 64.6507 63.7216 64.7002 63.4739C64.7002 63.2263 64.7993 63.0282 64.9973 62.7805C65.1459 62.6319 65.2944 62.5328 65.443 62.4833C65.5915 62.4338 65.74 62.3842 65.8886 62.4338C66.0371 62.4833 66.1857 62.5328 66.2847 62.6319L65.9381 62.9786C65.8391 62.8796 65.74 62.83 65.5915 62.83C65.4925 62.83 65.3439 62.9291 65.2449 63.0282C65.1459 63.1272 65.0963 63.2758 65.0468 63.3749C65.0468 63.4739 65.0964 63.573 65.1459 63.6721C65.2449 63.7216 65.2944 63.7711 65.443 63.7216C65.542 63.7216 65.6905 63.6225 65.8886 63.5235C66.0867 63.4244 66.2352 63.3254 66.3837 63.2758C66.5323 63.2263 66.6808 63.2263 66.7799 63.2758C66.8789 63.3254 67.0274 63.3749 67.1265 63.4739C67.275 63.6225 67.374 63.8207 67.374 64.0188C67.374 64.2665 67.2255 64.4646 67.0274 64.7123C66.8789 64.8608 66.7303 64.9599 66.5818 65.059C66.4333 65.1085 66.2352 65.158 66.0866 65.158C65.9381 65.158 65.7896 65.059 65.641 64.9599L65.9876 64.6132C66.0867 64.7122 66.2352 64.7618 66.3837 64.7618C66.5323 64.7618 66.6313 64.6627 66.7799 64.5141C66.8789 64.4151 66.9284 64.2665 66.9779 64.1674C66.9779 64.0683 66.9779 63.9693 66.8789 63.8702ZM64.8488 67.6842L64.7002 67.8328L62.5216 65.4057L62.6701 65.2571L64.8488 67.6842ZM61.8284 68.8234C61.7788 68.7243 61.6798 68.6748 61.5808 68.6748C61.4818 68.6748 61.3332 68.7243 61.1351 68.7739C60.9866 68.8729 60.8381 68.9225 60.6895 68.9225C60.5905 68.9225 60.4915 68.9225 60.3924 68.9225C60.2934 68.8729 60.2439 68.8234 60.1944 68.7739C60.0953 68.6253 60.0953 68.4767 60.0953 68.3281C60.1448 68.1795 60.2439 68.0309 60.4419 67.8823C60.64 67.7337 60.7885 67.6842 60.9866 67.6842C61.1847 67.6842 61.3332 67.7832 61.4322 67.9318L61.2342 68.0804C61.1351 67.9814 61.0361 67.9318 60.9371 67.9318C60.7885 67.9318 60.6895 67.9814 60.541 68.0804C60.4419 68.1795 60.3429 68.2786 60.2934 68.3776C60.2439 68.4767 60.2934 68.5758 60.3429 68.6748C60.3924 68.7739 60.4914 68.8234 60.5905 68.8234C60.6895 68.8234 60.8381 68.7739 61.0361 68.7243C61.2342 68.6253 61.3827 68.5757 61.4818 68.5757C61.5808 68.5757 61.6798 68.5757 61.7788 68.5757C61.8779 68.6253 61.9274 68.6748 61.9769 68.7739C62.0759 68.9225 62.1254 69.0711 62.0759 69.2197C62.0264 69.3683 61.9274 69.5169 61.7293 69.6655C61.5313 69.8141 61.3332 69.8636 61.1351 69.8636C60.9371 69.8636 60.7885 69.7645 60.6895 69.6159L60.8876 69.4673C60.9866 69.5664 61.0856 69.6159 61.1847 69.6159C61.3332 69.6159 61.4322 69.5664 61.5808 69.4673C61.7293 69.3683 61.7788 69.2692 61.8284 69.1701C61.9274 68.972 61.9274 68.8729 61.8284 68.8234ZM58.3623 69.3683L58.5604 69.6655C58.5604 69.5169 58.5604 69.3683 58.6594 69.2692C58.7089 69.1701 58.8079 69.0711 58.907 68.972C59.105 68.8729 59.2536 68.8234 59.4021 68.8729C59.5507 68.9225 59.6992 69.0215 59.8478 69.2692L60.5905 70.4084L60.3924 70.5075L59.6497 69.3683C59.5507 69.2197 59.4516 69.1206 59.3031 69.0711C59.2041 69.0215 59.0555 69.0711 58.907 69.1701C58.8079 69.2692 58.7089 69.3683 58.6594 69.4673C58.6099 69.6159 58.6099 69.7645 58.6594 69.9131L59.4516 71.1019L59.2536 71.2009L58.1147 69.4673L58.3623 69.3683ZM56.6788 71.4981C56.5798 71.3495 56.5303 71.1514 56.5303 70.9533C56.5303 70.7552 56.5302 70.6066 56.6293 70.458C56.7283 70.3094 56.8273 70.2103 56.9759 70.1112C57.2235 69.9626 57.471 69.9626 57.7186 70.0122C57.9662 70.1112 58.1642 70.2598 58.3128 70.557V70.6066C58.4118 70.8047 58.4613 70.9533 58.4613 71.1514C58.4613 71.3 58.4613 71.4981 58.3623 71.6467C58.2633 71.7953 58.1642 71.8944 58.0157 71.9935C57.7681 72.1421 57.5205 72.1421 57.273 72.0925C57.0254 71.9935 56.8273 71.7953 56.6788 71.4981ZM56.8769 71.4486C56.9759 71.6467 57.1739 71.7953 57.3225 71.8944C57.5206 71.9935 57.7186 71.9439 57.8672 71.8449C58.0652 71.7458 58.1642 71.5972 58.1642 71.3991C58.2138 71.201 58.1642 71.0028 58.0157 70.7552V70.7056C57.9167 70.557 57.8176 70.458 57.7186 70.3589C57.6196 70.2598 57.471 70.2103 57.372 70.2103C57.2235 70.2103 57.1244 70.2103 57.0254 70.3094C56.8273 70.4084 56.7283 70.557 56.7283 70.7552C56.7283 70.9533 56.7283 71.1514 56.8769 71.4486ZM55.2429 70.4084C55.2429 70.3589 55.2429 70.3094 55.2429 70.3094C55.2429 70.2598 55.2924 70.2598 55.3419 70.2103C55.3914 70.2103 55.4409 70.1608 55.4409 70.2103C55.4904 70.2103 55.4904 70.2598 55.5399 70.3094C55.5399 70.3589 55.5399 70.4084 55.5399 70.4084C55.5399 70.458 55.4904 70.458 55.4409 70.5075C55.3914 70.5075 55.3419 70.557 55.3419 70.5075C55.2924 70.5075 55.2429 70.458 55.2429 70.4084ZM56.6788 72.6869L56.4807 72.786L55.5399 70.9533L55.738 70.8542L56.6788 72.6869ZM54.5001 70.8542L54.7477 71.3495L55.1438 71.1514L55.2429 71.3L54.8467 71.4981L55.4409 72.7364C55.4904 72.8355 55.54 72.885 55.5895 72.9346C55.639 72.9841 55.738 72.9841 55.7875 72.9346C55.837 72.9346 55.8866 72.885 55.9361 72.8355L56.0351 72.9841C55.9856 73.0336 55.8866 73.0832 55.837 73.1327C55.6885 73.1822 55.5895 73.1822 55.4904 73.1327C55.3914 73.0832 55.2924 72.9841 55.2429 72.8355L54.6487 71.5972L54.3021 71.7458L54.203 71.5972L54.5496 71.4486L54.3021 70.9533L54.5001 70.8542ZM54.5001 73.7271C54.4506 73.6776 54.4011 73.5785 54.3516 73.4794C54.3021 73.628 54.2526 73.7271 54.1535 73.8261C54.0545 73.9252 53.9555 74.0243 53.8069 74.0738C53.6089 74.1729 53.4603 74.1729 53.3118 74.1233C53.1632 74.0738 53.0642 73.9747 52.9652 73.8261C52.8661 73.628 52.9157 73.4794 53.0147 73.2813C53.1137 73.1327 53.3118 72.9841 53.6089 72.8355L54.005 72.6869L53.906 72.4888C53.8564 72.3402 53.7574 72.2411 53.6584 72.2411C53.5594 72.1916 53.4108 72.1916 53.2623 72.2906C53.1137 72.3402 53.0147 72.4392 52.9652 72.5383C52.9157 72.6374 52.8661 72.786 52.9157 72.885L52.7176 72.9841C52.6681 72.8355 52.6681 72.6869 52.7671 72.4888C52.8661 72.3402 53.0147 72.1916 53.2127 72.0925C53.4108 71.9935 53.6089 71.9935 53.7574 72.043C53.906 72.0925 54.0545 72.2411 54.1535 72.3897L54.5496 73.2813C54.6487 73.4794 54.6982 73.5785 54.7972 73.6775L54.5001 73.7271ZM53.7574 73.8261C53.906 73.7766 54.005 73.6775 54.104 73.5785C54.203 73.4794 54.2526 73.3308 54.2526 73.1822L54.0545 72.786L53.6584 72.9346C53.4603 73.0336 53.3118 73.1327 53.2127 73.2318C53.1137 73.3308 53.1137 73.4794 53.1632 73.628C53.2127 73.7271 53.2623 73.8261 53.4108 73.8261C53.5098 73.8757 53.6089 73.8757 53.7574 73.8261ZM51.4797 74.6682L52.7671 74.2224L52.8166 74.4205L51.2817 74.9654L51.2321 74.8168L51.8758 72.786L50.737 73.1822L50.6875 72.9841L52.1234 72.4888L52.1729 72.6374L51.4797 74.6682ZM49.6972 72.6374C49.6972 72.5878 49.6972 72.5383 49.6972 72.5383C49.6972 72.4888 49.7467 72.4888 49.7962 72.4392C49.8457 72.4392 49.8952 72.4392 49.8952 72.4392C49.9448 72.4392 49.9448 72.4888 49.9448 72.5383C49.9448 72.5878 49.9448 72.6374 49.9448 72.6374C49.9448 72.6869 49.8952 72.6869 49.8457 72.7364C49.7962 72.7364 49.7467 72.7364 49.7467 72.7364C49.7467 72.6869 49.7467 72.6374 49.6972 72.6374ZM50.737 75.0644L50.5389 75.114L49.9448 73.1327L50.1428 73.0832L50.737 75.0644ZM48.0632 73.6775L48.1622 74.0243C48.2117 73.8757 48.2612 73.7766 48.3603 73.6775C48.4593 73.5785 48.5583 73.529 48.7069 73.4794C48.9049 73.4299 49.103 73.4299 49.2515 73.5289C49.4001 73.628 49.4991 73.7766 49.5486 74.0243L49.8952 75.3121L49.6972 75.3616L49.3506 74.0738C49.3011 73.8757 49.2515 73.7766 49.1525 73.7271C49.0535 73.6776 48.9049 73.628 48.7564 73.6775C48.6078 73.7271 48.5088 73.7766 48.4098 73.8757C48.3108 73.9747 48.2612 74.1233 48.2612 74.2719L48.6078 75.6588L48.4098 75.7084L47.9146 73.7271L48.0632 73.6775ZM47.469 75.9065C47.4195 75.857 47.4195 75.7579 47.37 75.6093C47.3205 75.7084 47.2214 75.8074 47.1224 75.9065C47.0234 76.0056 46.8748 76.0551 46.7758 76.0551C46.5777 76.1046 46.4292 76.0551 46.2806 76.0056C46.1321 75.9065 46.0331 75.8074 46.0331 75.6093C45.9836 75.4112 46.0331 75.2626 46.1816 75.114C46.3302 74.9654 46.5282 74.8663 46.8253 74.8168L47.2214 74.7177L47.1719 74.4701C47.1224 74.3215 47.0729 74.2224 46.9739 74.1729C46.8748 74.1233 46.7263 74.0738 46.5777 74.1233C46.4292 74.1729 46.2806 74.2224 46.2311 74.3215C46.1321 74.4205 46.1321 74.5196 46.1321 74.6187L45.8845 74.6682C45.835 74.5196 45.8845 74.371 46.0331 74.2224C46.1816 74.0738 46.3302 73.9747 46.5282 73.9252C46.7758 73.8757 46.9243 73.9252 47.0729 73.9747C47.2214 74.0738 47.3205 74.2224 47.37 74.4205L47.568 75.3616C47.6175 75.5598 47.6671 75.7084 47.7166 75.8074L47.469 75.9065ZM46.7263 75.9065C46.8748 75.857 47.0234 75.8074 47.1224 75.7084C47.2214 75.6093 47.2709 75.5102 47.3205 75.3616L47.2214 74.9158L46.8253 75.0149C46.6272 75.0644 46.4292 75.114 46.3302 75.2626C46.2311 75.3616 46.1816 75.5102 46.1816 75.6093C46.1816 75.7084 46.2806 75.8074 46.3797 75.857C46.4787 75.9065 46.6273 75.9065 46.7263 75.9065ZM43.7059 75.4607C43.6563 75.1635 43.7059 74.8663 43.8049 74.6682C43.9039 74.4701 44.102 74.3215 44.3496 74.3215C44.6466 74.2719 44.8447 74.371 45.0428 74.5691L44.9933 74.2719L45.1913 74.2224L45.4389 76.2037C45.4884 76.4513 45.4389 76.699 45.2903 76.8476C45.1418 76.9962 44.9933 77.1448 44.7457 77.1448C44.5971 77.1448 44.4486 77.1448 44.3496 77.0953C44.201 77.0457 44.102 76.9962 44.003 76.8971L44.102 76.7485C44.3 76.9467 44.4981 76.9962 44.6962 76.9467C44.8942 76.9467 45.0428 76.8476 45.0923 76.699C45.1913 76.5504 45.2408 76.4018 45.1913 76.2037L45.1418 75.956C45.0428 76.1542 44.8447 76.3027 44.5476 76.3523C44.3 76.4018 44.102 76.3027 43.9534 76.1542C43.8544 76.0551 43.7554 75.8074 43.7059 75.4607ZM43.9534 75.4607C44.003 75.7084 44.0525 75.9065 44.201 76.0551C44.3 76.2037 44.4981 76.2532 44.6962 76.2037C44.9933 76.1542 45.1418 76.0056 45.2408 75.7579L45.1418 74.8168C45.0923 74.7177 44.9933 74.6187 44.8942 74.5691C44.7952 74.5196 44.6466 74.4701 44.4981 74.5196C44.3 74.5691 44.1515 74.6187 44.102 74.8168C43.9534 74.9654 43.9039 75.1635 43.9534 75.4607ZM43.3593 74.6682C43.3097 74.6682 43.2602 74.6682 43.2107 74.6682C43.0622 74.6682 42.9631 74.7177 42.8641 74.8168C42.7651 74.9159 42.7156 75.0149 42.666 75.1635L42.7651 76.5504H42.5175L42.369 74.5196H42.567L42.6165 74.8663C42.7156 74.6187 42.9136 74.4701 43.1612 74.4701C43.2107 74.4701 43.2602 74.4701 43.3097 74.4701L43.3593 74.6682ZM41.8738 75.4112C41.8738 75.6588 41.8243 75.9065 41.7748 76.1046C41.6757 76.3027 41.5767 76.4513 41.4282 76.5504C41.2796 76.6495 41.0816 76.699 40.8835 76.699C40.5369 76.699 40.2893 76.5999 40.0913 76.3523C39.8932 76.1046 39.7942 75.8074 39.7942 75.4112V75.114C39.7942 74.8663 39.8437 74.6187 39.8932 74.4205C39.9922 74.2224 40.0913 74.0738 40.2398 73.9747C40.3884 73.8757 40.5864 73.8261 40.7845 73.8261C40.9825 73.8261 41.1806 73.8757 41.3291 73.9747C41.4777 74.0738 41.6262 74.2224 41.7253 74.4205C41.8243 74.6187 41.8738 74.8168 41.8738 75.0644V75.4112ZM41.6757 75.114C41.6757 74.7673 41.5767 74.5196 41.4282 74.3215C41.2796 74.1233 41.0816 74.0243 40.7845 74.0738C40.5369 74.0738 40.3388 74.1729 40.1903 74.371C40.0417 74.5691 39.9922 74.8168 39.9922 75.1635V75.4607C39.9922 75.8074 40.0913 76.0551 40.2398 76.2532C40.3884 76.4513 40.5864 76.5504 40.8835 76.5504C41.1311 76.5504 41.3291 76.4513 41.4777 76.2532C41.6262 76.0551 41.6757 75.8074 41.6757 75.4607V75.114ZM37.5165 76.6495C37.1204 76.6495 36.8728 76.4513 36.7242 76.1046C36.6747 75.956 36.6252 75.7579 36.6252 75.5598V75.4607C36.6252 75.2626 36.6747 75.0644 36.7738 74.9158C36.8728 74.7673 36.9718 74.6682 37.1204 74.5691C37.2689 74.4701 37.4175 74.4701 37.566 74.4701C37.8136 74.4701 38.0116 74.5691 38.1602 74.7673C38.3087 74.9654 38.3582 75.1635 38.3087 75.4607V75.6093L36.8233 75.5102V75.5598C36.8233 75.8074 36.8728 76.0056 36.9718 76.1542C37.0709 76.3027 37.2689 76.4018 37.467 76.4018C37.566 76.4018 37.665 76.4018 37.8136 76.3523C37.9126 76.3027 38.0116 76.2532 38.0612 76.1542L38.2097 76.2532C38.0611 76.5504 37.8136 76.6495 37.5165 76.6495ZM37.566 74.7177C37.4175 74.7177 37.2689 74.7673 37.1204 74.8663C36.9718 74.9654 36.9223 75.1635 36.8728 75.3616L38.1107 75.4607V75.4112C38.1107 75.213 38.0611 75.0644 37.9621 74.9158C37.9126 74.7673 37.7641 74.7177 37.566 74.7177ZM35.3873 76.2532C35.5359 76.2532 35.6844 76.2532 35.7835 76.1542C35.8825 76.0551 35.9815 75.956 35.9815 75.8074L36.1796 75.857C36.1796 75.956 36.0806 76.1046 36.031 76.2037C35.932 76.3027 35.833 76.3523 35.7339 76.4018C35.5854 76.4513 35.4864 76.4513 35.3378 76.4513C35.0903 76.4018 34.8922 76.3027 34.7436 76.1046C34.5951 75.9065 34.5456 75.6588 34.5951 75.3121V75.2626C34.5951 75.0644 34.6941 74.9159 34.7932 74.7177C34.8922 74.5691 34.9912 74.4701 35.1398 74.4205C35.2883 74.371 35.4369 74.3215 35.6349 74.371C35.8825 74.4205 36.031 74.4701 36.1796 74.6187C36.3281 74.7673 36.3776 74.9654 36.3281 75.1635L36.1301 75.114C36.1301 74.9654 36.0806 74.8168 36.031 74.7177C35.932 74.6187 35.833 74.5196 35.6349 74.5196C35.4369 74.4701 35.2388 74.5691 35.1398 74.6682C34.9912 74.8168 34.9417 75.0149 34.8922 75.2626V75.3121C34.8427 75.5598 34.8922 75.8074 34.9912 75.956C35.0407 76.1542 35.1893 76.2037 35.3873 76.2532ZM33.9019 76.2037L33.6543 76.1542L34.0009 74.1233L34.2485 74.1729L33.9019 76.2037ZM34.1 73.5289C34.1 73.4299 34.1495 73.3804 34.298 73.3804C34.3475 73.3804 34.397 73.4299 34.397 73.4299C34.397 73.4794 34.4466 73.4794 34.397 73.5289C34.397 73.5785 34.3475 73.5785 34.3475 73.628C34.298 73.6776 34.2485 73.6776 34.2485 73.628C34.199 73.628 34.1495 73.5785 34.1495 73.5785C34.1 73.628 34.1 73.5785 34.1 73.5289ZM32.466 75.6093L33.4563 74.0243L33.7038 74.0738L32.5155 75.956L32.3174 75.9065L31.9708 73.7271L32.2184 73.7766L32.466 75.6093ZM31.7727 73.8757C31.7232 73.8757 31.6737 73.8261 31.6242 73.8261C31.4757 73.7766 31.3766 73.7766 31.2281 73.8261C31.129 73.8757 31.03 73.9747 30.931 74.1233L30.5844 75.5102L30.3863 75.4607L30.8815 73.4794L31.0795 73.5289L30.9805 73.8261C31.1786 73.628 31.3766 73.529 31.6242 73.628C31.6737 73.628 31.7232 73.6775 31.7727 73.6775V73.8757ZM29.0989 75.114C28.7523 75.0149 28.5543 74.7673 28.4552 74.4205C28.4057 74.2224 28.4552 74.0738 28.5048 73.8757V73.7766C28.5543 73.5785 28.6533 73.4299 28.7523 73.2813C28.8514 73.1327 28.9999 73.0832 29.1485 73.0336C29.297 72.9841 29.4455 72.9841 29.5941 73.0336C29.8417 73.0832 29.9902 73.2318 30.0892 73.4794C30.1883 73.6776 30.1883 73.9252 30.0892 74.2224L30.0397 74.3215L28.6533 73.8757V73.9252C28.6038 74.1729 28.6038 74.371 28.6533 74.5196C28.7523 74.7177 28.8514 74.8168 29.0494 74.9158C29.1484 74.9654 29.297 74.9654 29.396 74.9654C29.4951 74.9654 29.5941 74.9159 29.6931 74.8168L29.7921 74.9654C29.6931 75.1635 29.4455 75.213 29.0989 75.114ZM29.6436 73.2318C29.4951 73.1822 29.3465 73.1822 29.198 73.2813C29.0494 73.3804 28.9504 73.5289 28.8514 73.6775L30.0397 74.0243C30.0892 73.8261 30.0892 73.6775 30.0397 73.5289C29.9407 73.3804 29.8417 73.2813 29.6436 73.2318ZM27.8611 73.9252C27.9106 73.7766 27.9106 73.628 27.8611 73.5289C27.8115 73.4299 27.6135 73.2813 27.4154 73.0832C27.1679 72.885 27.0193 72.7364 26.9203 72.5878C26.7717 72.3897 26.7717 72.1916 26.8212 71.9935C26.9203 71.7953 27.0193 71.6467 27.2669 71.5972C27.4649 71.5477 27.7125 71.5477 27.9601 71.6467C28.1086 71.6963 28.2572 71.7953 28.4057 71.9439C28.5048 72.043 28.6038 72.1916 28.6038 72.3402C28.6533 72.4888 28.6038 72.6374 28.5543 72.786L28.3562 72.6869C28.4057 72.4888 28.4057 72.3402 28.3562 72.1916C28.2572 72.043 28.1582 71.9439 27.9106 71.8449C27.7125 71.7458 27.5145 71.7458 27.3659 71.7953C27.2174 71.8449 27.1183 71.9439 27.0688 72.0925C27.0193 72.2411 27.0193 72.3402 27.1183 72.4888C27.1679 72.5878 27.3164 72.7364 27.564 72.885C27.762 73.0336 27.9106 73.1822 28.0096 73.2813C28.1086 73.3804 28.1581 73.529 28.2077 73.628C28.2077 73.7766 28.2077 73.8757 28.1582 73.9747C28.0591 74.1729 27.9601 74.3215 27.7125 74.371C27.5145 74.4205 27.2669 74.4205 27.0193 74.3215C26.8212 74.2719 26.6727 74.1729 26.5737 74.0243C26.4251 73.9252 26.3756 73.7766 26.3261 73.628C26.2766 73.4794 26.3261 73.3308 26.3756 73.1822L26.5737 73.2813C26.5242 73.4794 26.5242 73.628 26.6232 73.7766C26.7222 73.9252 26.8708 74.0738 27.1183 74.1233C27.3164 74.2224 27.5145 74.2224 27.663 74.1729C27.7125 74.1729 27.8115 74.0738 27.8611 73.9252ZM25.5834 71.7458C25.5339 71.6963 25.4843 71.6963 25.4348 71.6467C25.3358 71.5972 25.1872 71.5477 25.0387 71.5972C24.9397 71.6467 24.7911 71.6963 24.6921 71.7953L24.0979 73.0832L23.8999 72.9841L24.7911 71.1019L24.9892 71.2009L24.8406 71.4981C25.0387 71.3495 25.2863 71.3 25.5339 71.3991C25.5834 71.4486 25.6329 71.4486 25.6824 71.4981L25.5834 71.7458ZM22.3154 70.9533C22.4144 70.7552 22.5134 70.6561 22.662 70.557C22.8105 70.458 22.9591 70.4084 23.1076 70.4084C23.2562 70.4084 23.4542 70.458 23.6028 70.5075C23.8503 70.6561 23.9989 70.8047 24.0484 71.1019C24.0979 71.3495 24.0484 71.5972 23.8999 71.8944V71.9439C23.8008 72.0925 23.7018 72.2411 23.5533 72.3402C23.4047 72.4392 23.2562 72.4888 23.1076 72.4888C22.9591 72.4888 22.761 72.4393 22.6125 72.3897C22.3649 72.2411 22.2164 72.0925 22.1668 71.7953C22.0678 71.5477 22.1173 71.2505 22.3154 70.9533ZM22.4639 71.1019C22.3649 71.3 22.3154 71.5477 22.3649 71.7458C22.4144 71.9439 22.5134 72.0925 22.7115 72.1916C22.9096 72.2906 23.0581 72.2907 23.2562 72.2411C23.4542 72.1421 23.6028 71.9935 23.7018 71.7953V71.7458C23.8008 71.5972 23.8008 71.4486 23.8503 71.3C23.8503 71.1514 23.8503 71.0524 23.8008 70.9038C23.7513 70.8047 23.6523 70.7056 23.5533 70.6561C23.3552 70.557 23.2066 70.557 23.0086 70.6066C22.761 70.7056 22.6125 70.8542 22.4639 71.1019ZM20.8794 71.3L21.8697 69.715L21.5727 69.5169L21.6717 69.3683L21.9688 69.5664L22.1173 69.3683C22.2163 69.1701 22.3649 69.0711 22.5134 69.0215C22.662 68.972 22.8105 69.0215 23.0086 69.1206C23.0581 69.1701 23.1571 69.2197 23.2066 69.2692L23.1076 69.4178C23.0581 69.3683 23.0086 69.3187 22.9591 69.2692C22.86 69.2197 22.761 69.1701 22.662 69.2197C22.563 69.2692 22.4639 69.3187 22.4144 69.4673L22.2659 69.6655L22.662 69.9131L22.563 70.0617L22.1668 69.814L21.1765 71.3991L20.8794 71.3ZM19.8891 69.6655C19.6911 69.8636 19.493 70.0122 19.2454 70.0122C18.9979 70.0122 18.7503 69.9626 18.5522 69.7645C18.4037 69.6655 18.2551 69.5169 18.2056 69.3187C18.1561 69.1206 18.1066 68.9225 18.1561 68.7739C18.2056 68.5757 18.3047 68.3776 18.4037 68.1795L18.6018 67.8823C18.7503 67.6842 18.8988 67.5356 19.0969 67.4365C19.2454 67.3375 19.4435 67.2879 19.6416 67.2879C19.8396 67.2879 20.0377 67.387 20.1862 67.486C20.4338 67.6842 20.5824 67.8823 20.6319 68.0804C20.6814 68.3281 20.6319 68.5262 20.4833 68.7739L20.2853 68.6253C20.5328 68.229 20.4338 67.8823 20.0872 67.5851C19.8891 67.4365 19.6416 67.387 19.4435 67.486C19.1959 67.5356 18.9979 67.7337 18.7998 67.9814L18.6018 68.2786C18.4037 68.5262 18.3047 68.7739 18.3542 69.0215C18.3542 69.2692 18.4532 69.4673 18.6513 69.6159C18.8493 69.7645 19.0474 69.814 19.1959 69.814C19.3445 69.814 19.5425 69.715 19.6911 69.5169L19.8891 69.6655ZM18.0076 67.8328C17.859 68.0309 17.661 68.1795 17.4629 68.2786C17.2648 68.3776 17.0668 68.3776 16.8687 68.3776C16.6707 68.3281 16.4726 68.2786 16.3241 68.13C16.0765 67.9318 15.9279 67.6842 15.9279 67.3374C15.9279 67.0403 16.027 66.7431 16.3241 66.4459L16.5221 66.2477C16.6707 66.0496 16.8687 65.901 17.0668 65.802C17.2648 65.7029 17.4629 65.6534 17.661 65.7029C17.859 65.7524 18.0076 65.802 18.2056 65.9506C18.3542 66.0991 18.5027 66.2477 18.5522 66.4459C18.6018 66.644 18.6018 66.8421 18.5522 67.0403C18.5027 67.2384 18.4037 67.4365 18.2551 67.6346L18.0076 67.8328ZM18.0076 67.4365C18.2056 67.1889 18.3542 66.9412 18.3542 66.6935C18.3542 66.4459 18.2551 66.2477 18.0571 66.0991C17.859 65.9505 17.661 65.8515 17.4134 65.901C17.1658 65.9506 16.9678 66.0991 16.7202 66.3468L16.5221 66.5449C16.3241 66.7926 16.225 67.0403 16.1755 67.2879C16.1755 67.5356 16.2745 67.7337 16.4726 67.9318C16.6707 68.0804 16.9182 68.1795 17.1163 68.13C17.3639 68.0804 17.5619 67.9318 17.8095 67.6842L18.0076 67.4365ZM15.4823 66.3963C15.5813 66.2973 15.6309 66.1487 15.6309 66.0001C15.6309 65.8515 15.5318 65.6534 15.3833 65.4057C15.2347 65.158 15.1357 64.9599 15.1357 64.7618C15.0862 64.5141 15.1357 64.3655 15.2842 64.1674C15.4328 64.0188 15.6309 63.9693 15.8289 63.9693C16.027 64.0188 16.2745 64.1179 16.4726 64.316C16.6212 64.4646 16.7202 64.5637 16.7697 64.7123C16.8192 64.8608 16.8192 65.0094 16.8192 65.158C16.7697 65.3066 16.7202 65.4552 16.6212 65.5543L16.4726 65.4057C16.6212 65.2571 16.6707 65.1085 16.6707 64.9599C16.6707 64.8113 16.5716 64.6132 16.4231 64.4646C16.2745 64.316 16.126 64.2169 15.9775 64.2169C15.8289 64.1674 15.6804 64.2169 15.5813 64.3655C15.4823 64.4646 15.4328 64.6132 15.4823 64.7123C15.4823 64.8608 15.5813 65.059 15.7299 65.2571C15.8784 65.5048 15.9279 65.6534 15.9775 65.802C16.027 65.9506 16.027 66.0496 16.027 66.1982C15.9775 66.3468 15.9279 66.4459 15.8289 66.5449C15.6804 66.6935 15.4823 66.7926 15.2842 66.7431C15.0862 66.6935 14.8386 66.5945 14.6406 66.3963C14.492 66.2477 14.393 66.0991 14.3435 65.9506C14.2939 65.802 14.2444 65.6534 14.2939 65.5048C14.3435 65.3562 14.393 65.2076 14.492 65.1085L14.6406 65.2571C14.492 65.4057 14.4425 65.5543 14.492 65.7524C14.5415 65.9506 14.6406 66.0991 14.7891 66.2973C14.9376 66.4459 15.0862 66.5449 15.2842 66.5449C15.2347 66.5449 15.3833 66.4954 15.4823 66.3963Z" fill="white"/>
<path fill-rule="evenodd" clip-rule="evenodd" d="M54.4506 60.8472C54.4506 60.5996 54.5001 60.4014 54.5992 60.2033C54.6982 60.0052 54.7972 59.8566 54.9953 59.7575C55.1438 59.6585 55.3419 59.6089 55.5399 59.6089C55.8865 59.6089 56.1341 59.708 56.3322 59.9556C56.5302 60.2033 56.6293 60.5005 56.6293 60.8472V60.8968C56.6293 61.1444 56.5798 61.3425 56.4807 61.5407C56.3817 61.7388 56.2827 61.8874 56.0846 61.9865C55.8865 62.0855 55.738 62.1351 55.4904 62.1351C55.1438 62.1351 54.8962 62.036 54.6982 61.7883C54.5496 61.5407 54.4506 61.2435 54.4506 60.8472ZM54.8962 60.8968C54.8962 61.1444 54.9458 61.3921 55.0943 61.5407C55.1933 61.6893 55.3914 61.7883 55.5895 61.7883C55.7875 61.7883 55.9856 61.6893 56.0846 61.5407C56.1836 61.3921 56.2827 61.1444 56.2827 60.8472C56.2827 60.5996 56.2332 60.3519 56.0846 60.2033C55.9856 60.0547 55.7875 59.9556 55.5895 59.9556C55.3914 59.9556 55.2428 60.0547 55.0943 60.2033C54.9458 60.3519 54.8962 60.5996 54.8962 60.8968ZM53.7574 61.4416C53.7574 61.3425 53.7079 61.2435 53.6089 61.1939C53.5098 61.1444 53.3613 61.0949 53.1632 61.0453C52.9652 60.9958 52.7671 60.9463 52.6681 60.8968C52.569 60.8472 52.47 60.7482 52.4205 60.6986C52.371 60.5996 52.3215 60.5005 52.3215 60.4014C52.3215 60.2033 52.4205 60.0547 52.569 59.9061C52.7176 59.7575 52.9652 59.708 53.2127 59.708C53.4603 59.708 53.7079 59.7575 53.8564 59.9061C54.005 60.0547 54.104 60.2033 54.104 60.451H53.7079C53.7079 60.3519 53.6584 60.2528 53.5593 60.1538C53.4603 60.0547 53.3613 60.0547 53.2127 60.0547C53.0642 60.0547 52.9652 60.1042 52.8661 60.1538C52.7671 60.2033 52.7176 60.3024 52.7176 60.4014C52.7176 60.5005 52.7671 60.5996 52.8166 60.6491C52.8661 60.6986 53.0147 60.7482 53.2622 60.7977C53.4603 60.8472 53.6089 60.8968 53.7574 60.9463C53.9059 60.9958 53.9555 61.0949 54.0545 61.1939C54.104 61.293 54.1535 61.3921 54.1535 61.5407C54.1535 61.7388 54.0545 61.9369 53.9059 62.036C53.7574 62.1846 53.5098 62.2341 53.2622 62.2341C53.0642 62.2341 52.9156 62.1846 52.7671 62.1351C52.6186 62.0855 52.5195 61.9865 52.4205 61.8379C52.3215 61.7388 52.2719 61.5902 52.2719 61.4416H52.6681C52.6681 61.5902 52.7176 61.6893 52.8166 61.7883C52.9156 61.8874 53.0642 61.8874 53.2127 61.8874C53.3613 61.8874 53.5098 61.8379 53.6089 61.7883C53.7079 61.6397 53.7574 61.5407 53.7574 61.4416ZM51.5787 60.9958H52.0244V61.3425H51.5787V62.0855H51.1826V61.3425H49.6972V61.0949L51.1331 58.8659H51.5787V60.9958ZM50.1923 60.9958H51.1826V59.4108L51.1331 59.5099L50.1923 60.9958ZM48.6078 61.7883C48.7564 61.7883 48.9049 61.7388 49.004 61.6397C49.103 61.5407 49.1525 61.4416 49.202 61.293H49.5981C49.5981 61.4416 49.5486 61.5902 49.4496 61.6893C49.3506 61.7883 49.2515 61.9369 49.103 61.9865C48.9544 62.036 48.8059 62.0855 48.6574 62.0855C48.3107 62.0855 48.0632 61.9865 47.8651 61.7388C47.667 61.5407 47.568 61.2435 47.568 60.8472V60.7977C47.568 60.55 47.6175 60.3519 47.7166 60.1538C47.8156 59.9556 47.9146 59.807 48.0632 59.708C48.2117 59.6089 48.4098 59.5594 48.6078 59.5594C48.8554 59.5594 49.103 59.6585 49.301 59.807C49.4991 59.9556 49.5981 60.1538 49.5981 60.451H49.202C49.202 60.3024 49.1525 60.1538 49.004 60.0547C48.9049 59.9556 48.7564 59.9061 48.6078 59.9061C48.4098 59.9061 48.2612 60.0052 48.1127 60.1538C48.0137 60.3024 47.9641 60.5005 47.9641 60.7977V60.8968C47.9641 61.1939 48.0137 61.3921 48.1127 61.5407C48.2612 61.6893 48.4098 61.7883 48.6078 61.7883ZM45.0923 60.8472C45.0923 60.5996 45.1418 60.4014 45.2408 60.2033C45.3398 60.0052 45.4389 59.8566 45.6369 59.7575C45.7855 59.6585 45.9835 59.6089 46.1816 59.6089C46.5282 59.6089 46.7758 59.708 46.9738 59.9556C47.1719 60.2033 47.2709 60.5005 47.2709 60.8472V60.8968C47.2709 61.1444 47.2214 61.3425 47.1224 61.5407C47.0234 61.7388 46.9243 61.8874 46.7263 61.9865C46.5282 62.0855 46.3797 62.1351 46.1321 62.1351C45.7855 62.1351 45.5379 62.036 45.3398 61.7883C45.1913 61.5407 45.0923 61.2435 45.0923 60.8472ZM45.4884 60.8968C45.4884 61.1444 45.5379 61.3921 45.6865 61.5407C45.7855 61.6893 45.9835 61.7883 46.1816 61.7883C46.3797 61.7883 46.5777 61.6893 46.6768 61.5407C46.7758 61.3921 46.8748 61.1444 46.8748 60.8472C46.8748 60.5996 46.8253 60.3519 46.6768 60.2033C46.5777 60.0547 46.3797 59.9556 46.1816 59.9556C45.9835 59.9556 45.835 60.0547 45.6865 60.2033C45.5379 60.3519 45.4884 60.5996 45.4884 60.8968ZM44.3495 61.4416C44.3495 61.3425 44.3 61.2435 44.201 61.1939C44.102 61.1444 43.9534 61.0949 43.7554 61.0453C43.5573 60.9958 43.3592 60.9463 43.2602 60.8968C43.1612 60.8472 43.0622 60.7482 43.0126 60.6986C42.9631 60.5996 42.9136 60.5005 42.9136 60.4014C42.9136 60.2033 43.0126 60.0547 43.1612 59.9061C43.3097 59.7575 43.5573 59.708 43.8049 59.708C44.0525 59.708 44.3 59.7575 44.4486 59.9061C44.5971 60.0547 44.6962 60.2033 44.6962 60.451H44.3C44.3 60.3519 44.2505 60.2528 44.1515 60.1538C44.0525 60.0547 43.9534 60.0547 43.8049 60.0547C43.6563 60.0547 43.5573 60.1042 43.4583 60.1538C43.3592 60.2033 43.3097 60.3024 43.3097 60.4014C43.3097 60.5005 43.3592 60.5996 43.4088 60.6491C43.5078 60.6986 43.6068 60.7482 43.8544 60.7977C44.0525 60.8472 44.201 60.8968 44.3495 60.9463C44.4981 60.9958 44.5476 61.0949 44.6466 61.1939C44.6961 61.293 44.7457 61.3921 44.7457 61.5407C44.7457 61.7388 44.6466 61.9369 44.4981 62.036C44.3495 62.1846 44.102 62.2341 43.8544 62.2341C43.6563 62.2341 43.5078 62.1846 43.3592 62.1351C43.2107 62.0855 43.1117 61.9865 43.0126 61.8379C42.9136 61.7388 42.8641 61.5902 42.8641 61.4416H43.2602C43.2602 61.5902 43.3097 61.6893 43.4088 61.7883C43.5078 61.8874 43.6563 61.8874 43.8049 61.8874C43.9534 61.8874 44.102 61.8379 44.201 61.7883C44.3 61.6397 44.3495 61.5407 44.3495 61.4416ZM41.2796 62.3332H40.933L42.2699 58.8164H42.6165L41.2796 62.3332ZM38.6553 60.8472C38.6553 60.451 38.7543 60.1538 38.9029 59.9556C39.0514 59.7575 39.299 59.6089 39.5961 59.6089C39.8932 59.6089 40.0913 59.708 40.2893 59.9061V59.6584H40.6854V61.9865C40.6854 62.2837 40.5864 62.5313 40.3883 62.7294C40.1903 62.9276 39.9427 62.9771 39.6456 62.9771C39.4971 62.9771 39.299 62.9276 39.1505 62.878C39.0019 62.8285 38.8534 62.6799 38.7543 62.5808L38.9524 62.3332C39.1505 62.5313 39.3485 62.6799 39.5961 62.6799C39.7942 62.6799 39.9427 62.6304 40.0417 62.5313C40.1408 62.4322 40.1903 62.2836 40.1903 62.036V61.8379C40.0417 62.036 39.7942 62.1351 39.4971 62.1351C39.2 62.1351 39.0019 62.036 38.8039 61.7883C38.7543 61.5407 38.6553 61.2435 38.6553 60.8472ZM39.101 60.8968C39.101 61.1444 39.1505 61.3921 39.2495 61.5407C39.3485 61.6893 39.4971 61.7883 39.6951 61.7883C39.9427 61.7883 40.1408 61.6893 40.2398 61.4416V60.3519C40.0913 60.1042 39.9427 60.0052 39.6951 60.0052C39.4971 60.0052 39.3485 60.1042 39.2495 60.2528C39.1505 60.3519 39.101 60.5996 39.101 60.8968ZM38.5068 60.0547C38.4573 60.0547 38.3582 60.0547 38.3087 60.0547C38.0611 60.0547 37.8631 60.1538 37.764 60.4014V62.0855H37.3679V59.708H37.764V60.0052C37.9126 59.8071 38.1107 59.708 38.3582 59.708C38.4573 59.708 38.5068 59.708 38.5563 59.7575V60.0547H38.5068ZM34.7436 60.8472C34.7436 60.5996 34.7931 60.4014 34.8922 60.2033C34.9912 60.0052 35.0902 59.8566 35.2883 59.7575C35.4368 59.6585 35.6349 59.6089 35.833 59.6089C36.1796 59.6089 36.4271 59.708 36.6252 59.9556C36.8233 60.2033 36.9223 60.5005 36.9223 60.8472V60.8968C36.9223 61.1444 36.8728 61.3425 36.7737 61.5407C36.6747 61.7388 36.5757 61.8874 36.3776 61.9865C36.1796 62.0855 36.031 62.1351 35.7834 62.1351C35.4368 62.1351 35.1893 62.036 34.9912 61.7883C34.8427 61.5407 34.7436 61.2435 34.7436 60.8472ZM35.1893 60.8968C35.1893 61.1444 35.2388 61.3921 35.3873 61.5407C35.4864 61.6893 35.6844 61.7883 35.8825 61.7883C36.0805 61.7883 36.2786 61.6893 36.3776 61.5407C36.4767 61.3921 36.5757 61.1444 36.5757 60.8472C36.5757 60.5996 36.5262 60.3519 36.3776 60.2033C36.2786 60.0547 36.0805 59.9556 35.8825 59.9556C35.6844 59.9556 35.5359 60.0547 35.3873 60.2033C35.2388 60.3519 35.1893 60.5996 35.1893 60.8968ZM33.8028 61.8379C33.8028 61.7883 33.8028 61.6893 33.8524 61.6397C33.9019 61.5902 33.9514 61.5902 34.0504 61.5902C34.1495 61.5902 34.199 61.5902 34.2485 61.6397C34.298 61.6893 34.298 61.7388 34.298 61.8379C34.298 61.8874 34.298 61.9369 34.2485 61.9865C34.199 62.036 34.1495 62.036 34.0504 62.036C33.9514 62.036 33.9019 62.036 33.8524 61.9865C33.8028 61.9865 33.8028 61.8874 33.8028 61.8379ZM32.9116 62.0855C32.9116 62.036 32.8621 61.9369 32.8621 61.8379C32.664 62.036 32.4659 62.1351 32.1689 62.1351C31.9213 62.1351 31.7232 62.0855 31.5747 61.9369C31.4261 61.7883 31.3271 61.6397 31.3271 61.4416C31.3271 61.1939 31.4261 60.9958 31.6242 60.8472C31.8222 60.6986 32.0698 60.6491 32.4164 60.6491H32.8125V60.451C32.8125 60.3024 32.763 60.2033 32.664 60.1042C32.565 60.0052 32.4659 59.9556 32.2679 59.9556C32.1193 59.9556 32.0203 60.0052 31.9213 60.0547C31.8222 60.1042 31.7727 60.2033 31.7727 60.3024H31.4261C31.4261 60.2033 31.4756 60.0547 31.5747 59.9556C31.6737 59.8566 31.7727 59.7575 31.9213 59.708C32.0698 59.6585 32.2184 59.6089 32.4164 59.6089C32.7135 59.6089 32.9116 59.6585 33.0601 59.807C33.2087 59.9556 33.3077 60.1538 33.3077 60.4014V61.4911C33.3077 61.6893 33.3572 61.8874 33.4067 62.036V62.0855H32.9116ZM32.2184 61.7388C32.3669 61.7388 32.4659 61.6893 32.565 61.6397C32.664 61.5902 32.763 61.4911 32.8125 61.3921V60.8968H32.5155C32.0203 60.8968 31.7727 61.0454 31.7727 61.3425C31.7727 61.4911 31.8222 61.5902 31.9213 61.6397C31.9708 61.6893 32.1193 61.7388 32.2184 61.7388ZM31.03 60.8968C31.03 61.2435 30.931 61.5407 30.7824 61.7883C30.6339 62.036 30.3863 62.1351 30.0892 62.1351C29.7921 62.1351 29.5446 62.036 29.396 61.8379V62.9771H28.9999V59.6584H29.396V59.9061C29.5446 59.708 29.7921 59.6089 30.0892 59.6089C30.3863 59.6089 30.5844 59.708 30.7824 59.9556C30.931 60.1538 31.03 60.451 31.03 60.8968ZM30.6339 60.8472C30.6339 60.5996 30.5844 60.3519 30.4853 60.2033C30.3863 60.0547 30.1883 59.9556 29.9902 59.9556C29.7426 59.9556 29.5446 60.0547 29.4455 60.3024V61.4416C29.5446 61.6397 29.7426 61.7883 29.9902 61.7883C30.1883 61.7883 30.3368 61.6893 30.4358 61.5407C30.5844 61.3921 30.6339 61.1444 30.6339 60.8472ZM27.7125 61.7883C27.861 61.7883 28.0096 61.7388 28.1086 61.6397C28.2077 61.5407 28.2572 61.4416 28.3067 61.293H28.7028C28.7028 61.4416 28.6533 61.5902 28.5543 61.6893C28.4552 61.7883 28.3562 61.9369 28.2077 61.9865C28.0591 62.036 27.9106 62.0855 27.762 62.0855C27.4154 62.0855 27.1678 61.9865 26.9698 61.7388C26.7717 61.5407 26.6727 61.2435 26.6727 60.8472V60.7977C26.6727 60.55 26.7222 60.3519 26.8212 60.1538C26.9203 59.9556 27.0193 59.807 27.1678 59.708C27.3164 59.6089 27.5144 59.5594 27.7125 59.5594C27.9601 59.5594 28.2077 59.6585 28.4057 59.807C28.6038 59.9556 28.7028 60.1538 28.7028 60.451H28.3067C28.3067 60.3024 28.2572 60.1538 28.1086 60.0547C28.0096 59.9556 27.861 59.9061 27.7125 59.9061C27.5144 59.9061 27.3659 60.0052 27.2174 60.1538C27.1183 60.3024 27.0688 60.5005 27.0688 60.7977V60.8968C27.0688 61.1939 27.1183 61.3921 27.2174 61.5407C27.3164 61.6893 27.5144 61.7883 27.7125 61.7883ZM25.7814 59.0145C25.7814 58.965 25.7814 58.9155 25.8309 58.8659C25.8804 58.8164 25.93 58.8164 26.029 58.8164C26.128 58.8164 26.1775 58.8164 26.2271 58.8659C26.2766 58.9155 26.2766 58.965 26.2766 59.0145C26.2766 59.0641 26.2766 59.1136 26.2271 59.1631C26.1775 59.2127 26.128 59.2127 26.029 59.2127C25.93 59.2127 25.8804 59.2127 25.8309 59.1631C25.7814 59.1631 25.7814 59.1136 25.7814 59.0145ZM25.7814 62.0855H26.1775V59.708H25.7814V62.0855ZM24.8901 62.0855C24.8901 62.036 24.8406 61.9369 24.8406 61.8379C24.6426 62.036 24.4445 62.1351 24.1474 62.1351C23.8998 62.1351 23.7018 62.0855 23.5532 61.9369C23.4047 61.7883 23.3057 61.6397 23.3057 61.4416C23.3057 61.1939 23.4047 60.9958 23.6028 60.8472C23.8008 60.6986 24.0484 60.6491 24.395 60.6491H24.7911V60.451C24.7911 60.3024 24.7416 60.2033 24.6426 60.1042C24.5435 60.0052 24.4445 59.9556 24.2465 59.9556C24.0979 59.9556 23.9989 60.0052 23.8998 60.0547C23.8008 60.1042 23.7513 60.2033 23.7513 60.3024H23.3552C23.3552 60.2033 23.4047 60.0547 23.5037 59.9556C23.6028 59.8566 23.7018 59.7575 23.8503 59.708C23.9989 59.6585 24.1474 59.6089 24.3455 59.6089C24.6426 59.6089 24.8406 59.6585 24.9892 59.807C25.1377 59.9556 25.2368 60.1538 25.2368 60.4014V61.4911C25.2368 61.6893 25.2863 61.8874 25.3358 62.036V62.0855H24.8901ZM24.1969 61.7388C24.3455 61.7388 24.4445 61.6893 24.5435 61.6397C24.6426 61.5902 24.7416 61.4911 24.7911 61.3921V60.8968H24.494C23.9989 60.8968 23.7513 61.0454 23.7513 61.3425C23.7513 61.4911 23.8008 61.5902 23.8998 61.6397C23.9494 61.6893 24.0484 61.7388 24.1969 61.7388Z" fill="white"/>
</svg>
