<svg width="32" height="32" viewBox="0 0 32 32" fill="none" xmlns="http://www.w3.org/2000/svg">
<path fill-rule="evenodd" clip-rule="evenodd" d="M16 32C24.8366 32 32 24.8366 32 16C32 7.16344 24.8366 0 16 0C7.16344 0 0 7.16344 0 16C0 24.8366 7.16344 32 16 32ZM16.5286 12.4714L19.7239 15.6667L10.6667 15.6667C10.2985 15.6667 10 15.9651 10 16.3333C10 16.7015 10.2985 17 10.6667 17L19.7239 17L16.5286 20.1953C16.2682 20.4556 16.2682 20.8777 16.5286 21.1381C16.7889 21.3984 17.2111 21.3984 17.4714 21.1381L21.8047 16.8047C22.0651 16.5444 22.0651 16.1223 21.8047 15.8619L17.4714 11.5286C17.2111 11.2682 16.7889 11.2682 16.5286 11.5286C16.2682 11.7889 16.2682 12.2111 16.5286 12.4714Z" fill="white"/>
</svg>
