<svg width="82" height="82" viewBox="0 0 82 82" fill="none" xmlns="http://www.w3.org/2000/svg">
<path d="M80.9159 39.3857C81 39.8908 81 40.3958 81 40.9009V41.0693C80.9159 62.4508 64.099 80.0442 42.5734 80.9702C20.5433 81.812 1.96064 64.7236 1.03572 42.5845C0.110787 20.5296 17.264 1.92597 39.2941 1C39.4623 1 39.7146 1 39.8827 1C40.2191 1 40.5554 1 40.9758 1C62.3333 1 79.991 17.92 80.9159 39.3857Z" stroke="white"/>
<path d="M40.9763 71.9637C23.9071 71.9637 10.0332 58.0741 10.0332 40.9857C10.0332 23.8974 23.9071 10.0078 40.9763 10.0078C58.0454 10.0078 71.9193 23.8974 71.9193 40.9857C71.9193 58.0741 58.0454 71.9637 40.9763 71.9637Z" stroke="white"/>
<path d="M27.523 9.83884L26.2617 6.72421L28.1116 6.05078L28.1957 6.3875L26.7662 6.89257L27.1866 7.9869L28.532 7.48183L28.6161 7.81854L27.2707 8.32362L27.8593 9.67048L27.523 9.83884Z" fill="white"/>
<path d="M29.709 8.99861L29.8772 5.46309L30.2135 5.37891L32.3997 8.241L32.0634 8.32518L31.3066 7.39921L30.0453 7.8201V8.91443L29.709 8.99861ZM30.1294 5.7998L30.0453 7.48339L31.0543 7.14667L30.1294 5.7998Z" fill="white"/>
<path d="M33.0732 8.0742L32.3164 4.79121L32.6527 4.70703L33.4095 7.99002L33.0732 8.0742Z" fill="white"/>
<path d="M36.2684 5.04209C36.3525 5.54717 36.1003 5.88388 35.7639 6.05224L36.6889 7.39911H36.3525L35.5117 6.13642L34.6708 6.30478L34.9231 7.65164L34.4186 7.73582L33.9141 4.36866L35.0912 4.2003C35.7639 4.11612 36.1843 4.45284 36.2684 5.04209ZM35.2594 5.88388C35.7639 5.7997 35.9321 5.54717 35.9321 5.12627C35.848 4.70538 35.5117 4.53702 35.0912 4.53702L34.3345 4.6212L34.5867 5.96806L35.2594 5.88388Z" fill="white"/>
<path d="M38.9594 5.71561C38.9594 6.47322 39.2957 6.89412 39.9684 6.89412C40.4729 6.89412 40.8092 6.5574 40.8092 6.13651H41.1456C41.1456 6.72576 40.6411 7.23084 39.9684 7.23084C39.1276 7.23084 38.623 6.72576 38.623 5.79979V5.29472C38.623 4.36875 39.0435 3.77949 39.8843 3.69531C40.557 3.69531 41.1456 4.11621 41.1456 4.78964H40.8092C40.8092 4.36875 40.4729 4.03203 39.9684 4.03203C39.3798 4.03203 39.0435 4.5371 39.0435 5.29472L38.9594 5.71561Z" fill="white"/>
<path d="M44.4247 4.87558C44.4247 5.46483 44.0883 5.71737 43.752 5.80155L44.3406 7.31677H43.9202L43.3316 5.88573L42.4907 5.80155L42.4067 7.14842H42.0703L42.2385 3.78125L43.4157 3.86543C44.1724 3.86543 44.4247 4.3705 44.4247 4.87558ZM43.2475 5.46483C43.752 5.46483 44.0043 5.29647 44.0043 4.87558C44.0043 4.45468 43.752 4.20215 43.3316 4.11797L42.5748 4.03379L42.4907 5.38065L43.2475 5.46483Z" fill="white"/>
<path d="M47.1136 7.64919L45.1797 7.31248L45.6842 3.94531L47.6181 4.36621L47.5341 4.70292L45.9364 4.45039L45.7683 5.54472L47.2818 5.79725V6.13397L45.7683 5.88143L45.6001 7.05994L47.1977 7.31248L47.1136 7.64919Z" fill="white"/>
<path d="M49.8049 4.7916C50.7299 5.04414 51.0662 5.71757 50.8139 6.8119C50.5617 7.90623 49.9731 8.32712 48.9641 8.07459L47.9551 7.82205L48.7959 4.53906L49.8049 4.7916ZM48.3755 7.56951L49.0482 7.73787C49.8049 7.90623 50.2254 7.56951 50.4776 6.72772C50.7299 5.88593 50.4776 5.29668 49.7209 5.12832L49.0482 4.95996L48.3755 7.56951Z" fill="white"/>
<path d="M51.2344 8.74568L52.2434 5.54688L52.5797 5.63105L51.5707 8.82986L51.2344 8.74568Z" fill="white"/>
<path d="M53.252 9.41834L54.3451 6.64042L53.4201 6.21953L53.5042 5.88281L55.7745 6.80878L55.6904 7.1455L54.7655 6.7246L53.6724 9.50252L53.252 9.41834Z" fill="white"/>
<path d="M57.2885 73.3117C57.0363 72.8066 57.2044 72.4699 57.3726 72.2174L56.1113 71.2914L56.4477 71.123L57.6249 72.049L58.3816 71.6281L57.7089 70.4496L58.0453 70.2812L59.6429 73.2275L58.6339 73.8168C58.0453 74.0693 57.5408 73.8168 57.2885 73.3117ZM57.9612 72.2174C57.5408 72.4699 57.4567 72.8066 57.6249 73.1433C57.8771 73.5642 58.2134 73.5642 58.5498 73.3959L59.2224 73.0592L58.5498 71.8806L57.9612 72.2174Z" fill="white"/>
<path d="M53.5039 72.4725L55.3538 71.7148L56.6991 74.8295L54.8493 75.5029L54.6811 75.1662L56.1946 74.4928L55.7742 73.4826L54.3448 74.0719L54.1766 73.7351L55.606 73.1459L55.1015 72.0516L53.588 72.725L53.5039 72.4725Z" fill="white"/>
<path d="M52.6641 76.3441C52.0755 76.5125 51.571 76.2599 51.3187 75.6707C51.1506 75.0814 51.4028 74.5764 51.9914 74.3238L52.7482 74.0713L52.3277 72.8928L52.6641 72.8086L53.7572 76.0074L52.6641 76.3441ZM52.8322 74.408L52.3277 74.6605C51.7391 74.8289 51.4869 75.0814 51.6551 75.5865C51.8232 76.0074 52.0755 76.1758 52.4959 76.0074L53.2527 75.7549L52.8322 74.408Z" fill="white"/>
<path d="M50.4768 75.5012C50.7291 76.4271 50.3087 77.1006 49.5519 77.2689C48.7951 77.4373 48.1225 77.0164 47.9543 76.0904L47.8702 75.5853C47.618 74.6594 48.0384 73.9859 48.7951 73.8176C49.5519 73.6492 50.2246 74.0701 50.3927 74.9961L50.4768 75.5012ZM49.9723 75.0803C49.8042 74.3227 49.2996 74.0701 48.7951 74.1543C48.2906 74.3227 47.9543 74.7435 48.1225 75.5012L48.2065 76.0062C48.3747 76.7638 48.8792 77.0164 49.3837 76.9322C49.8882 76.848 50.2246 76.3429 50.0564 75.5853L49.9723 75.0803Z" fill="white"/>
<path d="M44.5922 77.014C44.5081 76.509 44.8445 76.1723 45.0967 76.0039L44.2559 74.657L44.6763 74.5729L45.5171 75.8355L46.358 75.7514L46.1898 74.4045L46.5261 74.3203L46.9466 77.6875L45.7694 77.8558C45.0967 78.0242 44.6763 77.6033 44.5922 77.014ZM45.6853 76.2564C45.1808 76.3406 45.0126 76.5932 45.0126 77.014C45.0967 77.4349 45.349 77.6875 45.8535 77.6033L46.6102 77.5191L46.4421 76.1723L45.6853 76.2564Z" fill="white"/>
<path d="M42.7417 74.8264L42.9099 77.8568L43.9189 77.7726V78.1094L41.4805 78.1935V77.8568L42.4895 77.7726L42.3213 74.7422L42.7417 74.8264Z" fill="white"/>
<path d="M40.6392 74.8242L40.5551 78.1914H40.2188L40.3028 74.8242H40.6392Z" fill="white"/>
<path d="M39.2103 74.8246L38.874 78.1918H38.5377L37.0241 75.3297L36.7719 78.0234H36.4355L36.7719 74.6562H37.1082L38.6217 77.5183L38.874 74.8246H39.2103Z" fill="white"/>
<path d="M33.2396 76.4269C33.2396 76.8478 33.4918 77.1845 33.9122 77.3528C34.5008 77.437 34.9213 77.1003 35.0894 76.4269L35.1735 75.9218C35.3417 75.1642 35.0894 74.6591 34.4168 74.5749C33.9123 74.4908 33.4918 74.7433 33.4077 75.1642L33.3237 75.5009L34.2486 75.6693V75.9218L32.9873 75.7534L33.1555 75.08C33.2396 74.4066 33.9123 74.0699 34.5849 74.2382C35.4258 74.4066 35.7621 74.9958 35.5939 76.006L35.5099 76.4269C35.3417 77.3528 34.7531 77.7737 33.9122 77.6054C33.2396 77.437 32.8192 76.9319 32.9032 76.3427L33.2396 76.4269Z" fill="white"/>
<path d="M31.6418 73.5644L29.4556 76.3424L29.1192 76.2582L29.0352 72.7227L29.3715 72.8068V73.9012L30.6328 74.3221L31.3054 73.4803L31.6418 73.5644ZM29.3715 75.9215L30.3805 74.5746L29.3715 74.2379V75.9215Z" fill="white"/>
<path d="M27.6063 73.647C27.9426 72.9736 27.7745 72.4685 27.1859 72.216C26.7654 72.0476 26.2609 72.1318 26.0928 72.5527L25.7564 72.3843C26.0087 71.7951 26.6814 71.6267 27.2699 71.8793C28.0267 72.216 28.1949 72.8894 27.8585 73.8154L27.7745 74.2363C27.354 75.0781 26.7654 75.4148 26.0087 75.1623C25.336 74.9097 25.0837 74.2363 25.336 73.647L25.6723 73.8154C25.5042 74.2363 25.6723 74.6572 26.1768 74.9097C26.7654 75.1623 27.1859 74.9097 27.5222 74.1521L27.6063 73.647Z" fill="white"/>
<path d="M24.9155 70.7855L23.402 73.3951L24.3269 73.9002L24.1588 74.2369L22.0566 73.0584L22.2248 72.8059L23.1497 73.3109L24.5792 70.6172L24.9155 70.7855Z" fill="white"/>
<path d="M22.1401 47.0454V41.5738H27.5215V40.5636H22.1401V36.018H27.9419V35.0078H20.9629V47.1296H22.1401V47.0454Z" fill="white"/>
<path d="M30.9701 40.0576C30.9701 37.448 32.1472 35.6803 34.5016 35.6803C36.4355 35.6803 37.6968 37.0271 37.6968 38.5424H38.7899C38.7899 36.4379 37.1082 34.5859 34.5016 34.5859C31.4746 34.5859 29.877 36.7746 29.877 40.0576V41.8253C29.877 45.1083 31.4746 47.2128 34.5016 47.2128C37.0241 47.2128 38.874 45.5292 38.874 43.4247H37.7809C37.7809 45.0242 36.4355 46.2027 34.5857 46.2027C32.2313 46.2027 31.0541 44.4349 31.0541 41.8253V40.0576H30.9701Z" fill="white"/>
<path d="M45.6847 34.9219H41.4805V47.0437H42.5736V41.9929H45.8529L48.2913 47.0437H49.6367L47.03 41.7404C48.2913 41.4037 49.3844 40.3093 49.3844 38.3732C49.4685 36.5213 48.2072 34.9219 45.6847 34.9219ZM42.6577 40.9828V35.932H45.5165C47.1982 35.932 48.2913 36.858 48.2913 38.4574C48.2913 40.0568 47.2823 40.8986 45.5165 40.8986H42.6577V40.9828Z" fill="white"/>
<path d="M52.2437 47.0437L53.589 43.1714H58.3818L59.7272 47.0437H60.9044L56.532 34.9219H55.3548L50.9824 47.0437H52.2437ZM56.0275 36.2687L58.0455 42.1613H53.9254L56.0275 36.2687Z" fill="white"/>
<path d="M5.23913 38.207L5.99589 39.6381L7.59349 39.8906L6.41631 41.0691L6.66856 42.6685L5.23913 41.9109L3.72561 42.6685L4.06195 41.0691L2.88477 39.8906L4.48237 39.6381L5.23913 38.207Z" fill="white"/>
<path d="M76.458 38.207L77.1307 39.6381L78.8123 39.8906L77.6352 41.0691L77.8874 42.6685L76.458 41.9109L74.9445 42.6685L75.1967 41.0691L74.0195 39.8906L75.7012 39.6381L76.458 38.207Z" fill="white"/>
</svg>
