<svg width="64" height="64" viewBox="0 0 64 64" fill="none" xmlns="http://www.w3.org/2000/svg">
<rect width="64" height="64" rx="16" fill="#CCCCCC"/>
<path d="M53.5333 10.4609H10.4609V53.5333H53.5333V10.4609Z" fill="#CCCCCC"/>
<path d="M45.2975 38.6693V38.2915H45.5749C45.7594 38.2915 45.8094 38.3487 45.8094 38.4589C45.8094 38.5721 45.7594 38.663 45.5421 38.6693H45.2975ZM45.492 38.8995C45.5717 38.9068 45.6484 38.8995 45.7063 38.9603C45.7723 39.0305 45.7723 39.1477 45.7891 39.2745C45.7994 39.3614 45.8227 39.4552 45.8395 39.5384H46.1337C46.0835 39.4054 46.0668 39.2512 46.0468 39.111C46.0231 38.9505 46.0001 38.8604 45.7961 38.82V38.8131C45.9938 38.7726 46.0972 38.6396 46.0972 38.4686C46.0972 38.1347 45.8158 38.0611 45.5455 38.0611H45.067V39.5384H45.2975V38.8995H45.492ZM45.5651 40.0763C46.2613 40.0763 46.819 39.5156 46.819 38.8163C46.819 38.124 46.2613 37.5625 45.5651 37.5625C44.8662 37.5625 44.3047 38.124 44.3047 38.8163C44.3046 39.5156 44.8663 40.0763 45.5651 40.0763ZM45.5651 39.8564C44.9903 39.8564 44.526 39.3911 44.526 38.8166C44.526 38.2485 44.9903 37.7835 45.5651 37.7835C46.1375 37.7835 46.5992 38.2485 46.5992 38.8166C46.5991 39.3911 46.1375 39.8564 45.5651 39.8564Z" fill="white"/>
<path d="M43.441 27.3837H41.4216V29.4011H43.441C43.9203 29.4011 44.3058 29.7914 44.3058 30.2678C44.3058 30.7477 43.9203 31.133 43.441 31.133H41.4216V33.1521H43.441C45.0347 33.1521 46.3252 31.8601 46.3252 30.2678C46.3252 28.6751 45.0345 27.3837 43.441 27.3837ZM31.9329 38.0581C34.3502 38.0581 36.4334 36.6424 37.4065 34.5937H39.9806V38.0581H41.4218V34.5937H43.4411C45.8321 34.5937 47.7689 32.6568 47.7689 30.2678C47.7689 27.8785 45.8321 25.9408 43.4411 25.9408H39.9806V31.133H37.9271C37.5082 28.1987 34.9842 25.9408 31.933 25.9408H24.8316L17.7678 38.0581H19.4529L21.4718 34.5937H28.7311V38.0581H31.9329ZM49.7883 30.2678C49.7883 33.7722 46.9461 36.6127 43.4411 36.6127V40.0733H37.9621V37.3737C36.4798 39.0308 34.33 40.0733 31.933 40.0733H26.7117V36.6127H22.6309L20.6121 40.0733H14.2031L23.6235 23.9219H31.9329C34.33 23.9219 36.4798 24.9676 37.9621 26.6249V23.9219H43.441C46.9461 23.9219 49.7883 26.7645 49.7883 30.2678ZM26.7117 27.3837V31.133H23.4908L22.3144 33.1521H28.731V27.3837H26.7117ZM36.549 31.9978C36.549 34.5466 34.4817 36.6127 31.9329 36.6127H30.1729V34.5937H31.933C33.3679 34.5937 34.5307 33.433 34.5307 31.9978C34.5307 30.5654 33.3679 29.4011 31.933 29.4011H30.1729V27.3838H31.933C34.4817 27.3837 36.549 29.4495 36.549 31.9978Z" fill="white"/>
<path d="M43.441 27.3837H41.4216V29.4011H43.441C43.9203 29.4011 44.3058 29.7914 44.3058 30.2678C44.3058 30.7477 43.9203 31.133 43.441 31.133H41.4216V33.1521H43.441C45.0347 33.1521 46.3252 31.8601 46.3252 30.2678C46.3252 28.6751 45.0345 27.3837 43.441 27.3837ZM31.9329 38.0581C34.3502 38.0581 36.4334 36.6424 37.4065 34.5937H39.9806V38.0581H41.4218V34.5937H43.4411C45.8321 34.5937 47.7689 32.6568 47.7689 30.2678C47.7689 27.8785 45.8321 25.9408 43.4411 25.9408H39.9806V31.133H37.9271C37.5082 28.1987 34.9842 25.9408 31.933 25.9408H24.8316L17.7678 38.0581H19.4529L21.4718 34.5937H28.7311V38.0581H31.9329ZM49.7883 30.2678C49.7883 33.7722 46.9461 36.6127 43.4411 36.6127V40.0733H37.9621V37.3737C36.4798 39.0308 34.33 40.0733 31.933 40.0733H26.7117V36.6127H22.6309L20.6121 40.0733H14.2031L23.6235 23.9219H31.9329C34.33 23.9219 36.4798 24.9676 37.9621 26.6249V23.9219H43.441C46.9461 23.9219 49.7883 26.7645 49.7883 30.2678ZM26.7117 27.3837V31.133H23.4908L22.3144 33.1521H28.731V27.3837H26.7117ZM36.549 31.9978C36.549 34.5466 34.4817 36.6127 31.9329 36.6127H30.1729V34.5937H31.933C33.3679 34.5937 34.5307 33.433 34.5307 31.9978C34.5307 30.5654 33.3679 29.4011 31.933 29.4011H30.1729V27.3838H31.933C34.4817 27.3837 36.549 29.4495 36.549 31.9978Z" fill="white"/>
<path d="M43.441 27.3837H41.4216V29.4011H43.441C43.9203 29.4011 44.3058 29.7914 44.3058 30.2678C44.3058 30.7477 43.9203 31.133 43.441 31.133H41.4216V33.1521H43.441C45.0347 33.1521 46.3252 31.8601 46.3252 30.2678C46.3252 28.6751 45.0345 27.3837 43.441 27.3837ZM31.9329 38.0581C34.3502 38.0581 36.4334 36.6424 37.4065 34.5937H39.9806V38.0581H41.4218V34.5937H43.4411C45.8321 34.5937 47.7689 32.6568 47.7689 30.2678C47.7689 27.8785 45.8321 25.9408 43.4411 25.9408H39.9806V31.133H37.9271C37.5082 28.1987 34.9842 25.9408 31.933 25.9408H24.8316L17.7678 38.0581H19.4529L21.4718 34.5937H28.7311V38.0581H31.9329ZM49.7883 30.2678C49.7883 33.7722 46.9461 36.6127 43.4411 36.6127V40.0733H37.9621V37.3737C36.4798 39.0308 34.33 40.0733 31.933 40.0733H26.7117V36.6127H22.6309L20.6121 40.0733H14.2031L23.6235 23.9219H31.9329C34.33 23.9219 36.4798 24.9676 37.9621 26.6249V23.9219H43.441C46.9461 23.9219 49.7883 26.7645 49.7883 30.2678ZM26.7117 27.3837V31.133H23.4908L22.3144 33.1521H28.731V27.3837H26.7117ZM36.549 31.9978C36.549 34.5466 34.4817 36.6127 31.9329 36.6127H30.1729V34.5937H31.933C33.3679 34.5937 34.5307 33.433 34.5307 31.9978C34.5307 30.5654 33.3679 29.4011 31.933 29.4011H30.1729V27.3838H31.933C34.4817 27.3837 36.549 29.4495 36.549 31.9978Z" fill="white"/>
</svg>
