<svg width="64" height="64" viewBox="0 0 64 64" fill="none" xmlns="http://www.w3.org/2000/svg">
<g clip-path="url(#clip0_2335_38724)">
<path d="M66.439 -1.82812H-2.2854V63.9929H66.439V-1.82812Z" fill="#CCCCCC"/>
<path d="M61.0425 3.32031H2.64087V61.7204H61.0425V3.32031Z" fill="#CCCCCC"/>
<path d="M35.216 47.0525C27.2574 47.0525 20.8091 40.6045 20.8091 32.6459C20.8091 24.6876 27.2573 18.25 35.216 18.25C38.612 18.25 41.7266 19.4271 44.1851 21.3958L45.9768 18.7813C43.0081 16.4688 39.2683 15.0938 35.216 15.0938C25.5178 15.0938 17.6528 22.9585 17.6528 32.6564C17.6528 42.3544 25.5177 50.2192 35.216 50.2192C39.237 50.2192 42.935 48.8651 45.8935 46.5942L44.1226 43.9588C41.6641 45.8961 38.5807 47.0525 35.216 47.0525Z" fill="#F0F0F0"/>
<path d="M20.8206 32.6564C20.8206 40.6148 27.2687 47.0629 35.2274 47.0629C38.5921 47.0629 41.6755 45.8962 44.134 43.9692L42.3631 41.344C40.4256 42.9378 37.9359 43.8962 35.2274 43.8962C29.0188 43.8962 23.9874 38.8649 23.9874 32.6564C23.9874 26.448 29.0188 21.4167 35.2274 21.4167C37.9567 21.4167 40.4672 22.3959 42.4151 24.0105L44.2069 21.3958C41.7484 19.4271 38.6339 18.25 35.2378 18.25C27.2583 18.25 20.8206 24.6981 20.8206 32.6564Z" fill="white"/>
</g>
<defs>
<clipPath id="clip0_2335_38724">
<rect width="64" height="64" rx="16" fill="white"/>
</clipPath>
</defs>
</svg>
