<svg width="64" height="64" viewBox="0 0 64 64" fill="none" xmlns="http://www.w3.org/2000/svg">
<rect width="64" height="64" rx="16" fill="#CCCCCC"/>
<path d="M50.2979 25.6801C48.3517 22.1712 44.5437 19.9866 40.4026 20.0001H9.07065C8.85906 20.0009 8.6524 20.0623 8.47642 20.1765C8.30044 20.2908 8.16291 20.4529 8.08099 20.6427C8.00027 20.8312 7.97924 21.0389 8.02061 21.2391C8.06198 21.4394 8.16386 21.623 8.3132 21.7666L15.1386 28.3541C15.7412 28.9375 16.5622 29.2642 17.4164 29.2642H39.5042C41.0785 29.2481 42.3654 30.4607 42.382 31.9705C42.3985 33.4802 41.1366 34.717 39.5622 34.7318H24.3344C24.1227 34.7319 23.9156 34.7926 23.7391 34.9064C23.5626 35.0202 23.4245 35.1821 23.342 35.3717C23.2605 35.5605 23.2389 35.7686 23.2801 35.9694C23.3212 36.1702 23.4232 36.3544 23.5728 36.4983L30.4023 43.0912C31.0087 43.6744 31.8274 44.001 32.6802 44H39.5678C48.5286 44 55.3043 34.8044 50.2979 25.676" fill="white"/>
</svg>
