<svg width="64" height="64" viewBox="0 0 64 64" fill="none" xmlns="http://www.w3.org/2000/svg">
<rect width="64" height="64" rx="16" fill="#CCCCCC"/>
<path fill-rule="evenodd" clip-rule="evenodd" d="M26.4517 25.1348V35.1047C26.4517 35.6707 25.9948 36.1295 25.4308 36.1295C24.8669 36.1295 24.4099 35.6707 24.4099 35.1047V25.1348H17.7985V36.8604C17.7985 38.9697 18.4947 41.6374 21.6628 42.506C24.8342 43.3755 26.674 41.5755 26.674 41.5755C26.5064 42.7613 25.4195 43.63 23.6686 43.8161C22.3439 43.9568 20.6497 43.5059 19.8046 43.1336V49.3459C21.958 49.9984 24.2357 50.2093 26.4646 49.7648C30.5098 48.9583 33.0629 45.4841 33.0629 40.862V25.1348H26.4517ZM51.7575 33.8645V31.9281H53.7953V25.1348H51.5574C50.6983 21.0562 47.1646 18 42.9384 18C38.0699 18 34.1234 22.0555 34.1234 27.0579V42.9223C35.5104 43.1227 37.1628 42.8975 38.5687 41.6995C40.0279 40.4559 40.6917 38.4114 40.6917 36.4881V35.9036H44.0287V29.1103H40.6917V27.0579H40.6997C40.6997 25.7875 41.7019 24.7577 42.9384 24.7577C44.1747 24.7577 45.181 25.7875 45.181 27.0579V33.8645C45.181 38.8669 49.1317 42.9223 54 42.9223V36.1647C52.7637 36.1647 51.7575 35.1348 51.7575 33.8645ZM10 18.5585H16.6816V36.9845C16.6816 39.9005 17.9797 41.6374 19.0062 42.382C17.9195 43.3747 14.5987 44.2433 12.1232 42.1338C10.6637 40.8903 10 38.8457 10 36.9223V18.5585Z" fill="white"/>
</svg>
