<svg width="64" height="64" viewBox="0 0 64 64" fill="none" xmlns="http://www.w3.org/2000/svg">
<path d="M64 0H0V64H64V0Z" fill="url(#paint0_linear_2335_38723)"/>
<path d="M64 0H0V64H64V0Z" fill="#CCCCCC"/>
<path d="M48.4599 30.3473C46.0525 18.3887 40.3853 13.9906 35.463 14.2787C31.6311 14.503 28.1836 17.5117 26.6521 27.9151C26.6919 27.9868 26.9391 28.0301 26.9589 27.9493C27.5017 25.7161 29.6561 18.9159 32.0961 19.1844C34.862 19.4886 36.9331 27.3554 37.5513 30.3474L48.4599 30.3473ZM15.5584 30.3473H25.2337C25.7881 25.5185 26.5852 19.1046 30.7037 14.8574C25.3023 12.4094 17.4736 17.7558 15.5584 30.3473ZM15.5427 33.6588C17.95 45.6176 23.6174 50.0159 28.5397 49.7275C32.3714 49.503 35.8189 46.4945 37.3504 36.0911C37.3105 36.0195 37.0633 35.9762 37.0437 36.0568C36.5009 38.2902 34.3466 45.0904 31.9067 44.8216C29.1405 44.5177 27.0698 36.6507 26.4512 33.6582L15.5427 33.6588ZM48.4441 33.6588H38.7689C38.2148 38.4877 37.4175 44.9017 33.2989 49.1489C38.7 51.5968 46.5291 46.2505 48.4441 33.6588Z" fill="white"/>
<defs>
<linearGradient id="paint0_linear_2335_38723" x1="66.902" y1="-2.48413" x2="-6.223" y2="69.7659" gradientUnits="userSpaceOnUse">
<stop stop-color="#F78F24"/>
<stop offset="1" stop-color="#EE2526"/>
</linearGradient>
</defs>
</svg>
