<svg width="64" height="64" viewBox="0 0 64 64" fill="none" xmlns="http://www.w3.org/2000/svg">
<g clip-path="url(#clip0_2335_38722)">
<path d="M66.365 -0.914062H-2.35938V64.907H66.365V-0.914062Z" fill="#CCCCCC"/>
<path d="M53.7331 10.2656H10.2617V53.737H53.7331V10.2656Z" fill="#CCCCCC"/>
<path fill-rule="evenodd" clip-rule="evenodd" d="M31.2259 14.8953C33.8797 14.8953 36.5341 14.8714 39.1877 14.9031C41.1955 14.9271 43.1215 15.3471 44.8497 16.4217C47.2518 17.9153 48.4077 20.2048 48.9098 22.9002C50.1824 29.7331 46.6862 35.6676 40.0998 37.8983C38.2724 38.5173 36.4031 38.8066 34.4848 38.8177C32.3375 38.8298 30.19 38.8373 28.0431 38.8109C27.5319 38.8047 27.3228 38.9703 27.2233 39.4694C26.6481 42.3552 26.0204 45.2308 25.4654 48.1205C25.3277 48.8378 25.0853 49.1285 24.3063 49.1161C21.4118 49.0694 18.516 49.0992 15.6209 49.096C14.7566 49.095 14.7421 49.0705 14.9154 48.2401C16.9703 38.3945 19.0245 28.549 21.0799 18.7034C21.2968 17.6646 21.5404 16.6308 21.7296 15.587C21.826 15.0555 22.081 14.8791 22.6124 14.8829C25.4834 14.9025 28.3547 14.8922 31.2257 14.8922C31.2259 14.8931 31.2259 14.8942 31.2259 14.8953ZM29.1648 30.405C29.3199 30.4696 29.3851 30.5201 29.4505 30.5205C30.6783 30.5301 31.9094 30.5929 33.1324 30.5205C34.1813 30.4584 35.2552 30.3574 36.257 30.0646C37.8897 29.5875 38.6864 28.1797 38.5197 26.4066C38.3826 24.9471 37.523 24.073 35.7436 23.8957C34.1681 23.7386 32.5721 23.7683 30.9854 23.775C30.8004 23.7756 30.5133 24.1272 30.4516 24.3628C30.208 25.2932 30.0341 26.2421 29.8365 27.1844C29.6107 28.2613 29.3871 29.3384 29.1648 30.405Z" fill="white"/>
</g>
<defs>
<clipPath id="clip0_2335_38722">
<rect width="64" height="64" rx="16" fill="white"/>
</clipPath>
</defs>
</svg>
