<svg width="64" height="64" viewBox="0 0 64 64" fill="none" xmlns="http://www.w3.org/2000/svg">
<rect width="64" height="64" rx="16" fill="#CCCCCC"/>
<path d="M54 10H10V54H54V10Z" fill="#CCCCCC"/>
<path fill-rule="evenodd" clip-rule="evenodd" d="M31.9948 25.4657C32.9321 25.4657 33.7036 24.9782 33.8077 24.3486L34.7333 13.8837C34.7333 12.8492 33.5211 12 31.9979 12C30.4757 12 29.265 12.8492 29.265 13.8837L30.1898 24.3486C30.2916 24.9782 31.0631 25.4657 31.9979 25.4657H31.9948Z" fill="white"/>
<path fill-rule="evenodd" clip-rule="evenodd" d="M26.3386 28.7339C26.8088 27.9232 26.7735 27.0121 26.2778 26.6071L17.6761 20.5733C16.7817 20.0553 15.4408 20.6788 14.6797 21.9984C13.9161 23.3166 14.0513 24.7891 14.9432 25.307L24.468 29.7418C25.0634 29.9627 25.8752 29.5377 26.3418 28.7278L26.3386 28.7339Z" fill="white"/>
<path fill-rule="evenodd" clip-rule="evenodd" d="M37.6556 28.7286C38.1252 29.5388 38.9327 29.9635 39.5287 29.7427L49.0535 25.3078C49.951 24.7899 50.0787 23.3175 49.322 21.9995C48.5572 20.6807 47.2138 20.0562 46.3219 20.5741L37.7195 26.6079C37.2276 27.0123 37.1911 27.9241 37.6588 28.7348L37.6556 28.7286Z" fill="white"/>
<path fill-rule="evenodd" clip-rule="evenodd" d="M31.9948 38.538C32.9321 38.538 33.7036 39.0212 33.8077 39.6514L34.7333 50.1151C34.7333 51.1529 33.5211 52 31.9979 52C30.4757 52 29.265 51.1529 29.265 50.1151L30.1898 39.6514C30.2916 39.0212 31.0631 38.538 31.9979 38.538H31.9948Z" fill="white"/>
<path fill-rule="evenodd" clip-rule="evenodd" d="M37.6556 35.2686C38.1252 34.4561 38.9327 34.035 39.5287 34.2581L49.0535 38.69C49.951 39.2085 50.0787 40.6822 49.322 42.0015C48.5572 43.3158 47.2138 43.9424 46.3219 43.425L37.7195 37.3968C37.2276 36.9892 37.1911 36.0767 37.6588 35.2668H37.655" fill="white"/>
<path fill-rule="evenodd" clip-rule="evenodd" d="M26.3386 35.2668C26.8088 36.0762 26.7735 36.9886 26.2778 37.3968L17.6761 43.425C16.7817 43.9422 15.4408 43.3158 14.6797 42.0015C13.9161 40.6822 14.0513 39.2085 14.9432 38.69L24.468 34.2581C25.0634 34.0348 25.8752 34.456 26.3418 35.2686H26.3386" fill="white"/>
</svg>
