<svg width="64" height="64" viewBox="0 0 64 64" fill="none" xmlns="http://www.w3.org/2000/svg">
<rect width="64" height="64" rx="16" fill="#CCCCCC"/>
<path d="M19.761 44.8304L18.6191 45.972L17.868 45.2189L19.0074 44.0778L16.0572 41.1288C15.5785 40.6489 15.5129 40.5585 14.9155 40.8682C14.6967 40.9859 14.4606 40.9841 14.2806 40.8021C13.9041 40.4258 14.3062 39.9739 14.3585 39.9206L18.0265 36.2531C18.0783 36.2013 18.5307 35.7997 18.9075 36.1747C19.0898 36.3577 19.0913 36.5911 18.9741 36.8109C18.6622 37.4077 18.7538 37.4723 19.234 37.9525L26.0405 44.7598C26.5202 45.2415 26.5855 45.3328 27.1829 45.0196C27.4037 44.9042 27.636 44.9052 27.8188 45.0865C28.1943 45.4635 27.794 45.9172 27.7427 45.9695L24.0737 49.6362C24.0211 49.6881 23.5672 50.0894 23.1909 49.7144C23.0101 49.5316 23.0096 49.298 23.1248 49.0775C23.4375 48.4811 23.3459 48.416 22.8657 47.9353L19.761 44.8304ZM19.7114 54H18.215L18.2268 53.9765C18.5367 53.3824 18.4466 53.3158 17.9667 52.8356L11.1589 46.0293C10.6772 45.5474 10.6134 45.4565 10.0168 45.7672C10.0113 45.7702 10.0055 45.7725 10 45.7757V44.2788L13.1272 41.1521C13.1791 41.1018 13.6325 40.6985 14.008 41.074C14.1897 41.2568 14.1915 41.4896 14.0748 41.7102C13.7626 42.3085 13.8538 42.3724 14.3357 42.8538L21.1425 49.6595C21.6231 50.1417 21.6872 50.2324 22.2846 49.9209C22.5049 49.8037 22.7387 49.8037 22.9205 49.9865C23.2963 50.3638 22.8947 50.8164 22.8434 50.8683L19.7114 54ZM38.4004 15.8789L41.8206 12.4578L51.5387 22.1714L48.1171 25.5948C48.065 25.6467 47.6101 26.0485 47.2346 25.6724C47.0523 25.4899 47.0523 25.2553 47.169 25.0363C47.4794 24.4394 47.39 24.3741 46.9086 23.8929L40.1003 17.0861C39.6197 16.607 39.5556 16.5151 38.9582 16.827C38.7374 16.9434 38.5038 16.9434 38.3228 16.7612C37.946 16.3856 38.3486 15.93 38.4004 15.8789ZM44.2788 10H46.314L47.9323 11.6193C47.9979 11.6839 48.2325 11.9453 47.8429 12.3321C47.6219 12.5534 47.4273 12.4886 47.1682 12.3596C45.7797 11.6416 44.4819 11.6686 43.1585 12.6268L42.4044 11.8742L44.2788 10ZM54 17.5057V19.7114L52.1211 21.5888L51.3692 20.8365C52.2901 19.6558 52.3769 18.1382 51.6884 16.7499C51.5843 16.4638 51.4536 16.1773 51.6869 15.9455C52.1023 15.5302 52.4523 15.9593 52.5041 16.0121L54 17.5057ZM46.7446 16.2121C47.1462 15.5252 46.8853 14.7726 46.508 14.1615C46.3551 13.8776 46.2234 13.5901 46.4948 13.318C46.8963 12.9182 47.3017 13.4492 47.4053 13.5531L50.2096 16.3581C50.3137 16.4618 50.8457 16.8658 50.4449 17.2672C50.1718 17.5405 49.8869 17.4079 49.5994 17.2526C48.9891 16.8768 48.237 16.6177 47.5498 17.0168L46.7446 16.2121ZM34.6858 52.3957L33.081 54H32.2278C32.2504 53.9492 32.2776 53.8969 32.3044 53.8413C32.4011 53.66 32.1885 53.4757 32.0796 53.3666L28.2516 49.5391C28.1415 49.43 27.9597 49.2184 27.7772 49.314C27.5802 49.4089 27.4194 49.5258 27.2359 49.3436C27.0467 49.1538 27.2071 48.948 27.3533 48.8038L29.223 46.9339L34.6858 52.3957ZM46.9244 29.231L48.7139 27.4417L53.3588 32.0864C53.6282 32.3568 53.6663 32.4078 54 32.2336V33.0823L52.249 34.8321C52.2202 34.8611 51.9643 35.0884 51.7528 34.8756C51.6506 34.7745 51.6501 34.6428 51.7162 34.5186C51.892 34.1829 51.8402 34.1471 51.571 33.8769L46.9244 29.231ZM51.7966 27.7624C51.8254 27.7925 51.9864 27.9963 51.7665 28.2151C51.5625 28.4189 51.3359 28.2669 51.1544 28.1265C50.7008 27.8067 50.1164 27.4272 49.4673 27.5371L49.0434 27.1138L50.0947 26.061L51.7966 27.7624ZM45.5456 30.611L46.5969 29.5598L47.0208 29.9826C46.9104 30.6335 47.2901 31.2169 47.6119 31.6695C47.7506 31.8523 47.9028 32.0789 47.699 32.2827C47.4804 32.502 47.2764 32.3422 47.2461 32.3119L45.5456 30.611ZM23.2512 32.1447C22.8622 32.9741 23.2007 33.4153 23.5259 33.74L30.254 40.4686C30.5787 40.7938 31.0208 41.1313 31.85 40.7428L32.6034 41.4973C29.6086 43.9977 26.1051 43.0603 23.5194 40.4759C20.9352 37.8899 19.9968 34.3854 22.4979 31.3914L23.2512 32.1447ZM32.4344 40.1609C32.8227 39.3317 32.4847 38.8881 32.158 38.5641L25.4313 31.8348C25.1059 31.5108 24.6637 31.1733 23.8353 31.5621L23.0815 30.8093C26.0753 28.3077 29.5805 29.2448 32.165 31.8295C34.7497 34.415 35.688 37.9182 33.1864 40.914L32.4344 40.1609ZM46.7571 26.1491C46.5744 25.9691 46.3415 25.9666 46.1205 26.0845C45.5234 26.395 45.4598 26.3046 44.9783 25.8234L38.1713 19.0172C37.6896 18.5365 37.5983 18.4721 37.9112 17.874C38.0256 17.6545 38.0256 17.4201 37.8446 17.2381C37.4681 16.8618 37.0149 17.2642 36.9634 17.3157L33.541 20.7371L36.336 25.9175L36.3092 25.9423L30.9367 23.3431L27.6458 26.6336C27.4908 26.7885 27.1 27.1773 27.5021 27.5807C27.8135 27.8931 28.1905 27.5689 28.3583 27.4252C28.5926 27.2189 28.8014 27.3226 29.1111 27.4012C29.3838 27.4663 29.6434 27.5964 29.9035 27.7279L40.6509 33.058L41.0264 32.683L35.7694 22.9663L41.802 28.9987C42.2827 29.4801 42.3736 29.546 42.0622 30.1411C41.9442 30.3629 41.9462 30.5955 42.13 30.7775C42.5048 31.1533 42.9589 30.753 43.0113 30.7001L46.6815 27.0314C46.7333 26.9788 47.1327 26.5252 46.7571 26.1491ZM36.6036 33.0014L34.3696 30.7677L31.5013 29.35L31.4752 29.3762L35.8515 33.7538C37.2678 35.5844 35.9329 35.9078 36.4922 36.4671C36.8943 36.8687 37.3992 36.3109 37.5412 36.168L39.0191 34.6919C39.1608 34.5489 39.7173 34.0452 39.3145 33.6431C38.7559 33.0835 38.4342 34.4185 36.6036 33.0014ZM29.551 46.6042C30.7775 45.3474 32.676 45.1724 34.6488 46.9704C36.4449 48.605 36.2266 50.8545 35.0141 52.067L34.591 51.6434C34.9783 51.1384 34.5837 50.7003 34.3048 50.4239L31.1946 47.3119C30.9167 47.035 30.4786 46.6407 29.9754 47.0275L29.551 46.6042ZM32.2746 43.881L34.2019 41.9535L39.6645 47.4163L37.7372 49.3438C37.7079 49.3721 37.4518 49.5992 37.2403 49.3876C37.1386 49.2855 37.1381 49.1536 37.2037 49.0299C37.3797 48.6944 37.3284 48.6578 37.059 48.387L33.2323 44.5602C32.9619 44.2908 32.9246 44.2395 32.5898 44.4135C32.4652 44.4811 32.334 44.4806 32.2308 44.3777C32.0185 44.1672 32.2454 43.9098 32.2746 43.881ZM34.5306 41.6243L36.159 39.9965L37.6416 41.4776C37.6781 41.5144 37.8106 41.6601 37.591 41.8799C37.4663 42.0041 37.3579 41.968 37.2112 41.8947C36.4288 41.4931 35.6998 41.5079 34.9535 42.0469L34.5306 41.6243ZM39.5696 46.6637C40.0878 45.9998 40.1397 45.1448 39.7521 44.3622C39.6948 44.2017 39.6202 44.042 39.7513 43.9103C39.9862 43.6765 40.1835 43.9171 40.2123 43.9469L41.6739 45.4082L39.9942 47.0879L39.5696 46.6637ZM36.9699 44.0635C37.1962 43.6772 37.0505 43.2546 36.8392 42.9109C36.7506 42.7494 36.6774 42.5882 36.8317 42.4347C37.0582 42.2094 37.2853 42.509 37.3437 42.5671L38.9217 44.1454C38.979 44.2027 39.2792 44.4298 39.0518 44.6561C38.8999 44.8098 38.7386 44.7365 38.5774 44.6484C38.2347 44.4376 37.8113 44.2908 37.4243 44.5179L36.9699 44.0635ZM38.9777 37.1782C39.6717 36.4839 40.1534 36.1469 40.6947 36.0022C41.5567 35.7822 42.2507 36.0531 42.8648 36.6652C43.4769 37.2781 43.7473 37.9733 43.5283 38.835C43.3815 39.3761 43.0461 39.8588 42.3518 40.5517L41.9285 40.1291C42.279 39.6162 42.0026 39.2954 41.6448 38.9364L40.542 37.8339C40.2133 37.5061 39.8475 37.272 39.4013 37.601L38.9777 37.1782ZM37.6774 40.1149C37.4075 39.8445 37.3707 39.7937 37.0345 39.9679C36.9108 40.0348 36.7793 40.0333 36.6769 39.9306C36.4656 39.7196 36.6922 39.4637 36.721 39.4344L38.649 37.5076L43.2949 42.1533C43.5638 42.4222 43.6011 42.4748 43.9368 42.2985C44.0615 42.2332 44.1925 42.2324 44.2954 42.3348C44.5082 42.5469 44.2811 42.8027 44.2518 42.831L42.1848 44.8985C42.156 44.9288 41.9575 45.097 41.7452 44.8857C41.6436 44.7831 41.6253 44.6686 41.6909 44.5445C41.8664 44.209 41.7745 44.2125 41.5046 43.9416L37.6774 40.1149Z" fill="white"/>
<path d="M43.6071 33.1779C43.3876 33.6451 43.5768 33.8925 43.7591 34.075L47.5428 37.8576C47.7253 38.0401 47.9741 38.2302 48.4408 38.0106L48.8644 38.434C47.1777 39.8445 45.2057 39.319 43.7526 37.8651C42.2982 36.4118 41.773 34.44 43.1823 32.7526L43.6071 33.1779ZM48.7698 37.6829C48.9888 37.2157 48.7991 36.9681 48.6163 36.7844L44.8336 33.0022C44.6509 32.8189 44.4028 32.6297 43.9353 32.8477L43.5125 32.4251C45.1999 31.0148 47.1715 31.5416 48.6238 32.9947C50.0779 34.448 50.6046 36.4186 49.1944 38.107L48.7698 37.6829ZM15.2728 26.6606L16.9545 24.9789L21.3202 29.3447C21.5743 29.5988 21.6086 29.6469 21.9243 29.4821C22.041 29.4201 22.1644 29.4201 22.2606 29.5164C22.4596 29.7152 22.2468 29.9556 22.2195 29.9829L20.277 31.9261C20.2494 31.9529 20.0093 32.1662 19.8103 31.9667C19.7139 31.8708 19.7139 31.7474 19.776 31.6302C19.9405 31.3145 19.8927 31.2805 19.6385 31.0264L15.2728 26.6606ZM19.8514 25.2809C19.8789 25.3084 20.0296 25.5002 19.8238 25.7065C19.6313 25.8988 19.4185 25.7541 19.2472 25.6241C18.8216 25.3219 18.2723 24.9647 17.6615 25.0678L17.2634 24.6698L18.2521 23.6816L19.8514 25.2809ZM13.9752 27.958L14.9639 26.9693L15.3617 27.3676C15.2588 27.9785 15.6155 28.5278 15.9177 28.9536C16.0482 29.1254 16.1924 29.3379 16.0003 29.53C15.794 29.7363 15.602 29.585 15.5745 29.5573L13.9752 27.958ZM24.8896 25.7753C25.1439 26.0295 25.178 26.077 25.4939 25.9125C25.6104 25.8509 25.734 25.8509 25.8304 25.9468C26.0289 26.1459 25.8161 26.3862 25.7889 26.4138L23.8466 28.356C23.819 28.3838 23.5787 28.5966 23.3797 28.3976C23.284 28.3012 23.2835 28.1775 23.3456 28.0606C23.5103 27.7452 23.4623 27.7111 23.2084 27.4567L19.611 23.8601C19.3571 23.6057 19.3226 23.5579 19.0069 23.7226C18.89 23.7842 18.7666 23.7842 18.6707 23.6881C18.4716 23.4891 18.6844 23.2487 18.7117 23.2214L20.6545 21.2786C20.682 21.2519 20.9221 21.0386 21.1212 21.2376C21.2176 21.334 21.2176 21.4577 21.1552 21.5741C20.9907 21.8898 21.0388 21.9241 21.2929 22.1779L24.8896 25.7753ZM24.162 23.2217L23.5579 23.826L23.1598 23.4275L23.764 22.8236L22.2057 21.2651C21.9516 21.0113 21.9173 20.9629 21.6016 21.1279C21.4849 21.1898 21.3615 21.1898 21.2651 21.0934C21.0661 20.8943 21.2791 20.6543 21.3064 20.6265L23.249 18.6842C23.2765 18.6569 23.5169 18.4441 23.7159 18.6431C23.8118 18.7393 23.8118 18.8627 23.7502 18.9794C23.5855 19.2951 23.6335 19.3296 23.8874 19.5835L27.4843 23.1804C27.7384 23.4345 27.7724 23.4821 28.0884 23.3178C28.2051 23.256 28.3285 23.256 28.4246 23.3521C28.6239 23.5512 28.4109 23.7915 28.3838 23.8185L26.441 25.7616C26.4138 25.7891 26.1737 26.0017 25.9741 25.8026C25.8782 25.707 25.8782 25.5833 25.9398 25.4664C26.1046 25.1504 26.0565 25.1164 25.8026 24.8623L24.162 23.2217ZM23.8959 18.0375L25.7082 16.2254L30.8428 21.3598L29.0307 23.1719C29.0035 23.1989 28.7634 23.412 28.5638 23.2129C28.4679 23.117 28.4679 22.9934 28.5295 22.8769C28.6943 22.5607 28.6464 22.5267 28.3923 22.2726L24.7952 18.6754C24.5413 18.4216 24.5068 18.3732 24.1911 18.538C24.0744 18.6001 23.951 18.6001 23.8548 18.5039C23.6558 18.3049 23.8686 18.0645 23.8959 18.0375ZM26.0177 15.9162L27.5481 14.3858L28.9414 15.779C28.9754 15.8136 29.0988 15.9505 28.8936 16.1563C28.7766 16.2732 28.674 16.2387 28.5368 16.1701C27.8017 15.793 27.1153 15.8063 26.4155 16.3143L26.0177 15.9162ZM30.7537 20.6525C31.2407 20.0281 31.2892 19.2247 30.9255 18.4902C30.8701 18.3389 30.8015 18.188 30.9255 18.0645C31.1448 17.845 31.3303 18.0713 31.3578 18.0991L32.7305 19.4716L31.1518 21.0506L30.7537 20.6525ZM28.31 18.2085C28.5228 17.845 28.3853 17.4469 28.1863 17.1242C28.1042 16.9732 28.0353 16.8223 28.1795 16.6781C28.3926 16.4653 28.6054 16.7464 28.6602 16.8017L30.1428 18.2844C30.1979 18.3392 30.4791 18.5522 30.2668 18.7648C30.1223 18.9088 29.9711 18.8404 29.8201 18.7578C29.4974 18.5593 29.0993 18.4218 28.7356 18.6349L28.31 18.2085Z" fill="white"/>
</svg>
