<svg width="64" height="64" viewBox="0 0 64 64" fill="none" xmlns="http://www.w3.org/2000/svg">
<rect width="64" height="64" rx="16" fill="#CCCCCC"/>
<path d="M10.7616 36.2513C10.9644 36.788 11.2453 37.247 11.6041 37.6281C11.963 38.0093 12.3882 38.301 12.8796 38.5032C13.3711 38.7055 13.9055 38.8066 14.4828 38.8066C15.0445 38.8066 15.5711 38.7016 16.0625 38.4915C16.554 38.2814 16.9831 37.9859 17.3497 37.6048C17.7164 37.2236 18.0011 36.7686 18.204 36.2396C18.4068 35.7106 18.5082 35.1195 18.5082 34.466V24.3848H20.9656V40.7201H18.5316V39.2033C17.9855 39.7788 17.3419 40.2222 16.6008 40.5335C15.8597 40.8446 15.0601 41.0002 14.202 41.0002C13.3282 41.0002 12.513 40.8484 11.7562 40.5451C10.9996 40.2417 10.3442 39.81 9.79037 39.2499C9.23653 38.6898 8.79962 38.0171 8.47979 37.2314C8.15991 36.4457 8 35.5706 8 34.606V24.3848H10.4574V34.466C10.4574 35.1195 10.5588 35.7145 10.7616 36.2513ZM25.2014 24.3848V30.3355C25.7475 29.791 26.3794 29.3593 27.0971 29.0403C27.8148 28.7214 28.5949 28.5619 29.4374 28.5619C30.3112 28.5619 31.1302 28.7253 31.8948 29.052C32.6593 29.3787 33.3224 29.8221 33.8841 30.3822C34.4458 30.9423 34.8905 31.6034 35.2181 32.3657C35.5458 33.1281 35.7096 33.9371 35.7096 34.7927C35.7096 35.6484 35.5458 36.4535 35.2181 37.208C34.8905 37.9625 34.4458 38.6199 33.8841 39.1799C33.3224 39.74 32.6593 40.1834 31.8948 40.5101C31.1302 40.8368 30.3112 41.0001 29.4374 41.0001C28.5949 41.0001 27.8109 40.8406 27.0854 40.5217C26.3599 40.2028 25.7241 39.7711 25.178 39.2265V40.7201H22.8377V24.3848H25.2014ZM25.4705 36.4029C25.6811 36.9008 25.9737 37.3364 26.3482 37.7098C26.7226 38.0832 27.1595 38.3788 27.6588 38.5966C28.1581 38.8144 28.6963 38.9233 29.2736 38.9233C29.8354 38.9233 30.3658 38.8144 30.865 38.5966C31.3643 38.3788 31.7972 38.0832 32.164 37.7098C32.5306 37.3364 32.8232 36.9008 33.0416 36.4029C33.26 35.9051 33.3692 35.3684 33.3692 34.7927C33.3692 34.2171 33.26 33.6765 33.0416 33.1708C32.8232 32.6652 32.5306 32.2257 32.164 31.8524C31.7973 31.479 31.3644 31.1873 30.865 30.9773C30.3657 30.7673 29.8353 30.6622 29.2736 30.6622C28.712 30.6622 28.1815 30.7672 27.6822 30.9773C27.183 31.1873 26.7461 31.479 26.3716 31.8524C25.9972 32.2257 25.7007 32.6652 25.4823 33.1708C25.2639 33.6765 25.1546 34.2171 25.1546 34.7927C25.1546 35.3684 25.2599 35.9051 25.4705 36.4029ZM37.0433 32.3891C37.3553 31.6424 37.7845 30.9851 38.3305 30.4172C38.8765 29.8494 39.5241 29.4021 40.273 29.0754C41.0219 28.7487 41.8333 28.5854 42.707 28.5854C43.5651 28.5854 44.3609 28.741 45.0942 29.0521C45.8275 29.3632 46.4593 29.795 46.9898 30.3473C47.5203 30.8995 47.9338 31.553 48.2302 32.3075C48.5267 33.062 48.6749 33.8827 48.6749 34.7695V35.5396H38.9624C39.0405 36.0219 39.1965 36.4692 39.4305 36.8814C39.6646 37.2936 39.9571 37.6515 40.3081 37.9548C40.6592 38.2583 41.0571 38.4955 41.5017 38.6666C41.9464 38.8377 42.4183 38.9233 42.9176 38.9233C44.3375 38.9233 45.4843 38.3399 46.358 37.1731L48.0664 38.4332C47.4736 39.2266 46.7403 39.849 45.8666 40.3001C44.9928 40.7513 44.0098 40.9769 42.9177 40.9769C42.0283 40.9769 41.1976 40.8212 40.4252 40.5101C39.6529 40.199 38.982 39.7634 38.4125 39.2033C37.8431 38.6432 37.3945 37.9859 37.0669 37.2314C36.7392 36.4769 36.5754 35.6562 36.5754 34.7694C36.5753 33.9293 36.7313 33.1359 37.0433 32.3891ZM40.3315 31.4673C39.6684 32.0196 39.2277 32.7547 39.0093 33.6726H46.2878C46.0849 32.7547 45.652 32.0196 44.9888 31.4673C44.3257 30.9151 43.5495 30.6389 42.6602 30.6389C41.7709 30.6389 40.9947 30.9151 40.3315 31.4673ZM53.098 31.7357C52.5987 32.2802 52.3491 33.0191 52.3491 33.9526V40.7202H49.9853V28.8187H52.3256V30.2889C52.6221 29.8066 53.0083 29.4254 53.4841 29.1454C53.96 28.8653 54.5256 28.7253 55.1809 28.7253H56V30.9189H55.0171C54.237 30.9189 53.5973 31.1912 53.098 31.7357Z" fill="white"/>
</svg>
