<svg width="33" height="32" fill="none" xmlns="http://www.w3.org/2000/svg"><ellipse cx="16.503" cy="16.016" rx="12.761" ry="12.777" fill="url(#paint0_linear_2515_44047)"/><path d="M13.575 8.297l8.648-1.72a.637.637 0 01.762.626v13.25a2.39 2.39 0 01-1.892 2.337l-.764.163a2.14 2.14 0 01-2.585-2.093 2.11 2.11 0 011.573-2.04l2.165-.57a.669.669 0 00.5-.647V11.45a.446.446 0 00-.538-.437l-7.206 1.498a.478.478 0 00-.38.468v9.187c0 1.234-.864 2.3-2.071 2.555l-.524.111a2.205 2.205 0 01-2.662-2.156 1.97 1.97 0 011.465-1.904l2.266-.601a.637.637 0 00.474-.616V9.234c0-.456.322-.848.77-.937z" fill="url(#paint1_radial_2515_44047)"/><path fill-rule="evenodd" clip-rule="evenodd" d="M30.902 16c0 7.953-6.448 14.4-14.4 14.4-7.953 0-14.4-6.447-14.4-14.4s6.447-14.4 14.4-14.4 14.4 6.447 14.4 14.4zm-1.275.016c0 7.258-5.876 13.142-13.125 13.142-7.25 0-13.126-5.884-13.126-13.142 0-7.258 5.876-13.142 13.126-13.142 7.249 0 13.125 5.884 13.125 13.142z" fill="url(#paint2_radial_2515_44047)"/><defs><radialGradient id="paint1_radial_2515_44047" cx="0" cy="0" r="1" gradientUnits="userSpaceOnUse" gradientTransform="rotate(-55.132 31.19 5.8) scale(28.8112 22.6252)"><stop stop-color="#7A66FB"/><stop offset=".44" stop-color="#52A2F4"/><stop offset=".702" stop-color="#FC5D6D"/><stop offset="1" stop-color="#E85E7B"/></radialGradient><radialGradient id="paint2_radial_2515_44047" cx="0" cy="0" r="1" gradientUnits="userSpaceOnUse" gradientTransform="rotate(-55.132 31.19 5.8) scale(28.8112 22.6252)"><stop stop-color="#7A66FB"/><stop offset=".44" stop-color="#52A2F4"/><stop offset=".702" stop-color="#FC5D6D"/><stop offset="1" stop-color="#E85E7B"/></radialGradient><linearGradient id="paint0_linear_2515_44047" x1="16.503" y1="3.239" x2="16.503" y2="28.792" gradientUnits="userSpaceOnUse"><stop stop-color="#fff"/><stop offset="1" stop-color="#DDE2E7"/></linearGradient></defs></svg>