<svg width="33" height="32" viewBox="0 0 33 32" fill="none" xmlns="http://www.w3.org/2000/svg">
<circle cx="16.5016" cy="16" r="14.4" fill="#FF5502"/>
<path d="M24.5441 20.8H16.1241V10.7306C16.9043 10.0254 17.9147 9.59998 19.0185 9.59998C21.4611 9.59998 23.4465 11.6834 23.4908 14.2714C23.8203 14.1475 24.1748 14.08 24.5441 14.08C26.2879 14.08 27.7016 15.5843 27.7016 17.44C27.7016 19.2957 26.2879 20.8 24.5441 20.8Z" fill="white"/>
<path d="M15.3587 11.6363H14.3301V20.8H15.3587V11.6363Z" fill="white"/>
<path d="M12.273 12.6545H13.3016V20.8H12.273V12.6545Z" fill="white"/>
<path d="M11.2444 14.6909H10.2159V20.8H11.2444V14.6909Z" fill="white"/>
<path d="M8.15871 13.6727H9.18728V20.8H8.15871V13.6727Z" fill="white"/>
<path d="M7.13013 15.7091H6.10156V20.8H7.13013V15.7091Z" fill="white"/>
</svg>
