<svg width="33" height="32" viewBox="0 0 33 32" fill="none" xmlns="http://www.w3.org/2000/svg">
<ellipse cx="16.5033" cy="16.0156" rx="12.7611" ry="12.7765" fill="url(#paint0_linear_2515_44047)"/>
<path d="M13.5754 8.29661L22.2234 6.57785C22.6174 6.49953 22.9847 6.80102 22.9847 7.20279V20.4531C22.9847 21.5811 22.1959 22.5554 21.0926 22.7902L20.3286 22.9527C18.9977 23.2359 17.744 22.2209 17.744 20.8602C17.744 19.9017 18.3901 19.0636 19.3171 18.8196L21.4824 18.2498C21.7764 18.1725 21.9812 17.9067 21.9812 17.6028V11.4509C21.9812 11.1681 21.7213 10.9566 21.4444 11.0142L14.2379 12.512C14.0162 12.5581 13.8573 12.7534 13.8573 12.9799V22.1668C13.8573 23.4007 12.994 24.4663 11.787 24.7223L11.2631 24.8334C9.89175 25.1243 8.60068 24.0784 8.60068 22.6765C8.60068 21.7831 9.20199 21.0016 10.0656 20.7726L12.3321 20.1716C12.6115 20.0976 12.806 19.8448 12.806 19.5558V9.23403C12.806 8.778 13.1282 8.3855 13.5754 8.29661Z" fill="url(#paint1_radial_2515_44047)"/>
<path fill-rule="evenodd" clip-rule="evenodd" d="M30.9016 16C30.9016 23.9529 24.4545 30.4 16.5016 30.4C8.54866 30.4 2.10156 23.9529 2.10156 16C2.10156 8.04707 8.54866 1.59998 16.5016 1.59998C24.4545 1.59998 30.9016 8.04707 30.9016 16ZM29.6272 16.0159C29.6272 23.2738 23.7507 29.1575 16.5016 29.1575C9.25246 29.1575 3.3759 23.2738 3.3759 16.0159C3.3759 8.758 9.25246 2.87431 16.5016 2.87431C23.7507 2.87431 29.6272 8.758 29.6272 16.0159Z" fill="url(#paint2_radial_2515_44047)"/>
<defs>
<linearGradient id="paint0_linear_2515_44047" x1="16.5033" y1="3.23901" x2="16.5033" y2="28.7921" gradientUnits="userSpaceOnUse">
<stop stop-color="white"/>
<stop offset="1" stop-color="#DDE2E7"/>
</linearGradient>
<radialGradient id="paint1_radial_2515_44047" cx="0" cy="0" r="1" gradientUnits="userSpaceOnUse" gradientTransform="translate(8.60068 28.0743) rotate(-55.1325) scale(28.8112 22.6252)">
<stop stop-color="#7A66FB"/>
<stop offset="0.440198" stop-color="#52A2F4"/>
<stop offset="0.702" stop-color="#FC5D6D"/>
<stop offset="1" stop-color="#E85E7B"/>
</radialGradient>
<radialGradient id="paint2_radial_2515_44047" cx="0" cy="0" r="1" gradientUnits="userSpaceOnUse" gradientTransform="translate(8.60068 28.0743) rotate(-55.1325) scale(28.8112 22.6252)">
<stop stop-color="#7A66FB"/>
<stop offset="0.440198" stop-color="#52A2F4"/>
<stop offset="0.702" stop-color="#FC5D6D"/>
<stop offset="1" stop-color="#E85E7B"/>
</radialGradient>
</defs>
</svg>
