<svg width="96" height="29" viewBox="0 0 96 29" fill="none" xmlns="http://www.w3.org/2000/svg">
<path d="M5.05164 27.9648C3.47268 27.9648 2.23041 27.5796 1.32483 26.8093C0.442477 26.039 0.00129411 24.9921 0.00129411 23.6688V9.0625H3.97191V23.5207C3.97191 23.9749 4.13445 24.3502 4.45953 24.6465C4.78461 24.923 5.21418 25.0613 5.74824 25.0613H9.47503V27.9648H5.05164ZM0 15.7583V12.8548H9.50987V15.7583H0Z" fill="black"/>
<path d="M13.136 27.9648V17.1508C13.136 15.8077 13.5772 14.7608 14.4595 14.0103C15.3651 13.24 16.6073 12.8548 18.1863 12.8548H22.4704V15.7583H18.9177C18.3604 15.7583 17.9193 15.8965 17.5942 16.1731C17.2923 16.4496 17.1414 16.8249 17.1414 17.2989V27.9648H13.136Z" fill="black"/>
<path d="M33.7466 28.3203C32.0283 28.3203 30.5306 28.0339 29.2535 27.4611C27.9764 26.8685 26.9895 26.0587 26.2929 25.0316C25.5963 24.0046 25.2481 22.8491 25.2481 21.5652V12.8548H29.2535V21.5356C29.2535 22.3059 29.4509 22.9874 29.8456 23.5799C30.2636 24.1527 30.8092 24.607 31.4826 24.9428C32.1792 25.2588 32.9339 25.4168 33.7466 25.4168C34.5593 25.4168 35.3023 25.2588 35.9757 24.9428C36.6723 24.607 37.2179 24.1527 37.6127 23.5799C38.0306 22.9874 38.2396 22.3059 38.2396 21.5356V12.8548H42.245V21.5652C42.245 22.8491 41.8851 24.0046 41.1653 25.0316C40.4687 26.0587 39.4819 26.8685 38.2048 27.4611C36.9509 28.0339 35.4648 28.3203 33.7466 28.3203Z" fill="black"/>
<path d="M54.6785 28.3203C53.7497 28.3203 52.9138 28.103 52.1708 27.6685C51.4509 27.234 50.9285 26.6513 50.6034 25.9205L45.1699 12.8548H49.5237L54.1561 24.5872C54.2257 24.7255 54.307 24.8243 54.3999 24.8835C54.4927 24.9428 54.5972 24.9724 54.7133 24.9724C54.8294 24.9724 54.9339 24.9428 55.0268 24.8835C55.1429 24.8243 55.2242 24.7255 55.2706 24.5872L59.9378 12.8548H64.222L58.7536 25.9205C58.4517 26.6513 57.9293 27.234 57.1863 27.6685C56.4432 28.103 55.6073 28.3203 54.6785 28.3203Z" fill="black"/>
<path d="M2.78884 5.66405C1.88759 5.66405 1.20062 5.5001 0.727934 5.1722C0.280459 4.85966 0.0378148 4.4216 0 3.85801H1.46532C1.50944 4.15005 1.61343 4.36012 1.77729 4.48821C1.99788 4.66753 2.33506 4.75719 2.78884 4.75719C3.12917 4.75719 3.40018 4.69059 3.60186 4.55737C3.80353 4.41904 3.90437 4.24228 3.90437 4.02709C3.90437 3.81702 3.81614 3.6582 3.63967 3.5506C3.44429 3.45325 3.10711 3.37384 2.62813 3.31236C1.73948 3.22013 1.11869 3.05106 0.765749 2.80513C0.381299 2.56432 0.189074 2.1775 0.189074 1.64465C0.189074 1.17841 0.412811 0.786461 0.860286 0.468802C1.32037 0.161391 1.91595 0.00768519 2.64703 0.00768519C3.41593 0.00768519 4.01467 0.14602 4.44323 0.422691C4.8718 0.699361 5.1176 1.10924 5.18062 1.65234H3.77202C3.69009 1.1656 3.31509 0.922234 2.64703 0.922234C2.3193 0.922234 2.06721 0.978593 1.89074 1.09131C1.72057 1.20403 1.63549 1.35517 1.63549 1.54474C1.63549 1.75481 1.71742 1.90339 1.88128 1.99049C2.05145 2.09808 2.38863 2.18262 2.89283 2.2441C3.74996 2.3312 4.3676 2.48747 4.74575 2.71291C5.16171 2.96908 5.36969 3.36872 5.36969 3.91181C5.36969 4.41904 5.13966 4.83148 4.67958 5.14914C4.19429 5.49242 3.56404 5.66405 2.78884 5.66405Z" fill="#2C64E3"/>
<path d="M6.71064 0.084538H11.1161V1.05288H8.23269V2.33633H10.5394V3.24319H8.23269V4.61117H11.2673V5.57952H6.71064V0.084538Z" fill="#2C64E3"/>
<path d="M12.5712 0.084538H16.9766V1.05288H14.0932V2.33633H16.3999V3.24319H14.0932V4.61117H17.1279V5.57952H12.5712V0.084538Z" fill="#2C64E3"/>
<path d="M18.4317 0.084538H19.9632V2.45161L22.3267 0.0768528H23.9527L21.2773 2.68216L24.085 5.57952H22.2983L19.9632 3.11254V5.57952H18.4317V0.084538Z" fill="#2C64E3"/>
<path d="M25.1887 0.084538H26.7296V5.57952H25.1887V0.084538Z" fill="#2C64E3"/>
<path d="M28.4541 0.084538H30.2314L32.8028 3.70431V0.084538H34.1642V5.57952H32.6327L29.8155 1.66771V5.57952H28.4541V0.084538Z" fill="#2C64E3"/>
<path d="M38.9386 5.66405C37.8545 5.66405 37.0069 5.40019 36.3955 4.87247C35.7968 4.37549 35.4974 3.70687 35.4974 2.86661V2.80513C35.4974 1.97512 35.822 1.30138 36.4711 0.783899C37.114 0.2613 37.9365 0 38.9386 0C39.7516 0 40.4196 0.148582 40.9427 0.445746C41.5415 0.794146 41.8755 1.286 41.9448 1.92132H40.4228C40.2841 1.29625 39.7957 0.983716 38.9575 0.983716C38.3713 0.983716 37.9144 1.14767 37.5867 1.47557C37.259 1.80348 37.0951 2.25179 37.0951 2.8205V2.88198C37.0951 3.44557 37.2432 3.88107 37.5394 4.18848C37.8545 4.53176 38.3335 4.70339 38.9764 4.70339C39.5121 4.70339 39.9217 4.58812 40.2053 4.35756C40.4575 4.15774 40.5898 3.88619 40.6024 3.54292H39.0804V2.63605H42.115V3.22013C42.115 3.96305 41.8377 4.55225 41.2831 4.98775C40.7159 5.43862 39.9343 5.66405 38.9386 5.66405Z" fill="#2C64E3"/>
<path d="M46.99 1.05288H45.1654V0.084538H50.3555V1.05288H48.5309V5.57952H46.99V1.05288Z" fill="#2C64E3"/>
<path d="M51.5455 0.084538H53.077V2.32864H55.7902V0.084538H57.3217V5.57952H55.7902V3.31236H53.077V5.57952H51.5455V0.084538Z" fill="#2C64E3"/>
<path d="M59.0032 0.084538H63.4086V1.05288H60.5252V2.33633H62.8319V3.24319H60.5252V4.61117H63.5599V5.57952H59.0032V0.084538Z" fill="#2C64E3"/>
<path d="M84.4146 20.2288C80.5812 20.2288 77.4627 17.5065 77.4627 14.1601V6.06863C77.4627 2.72229 80.5812 0 84.4146 0C88.2479 0 91.3664 2.72229 91.3664 6.06863V14.1601C91.3664 17.5065 88.2479 20.2288 84.4146 20.2288ZM84.4146 2.02288C81.8592 2.02288 79.78 3.8379 79.78 6.06863V14.1601C79.78 16.3909 81.8592 18.2059 84.4146 18.2059C86.9699 18.2059 89.0491 16.3909 89.0491 14.1601V6.06863C89.0491 3.8379 86.9699 2.02288 84.4146 2.02288ZM94.8424 12.1373C94.2025 12.1373 93.6837 12.5901 93.6837 13.1487V14.1601C93.6837 18.6218 89.5256 22.2516 84.4146 22.2516C79.3035 22.2516 75.1454 18.6218 75.1454 14.1601V13.1487C75.1454 12.5901 74.6266 12.1373 73.9868 12.1373C73.3469 12.1373 72.8281 12.5901 72.8281 13.1487V14.1601C72.8281 19.3961 77.4091 23.7142 83.2559 24.2232V26.2974H80.9386C80.2988 26.2974 79.78 26.7503 79.78 27.3088C79.78 27.8674 80.2988 28.3203 80.9386 28.3203H87.8905C88.5304 28.3203 89.0491 27.8674 89.0491 27.3088C89.0491 26.7503 88.5304 26.2974 87.8905 26.2974H85.5732V24.2232C91.42 23.7139 96.001 19.3958 96.001 14.1601V13.1487C96.001 12.5901 95.4822 12.1373 94.8424 12.1373Z" fill="#2C64E3"/>
<path d="M81.4352 9.9121C81.4352 9.44287 81.8798 9.06249 82.4283 9.06249H86.4008C86.9493 9.06249 87.3939 9.44287 87.3939 9.9121C87.3939 10.3813 86.9493 10.7617 86.4008 10.7617H82.4283C81.8798 10.7617 81.4352 10.3813 81.4352 9.9121Z" fill="#2C64E3"/>
<path d="M82.0973 13.8769C82.0973 13.4077 82.5419 13.0273 83.0904 13.0273H85.7387C86.2872 13.0273 86.7318 13.4077 86.7318 13.8769C86.7318 14.3462 86.2872 14.7265 85.7387 14.7265H83.0904C82.5419 14.7265 82.0973 14.3462 82.0973 13.8769Z" fill="#2C64E3"/>
<path d="M82.0973 5.94726C82.0973 5.47803 82.5419 5.09765 83.0904 5.09765H85.7387C86.2872 5.09765 86.7318 5.47803 86.7318 5.94726C86.7318 6.41648 86.2872 6.79687 85.7387 6.79687H83.0904C82.5419 6.79687 82.0973 6.41648 82.0973 5.94726Z" fill="#2C64E3"/>
</svg>
