<svg width="80" height="80" fill="none" xmlns="http://www.w3.org/2000/svg"><path d="M79.45 38.43l.001.015.002.014c.046.466.047.985.047 1.486v.197c-.049 21.031-16.673 38.444-37.895 39.325C19.797 80.347 1.413 63.423.533 41.61-.347 19.796 16.566 1.408 38.368.522c.208 0 .399-.006.583-.012.35-.01.677-.02 1.049.01l.02.002h.021c21.073 0 38.53 16.679 39.41 37.908z" stroke="#fff"/><path d="M39.992 70.55c-16.856 0-30.546-13.694-30.546-30.556 0-16.862 13.69-30.556 30.546-30.556s30.546 13.694 30.546 30.556c0 16.862-13.69 30.557-30.546 30.557z" stroke="#fff"/><path d="M17.116 38.703h47.386" stroke="#fff" stroke-width=".263" stroke-linecap="round" stroke-linejoin="round"/><path fill-rule="evenodd" clip-rule="evenodd" d="M56.233 50.992c-.148 1.288-.594 2.328-1.386 3.021-.793.694-1.832 1.04-3.17 1.04-.94 0-1.732-.247-2.425-.693-.694-.446-1.238-1.09-1.635-1.981-.396-.892-.594-1.833-.594-2.923v-1.634c0-1.09.198-2.08.594-2.923.397-.842.941-1.535 1.684-1.98a4.828 4.828 0 012.525-.694c1.337 0 2.377.346 3.17 1.09.791.693 1.237 1.733 1.336 2.971h-1.139c-.247-2.13-1.386-3.17-3.416-3.17-1.139 0-2.03.446-2.674 1.288-.644.842-.99 2.03-.99 3.517v1.535c0 1.437.346 2.576.99 3.418.644.842 1.535 1.288 2.624 1.288 1.09 0 1.931-.248 2.476-.793.545-.544.891-1.337 1.04-2.377h.99zm-11.29-1.684c0 1.139-.197 2.13-.593 3.021-.397.842-.941 1.536-1.684 1.981a4.827 4.827 0 01-2.525.694c-1.436 0-2.624-.495-3.516-1.535-.891-1.04-1.337-2.428-1.337-4.21V47.97c0-1.139.198-2.13.595-3.021.396-.892.99-1.535 1.683-2.03a4.829 4.829 0 012.525-.694c.941 0 1.783.247 2.526.693.742.446 1.287 1.09 1.683 1.932.396.842.594 1.833.644 2.922v1.536zm-1.04-1.338c0-1.486-.346-2.674-1.039-3.516-.693-.842-1.584-1.288-2.773-1.288-1.139 0-2.08.446-2.773 1.288-.693.842-1.04 2.03-1.04 3.566v1.288c0 1.486.347 2.625 1.04 3.517.694.842 1.634 1.287 2.773 1.287 1.189 0 2.13-.445 2.773-1.287.644-.843.99-2.031.99-3.567l.05-1.288zm-11.288 3.814c0-.693-.248-1.238-.743-1.634-.495-.396-1.387-.793-2.674-1.14-1.287-.346-2.228-.742-2.822-1.188-.842-.595-1.288-1.387-1.288-2.378 0-.94.396-1.733 1.189-2.328.792-.594 1.782-.891 3.02-.891.842 0 1.584.148 2.228.495.644.297 1.139.743 1.535 1.337.347.595.545 1.19.545 1.883h-1.04c0-.842-.297-1.536-.891-2.031-.595-.495-1.337-.793-2.328-.793-.94 0-1.683.198-2.277.644-.545.446-.842.99-.842 1.684 0 .644.248 1.14.743 1.536.495.396 1.337.743 2.426 1.04 1.139.297 1.98.644 2.525.941.595.347.99.694 1.288 1.189.297.446.445.99.445 1.634 0 .991-.396 1.784-1.188 2.378-.792.594-1.832.892-3.07.892-.891 0-1.684-.15-2.426-.446-.743-.297-1.288-.743-1.684-1.338-.396-.545-.544-1.188-.544-1.931h1.04c0 .891.346 1.585.99 2.08.643.495 1.535.743 2.624.743.99 0 1.733-.198 2.327-.644.594-.446.892-.99.892-1.734zM61.332 31.18h-5.645L54.4 34.697h-1.09l4.705-12.433h.99l4.704 12.433h-1.09l-1.287-3.517zm-5.298-.891h5.001l-2.476-6.786-2.525 6.786zm-9.754-.694v5.052h-1.04V22.263h4.209c1.287 0 2.327.347 3.07.99.742.645 1.138 1.586 1.138 2.725 0 1.189-.346 2.08-1.089 2.724-.743.644-1.783.942-3.12.942H46.28v-.05zm0-.892h3.169c1.04 0 1.782-.247 2.327-.743.544-.495.792-1.139.792-2.03 0-.842-.248-1.536-.792-2.08-.545-.496-1.288-.793-2.278-.793H46.28v5.646zm-3.417 2.08c-.148 1.289-.594 2.329-1.386 3.022-.793.694-1.832 1.04-3.17 1.04-.94 0-1.732-.247-2.425-.693-.694-.446-1.238-1.09-1.635-1.981-.396-.842-.594-1.833-.594-2.923v-1.634c0-1.09.198-2.08.594-2.923.397-.842.941-1.535 1.684-1.98a4.828 4.828 0 012.525-.694c1.337 0 2.377.346 3.17 1.09.791.693 1.237 1.733 1.336 2.971h-1.04c-.247-2.13-1.386-3.17-3.416-3.17-1.14 0-2.03.446-2.674 1.288-.644.842-.99 2.03-.99 3.517v1.535c0 1.437.346 2.576.99 3.418.644.842 1.535 1.288 2.624 1.288 1.09 0 1.931-.248 2.476-.793.545-.544.891-1.337 1.04-2.377h.891zm-13.072 3.914h1.04V22.263h-1.04v12.433zm-4.258-3.517h-5.645l-1.287 3.517h-1.09l4.704-12.433h.99l4.705 12.433h-1.09l-1.287-3.517zm-5.298-.891h5l-2.475-6.786-2.525 6.786zm54.268-.942c-.099 0-.148.05-.148.149 0 .099-.05.198 0 .347v.396c-.05.248-.149.396-.347.446-.148.05-.347 0-.495-.1-.149-.098-.248-.296-.347-.495a1.41 1.41 0 010-.644c.05-.198.198-.297.396-.346l.149.445c-.1 0-.149.1-.198.15-.05.098-.05.148 0 .296.05.1.099.149.148.198.05.05.149.05.198.05.05 0 .1-.05.149-.149v-.842c0-.099.05-.198.149-.297a.272.272 0 01.247-.148c.198-.05.347 0 .495.099.149.099.248.297.347.544.05.149.05.298.05.446a.45.45 0 01-.15.347 1.008 1.008 0 01-.296.198l-.149-.446c.1-.05.149-.099.198-.198a.313.313 0 000-.297c-.05-.1-.099-.198-.148-.248-.1.05-.198.05-.248.1zm-.693 3.17l.198-.05a.767.767 0 01-.396-.544c-.1-.396.099-.693.594-.793l1.337-.297.099.446-1.287.297c-.149.05-.198.1-.248.149-.05.05-.05.148-.05.297.05.198.15.297.347.347l1.436-.347.1.446-2.031.446-.099-.397zm1.485 2.527c-.198.05-.396 0-.544-.05-.149-.05-.297-.149-.446-.248-.099-.148-.198-.297-.198-.495-.05-.297 0-.495.149-.693a.969.969 0 01.643-.397h.1c.197-.05.395-.05.544.05.149.05.297.148.446.248.099.148.198.297.198.495.05.297 0 .545-.149.743-.198.148-.396.297-.743.347zm-.05-.446c.199-.05.348-.1.447-.198.099-.1.148-.248.099-.397 0-.148-.1-.247-.248-.346a.933.933 0 00-.545-.05c-.198.05-.346.1-.445.198-.1.1-.149.248-.1.396 0 .15.1.248.248.347.149.05.297.05.545.05zm-1.385 1.585c-.05 0-.149 0-.199-.05-.05-.05-.099-.099-.099-.198s0-.148.05-.198c.05-.05.099-.1.148-.1.05 0 .149 0 .199.05.049.05.099.1.099.199s0 .148-.05.198c-.05.05-.099.05-.148.099zm2.525-.793l.05.446-2.03.248-.05-.446 2.03-.248zm-2.426 1.437l.495-.05-.05-.347.347-.05.05.348 1.138-.1c.1 0 .149-.049.149-.049.05-.05.05-.099.05-.149 0-.05 0-.099-.05-.148l.346-.05c.05.1.05.198.05.297.05.347-.149.545-.545.595l-1.139.099.05.347-.347.05-.05-.347-.494.049v-.495zm2.673 1.337c-.05.05-.148.05-.198.05.149.148.248.297.248.544 0 .199-.05.397-.149.496-.099.148-.247.198-.445.198s-.396-.05-.495-.248a1.282 1.282 0 01-.198-.693v-.297h-.15a.378.378 0 00-.247.099c-.05.05-.099.148-.099.297 0 .099.05.198.1.247.049.05.098.1.197.1v.445a.531.531 0 01-.297-.099c-.099-.099-.198-.198-.247-.297-.05-.149-.1-.297-.1-.446 0-.247.05-.445.15-.594a.61.61 0 01.494-.248l.941-.05a1 1 0 00.446-.098h.05v.594zm-.346.545a.378.378 0 00-.1-.248.387.387 0 00-.197-.198h-.396v.248c0 .148.049.297.099.396.05.1.148.1.247.1.1 0 .149-.05.198-.1.149-.05.149-.099.149-.198zm0 2.229v-1.09h.346l-.05 1.684h-.296l-1.387-1.09v1.04h-.396l.05-1.634h.297l1.436 1.09zm-2.328 1.436c-.049 0-.148-.05-.148-.099-.05-.05-.05-.099-.05-.198s.05-.148.1-.198c.049-.05.099-.05.198-.05.05 0 .148.05.148.1.05.049.05.099.05.198s-.05.148-.1.198c-.049 0-.098.05-.197.05zm2.625-.346l-.05.445-2.03-.099.05-.445 2.03.099zm-2.228 2.08h.247a.733.733 0 01-.198-.644c.05-.446.297-.594.792-.594l1.337.148-.05.446-1.336-.149c-.149 0-.248 0-.297.05a.379.379 0 00-.1.248c0 .198.05.346.199.445l1.436.149-.05.446-2.03-.198.05-.347zm1.881 1.635h-.198c.149.148.149.346.149.594-.05.198-.1.347-.248.446-.148.099-.297.148-.445.099a.63.63 0 01-.446-.347c-.1-.198-.1-.396-.05-.743l.05-.297H74.9c-.099 0-.198 0-.247.05-.05.049-.1.148-.149.247 0 .1 0 .198.05.248.05.099.099.099.198.148l-.1.446c-.098 0-.197-.099-.296-.149a.798.798 0 01-.198-.346.688.688 0 010-.446.978.978 0 01.297-.545.997.997 0 01.544-.148l.892.148c.198.05.346.05.445 0h.05l-.149.595zm-.445.445v-.247a.68.68 0 00-.149-.198l-.396-.05-.05.248c-.05.148 0 .297 0 .396.05.099.1.148.248.148.099 0 .149 0 .248-.05.05-.098.099-.148.099-.247zm-1.337 2.873a1.083 1.083 0 01-.694-.396.751.751 0 01-.148-.644.76.76 0 01.347-.495l-.198-.05.099-.396 1.93.446c.248.05.446.198.545.396a.838.838 0 01.05.693c-.05.149-.1.297-.198.397a.663.663 0 01-.297.247l-.198-.297a.63.63 0 00.346-.446.527.527 0 00-.05-.396c-.049-.1-.148-.198-.346-.198l-.148-.05a.768.768 0 01.099.595c-.05.247-.198.396-.397.495-.148.149-.396.149-.742.1zm.148-.446c.198.05.347.05.495 0 .149-.05.248-.148.248-.297.05-.198 0-.347-.149-.446l-.89-.198c-.15.05-.298.149-.298.347-.05.148 0 .297.1.396.098.05.296.149.494.198zm-.792.496c-.05.05-.05.099-.05.198a.575.575 0 00.1.495l1.336.396-.148.446-1.98-.594.098-.446.248.05a.559.559 0 01-.149-.545c0-.05.05-.1.05-.149l.495.149zm-.099 1.585c.248.099.446.198.644.396.148.148.247.347.297.545.05.198.05.396-.05.644a.908.908 0 01-.346.495c-.149.149-.347.198-.595.248-.247 0-.445 0-.693-.1l-.148-.049c-.248-.099-.446-.198-.644-.396a1.181 1.181 0 01-.297-.545.986.986 0 01.05-.644c.098-.198.197-.396.346-.495.149-.149.347-.198.594-.248.248 0 .446 0 .743.1l.099.049zm-.297.396c-.297-.1-.545-.149-.743-.05a.537.537 0 00-.396.397c-.05.198-.05.396.05.544.099.15.297.298.594.397l.148.05c.297.098.545.098.743.049a.537.537 0 00.396-.396c.05-.199.05-.397-.05-.545-.098-.149-.296-.297-.594-.396l-.148-.05zm-.1 4.31a.981.981 0 01-.544.544c-.247.1-.495.05-.792-.05h-.05c-.198-.099-.346-.198-.445-.346-.1-.149-.198-.297-.198-.446 0-.149 0-.347.099-.495.099-.248.297-.396.495-.496.248-.05.495-.05.792.1l.149.098-.594 1.239c.148.05.297.05.445 0a.446.446 0 00.297-.297c.1-.199.1-.397 0-.595l.297-.148c.1.148.1.247.1.396.049.198 0 .347-.05.495zm-1.633-.694c-.05.099-.05.198 0 .346.05.1.148.199.297.298l.396-.793h-.05a1.09 1.09 0 00-.396-.05c-.099 0-.198.1-.247.199zm.297 2.526c.05-.1.05-.198.05-.297 0-.1-.1-.198-.15-.248l.199-.396a.51.51 0 01.248.297c.05.1.099.248.099.396 0 .149-.05.297-.1.397-.148.247-.346.396-.594.445-.247.05-.495 0-.792-.148h-.05a1.054 1.054 0 01-.544-.595c-.1-.247-.05-.495.099-.743.099-.198.297-.346.495-.446a.828.828 0 01.594.05l-.198.396c-.099-.05-.198-.05-.297-.05-.099.05-.198.1-.247.199-.05.148-.1.248 0 .396.05.1.198.248.396.347l.05.05c.197.099.346.148.494.148.1 0 .198-.099.248-.198zm-2.872.446c-.05-.05-.099-.1-.099-.149 0-.05 0-.148.05-.198l.148-.149c.05 0 .149 0 .198.05.05.05.1.099.1.149 0 .049 0 .148-.05.198l-.149.148c-.05 0-.148 0-.198-.05zm2.476.94l-.248.397-1.782-1.04.247-.396 1.783 1.04zm-1.436 1.19l-.99-1.19.247-.395 1.337 1.733-.198.347-2.13-.545.248-.396 1.486.446zm-1.436.297c-.05.05-.1.099-.1.148a.381.381 0 00-.049.496l1.14.842-.298.396L67.72 60.8l.247-.346.198.148a.532.532 0 01.05-.545c.05-.05.05-.099.099-.099l.396.149zm-.05 2.873a1.011 1.011 0 01-.643.396c-.248.05-.495-.05-.743-.248l-.05-.05c-.148-.098-.247-.247-.346-.445-.1-.149-.1-.347-.1-.495 0-.149.1-.298.199-.446.198-.198.396-.347.594-.347.248 0 .495.1.743.297l.148.1-.841 1.04c.148.099.297.148.445.099.149 0 .248-.1.347-.199a.56.56 0 00.148-.544l.347-.05c.05.149.05.297 0 .446-.099.148-.149.297-.248.446zm-1.436-1.09c-.099.099-.099.198-.099.347 0 .099.1.247.198.346l.545-.693h-.05c-.148-.1-.247-.149-.346-.1-.05-.049-.148 0-.248.1zm-.346 1.981c-.1-.099-.198-.099-.297-.099-.1 0-.248.1-.446.198-.198.1-.396.198-.544.248-.298.099-.545.05-.694-.149-.148-.148-.247-.346-.198-.594 0-.248.1-.446.297-.693.149-.15.297-.248.446-.298.148-.05.297-.099.446-.05.148.05.297.1.396.199l-.347.347a.45.45 0 00-.347-.149c-.098 0-.247.1-.346.198-.1.1-.149.248-.198.347 0 .099.05.198.099.297.099.05.148.1.297.05.099 0 .248-.1.446-.199s.346-.198.495-.247c.148-.05.297-.05.396 0 .099.05.247.099.346.198a.796.796 0 01.248.545c0 .247-.148.446-.347.693-.148.149-.297.248-.445.347a1.76 1.76 0 01-.495.099c-.149 0-.297-.099-.446-.198l.347-.347c.099.1.247.149.396.149.148 0 .247-.1.396-.248.099-.099.148-.248.198-.347 0-.099 0-.198-.1-.297zm-2.03 3.814l-.149.149-2.178-2.427.148-.149 2.179 2.427zm-3.02 1.14a.272.272 0 00-.248-.15c-.1 0-.248.05-.446.1a.799.799 0 01-.445.148h-.298a.685.685 0 01-.198-.148c-.099-.149-.099-.297-.099-.446.05-.148.149-.297.347-.446.198-.148.346-.198.545-.198a.52.52 0 01.445.248l-.198.148c-.099-.099-.198-.148-.297-.148-.148 0-.247.05-.396.148-.1.1-.198.199-.248.298-.05.099 0 .198.05.297.05.099.148.148.247.148.1 0 .248-.05.446-.099.198-.099.347-.148.446-.148h.297a.39.39 0 01.198.198c.099.148.148.297.099.446-.05.148-.149.297-.347.445a.951.951 0 01-.594.199.52.52 0 01-.445-.248l.198-.149c.099.1.198.149.297.149.148 0 .247-.05.396-.149a.658.658 0 00.247-.297c.1-.198.1-.297 0-.347zm-3.467.544l.198.297c0-.148 0-.297.1-.396.049-.099.148-.198.247-.297.198-.1.347-.149.495-.1.149.05.297.15.446.397l.742 1.14-.198.098-.742-1.139c-.1-.148-.198-.247-.347-.297-.099-.05-.247 0-.396.1-.1.098-.198.197-.248.296a.688.688 0 000 .446l.793 1.189-.198.099-1.14-1.734.248-.099zm-1.683 2.13a.999.999 0 01-.149-.545c0-.198 0-.346.1-.495.098-.149.197-.248.346-.347.248-.148.495-.148.743-.099.247.1.445.248.594.545v.05c.099.198.148.346.148.544 0 .149 0 .347-.099.496a1.158 1.158 0 01-.346.346c-.248.15-.495.15-.743.1-.248-.1-.446-.298-.594-.595zm.198-.05c.099.199.297.347.445.446.199.1.397.05.545-.05.198-.098.297-.247.297-.445.05-.198 0-.396-.148-.644v-.05a2.222 2.222 0 00-.297-.346.535.535 0 00-.347-.149c-.148 0-.248 0-.347.1-.198.098-.297.247-.297.445s0 .396.149.694zm-1.634-1.04v-.099c0-.05.05-.05.099-.099.05 0 .099-.05.099 0 .05 0 .05.05.099.1v.098c0 .05-.05.05-.1.1-.049 0-.098.049-.098 0a.106.106 0 01-.1-.1zm1.436 2.279l-.198.099-.941-1.833.198-.099.94 1.833zM54.5 70.854l.248.496.396-.199.099.149-.396.198.594 1.238c.05.1.099.149.148.199.05.05.149.05.199 0 .049 0 .099-.05.148-.1l.1.15c-.05.049-.15.098-.199.148-.149.05-.248.05-.347 0a.507.507 0 01-.247-.297l-.594-1.239-.347.149-.099-.149.347-.148-.248-.496.198-.099zm0 2.873a1.082 1.082 0 01-.148-.248.797.797 0 01-.198.347c-.1.1-.199.198-.347.248-.198.099-.347.099-.495.05-.149-.05-.248-.15-.347-.298-.099-.198-.05-.347.05-.545.099-.148.297-.297.594-.446l.396-.148-.099-.198c-.05-.149-.149-.248-.248-.248-.099-.05-.247-.05-.396.05a.507.507 0 00-.297.247c-.05.1-.099.248-.05.347l-.197.1c-.05-.15-.05-.298.05-.496a1.17 1.17 0 01.445-.397.717.717 0 01.544-.049c.149.05.297.198.397.347l.396.891c.099.198.148.297.247.396l-.297.05zm-.743.1c.149-.05.248-.15.347-.248a.563.563 0 00.149-.397l-.199-.396-.396.149a1.727 1.727 0 00-.445.297c-.1.099-.1.247-.05.396.05.1.1.198.248.198.099.05.198.05.346 0zm-2.277.841l1.287-.446.05.199-1.535.544-.05-.148.644-2.031-1.139.396-.05-.198 1.436-.495.05.148-.693 2.031zm-1.783-2.03v-.1c0-.05.05-.05.1-.099h.098c.05 0 .05.05.05.1v.098c0 .05-.05.05-.1.1h-.098c0-.05 0-.1-.05-.1zm1.04 2.426l-.198.05-.594-1.981.198-.05.594 1.981zm-2.674-1.386l.1.346a.798.798 0 01.197-.347.799.799 0 01.347-.198c.198-.05.396-.05.544.05.15.099.248.248.298.495l.346 1.288-.198.05-.346-1.288c-.05-.198-.1-.297-.198-.347a.526.526 0 00-.397-.05.798.798 0 00-.346.199.562.562 0 00-.149.396l.347 1.387-.198.05-.495-1.982.148-.05zm-.594 2.228c-.05-.049-.05-.148-.099-.297-.05.1-.149.198-.248.297a.535.535 0 01-.346.15c-.198.049-.347 0-.495-.05-.149-.1-.248-.199-.248-.397-.05-.198 0-.346.149-.495.148-.149.346-.248.643-.297l.396-.1-.05-.247c-.049-.148-.098-.248-.197-.297-.1-.05-.248-.1-.396-.05-.149.05-.297.1-.347.198-.099.1-.099.199-.099.298l-.247.05c-.05-.15 0-.298.148-.447.149-.148.297-.247.495-.297.248-.05.396 0 .545.05a.72.72 0 01.297.446l.198.94c.05.199.1.347.149.446l-.248.1zm-.743 0c.149-.049.297-.099.396-.198a.8.8 0 00.199-.346l-.1-.446-.396.099c-.198.05-.396.099-.495.248a.535.535 0 00-.148.346c0 .1.099.198.198.248.099.05.247.05.346.05zm-3.02-.445c-.05-.297 0-.595.099-.793a.609.609 0 01.545-.347c.297-.05.495.05.693.248l-.05-.297.198-.05.248 1.982c.05.247 0 .495-.149.644-.148.148-.297.297-.544.297-.149 0-.297 0-.396-.05a.798.798 0 01-.347-.198l.099-.148c.198.198.396.247.594.198.198 0 .347-.1.396-.248.1-.149.149-.297.1-.495l-.05-.248c-.1.198-.297.347-.594.396-.248.05-.446-.05-.595-.198-.099-.099-.198-.347-.247-.693zm.247 0c.05.247.1.445.248.594.099.149.297.198.495.149.297-.05.446-.198.545-.446l-.1-.941a.597.597 0 00-.247-.248.526.526 0 00-.396-.05c-.198.05-.346.1-.396.298-.149.148-.198.347-.149.644zm-.594-.793h-.148a.45.45 0 00-.347.149.8.8 0 00-.198.347l.1 1.386h-.248l-.149-2.03h.198l.05.346c.099-.247.297-.396.544-.396h.149l.05.198zm-1.485.743c0 .248-.05.495-.1.694-.098.198-.197.346-.346.445a.998.998 0 01-.544.149c-.347 0-.595-.1-.793-.347-.198-.247-.297-.545-.297-.94v-.298c0-.248.05-.495.1-.694.098-.198.197-.346.346-.445a.999.999 0 01.544-.149c.199 0 .397.05.545.149.149.099.297.247.396.446.1.198.149.396.149.643v.347zm-.198-.297a1.26 1.26 0 00-.248-.793c-.148-.198-.346-.297-.643-.247a.707.707 0 00-.595.297c-.148.198-.198.446-.198.793v.297c0 .346.1.594.248.792.148.198.346.297.643.297a.707.707 0 00.595-.297c.148-.198.198-.446.198-.792v-.347zm-4.16 1.535c-.396 0-.643-.198-.792-.544a1.781 1.781 0 01-.099-.545v-.1c0-.197.05-.396.149-.544.099-.149.198-.248.346-.347.149-.099.297-.099.446-.099.248 0 .446.1.594.297.149.198.198.397.149.694v.148l-1.486-.099v.05c0 .247.05.446.149.594a.61.61 0 00.495.248c.099 0 .198 0 .347-.05.099-.05.198-.099.247-.198l.149.1c-.149.296-.396.395-.694.395zm.05-1.931a.799.799 0 00-.446.148c-.148.1-.198.297-.247.496l1.238.099v-.05a.837.837 0 00-.149-.495c-.05-.149-.198-.198-.396-.198zm-2.179 1.535c.149 0 .297 0 .396-.099.1-.099.198-.198.198-.347l.199.05c0 .099-.1.248-.149.347a1.035 1.035 0 01-.297.198c-.149.05-.248.05-.396.05-.248-.05-.446-.15-.594-.347-.149-.199-.198-.446-.149-.793v-.05c0-.198.1-.346.198-.544.1-.149.198-.248.347-.297.148-.05.297-.1.495-.05.248.05.396.1.545.248a.56.56 0 01.148.544l-.198-.049a.932.932 0 00-.099-.396c-.099-.1-.198-.198-.396-.198a.55.55 0 00-.495.148c-.149.149-.198.347-.248.595v.05c-.05.247 0 .494.1.643.049.198.197.248.395.297zm-1.485-.05l-.248-.049.347-2.03.248.049-.347 2.03zm.198-2.674c0-.1.05-.149.198-.149.05 0 .099.05.099.05 0 .05.05.05 0 .099 0 .05-.05.05-.05.099-.049.05-.099.05-.099 0-.049 0-.098-.05-.098-.05-.05.05-.05 0-.05-.05zm-1.634 2.08l.99-1.585.248.05-1.188 1.882-.199-.05-.346-2.179.247.05.248 1.832zm-.693-1.733c-.05 0-.1-.05-.149-.05a.547.547 0 00-.396 0c-.099.05-.198.149-.297.297l-.347 1.387-.198-.05.495-1.98.198.049-.099.297c.199-.198.397-.297.644-.198.05 0 .1.05.149.05v.198zm-2.674 1.238c-.347-.1-.545-.347-.644-.694-.05-.198 0-.346.05-.544v-.1c.05-.197.148-.346.247-.495.1-.148.248-.198.396-.247a.687.687 0 01.446 0c.248.05.396.198.495.445.1.199.1.446 0 .743l-.05.1-1.386-.446v.05c-.05.247-.05.445 0 .594a.773.773 0 00.396.396c.1.05.248.05.347.05.1 0 .198-.05.297-.15l.1.15c-.1.198-.348.247-.694.148zm.545-1.882a.48.48 0 00-.446.05c-.149.098-.248.247-.347.395l1.189.347c.05-.198.05-.347 0-.495-.1-.149-.198-.248-.396-.297zm-1.783.693c.05-.148.05-.297 0-.396-.05-.1-.248-.248-.446-.446-.247-.198-.396-.347-.495-.495-.148-.198-.148-.396-.099-.594.1-.199.198-.347.446-.397.198-.05.445-.05.693.05.149.05.297.148.446.297.099.099.198.248.198.396.05.149 0 .297-.05.446l-.198-.1c.05-.197.05-.346 0-.494-.099-.149-.198-.248-.445-.347a.717.717 0 00-.545-.05.447.447 0 00-.297.297c-.05.15-.05.248.05.397.049.099.197.247.445.396.198.149.347.297.446.396.099.1.148.248.198.347 0 .149 0 .248-.05.347-.099.198-.198.347-.446.396-.197.05-.445.05-.693-.05a.721.721 0 01-.445-.297c-.149-.099-.198-.247-.248-.396-.05-.149 0-.297.05-.446l.198.1c-.05.197-.05.346.05.495a.759.759 0 00.494.346c.198.1.397.1.545.05.05 0 .148-.1.198-.248zm-2.278-2.18c-.05-.049-.099-.049-.148-.098-.1-.05-.248-.1-.396-.05-.1.05-.248.1-.347.198l-.594 1.288-.198-.099.891-1.882.198.099-.148.297a.695.695 0 01.693-.099c.05.05.099.05.148.1l-.099.247zm-3.268-.792a.917.917 0 01.347-.396.799.799 0 01.446-.149c.148 0 .346.05.495.1.247.148.396.297.445.594.05.248 0 .495-.148.792v.05c-.1.148-.198.297-.347.396a.8.8 0 01-.445.149c-.149 0-.347-.05-.495-.1-.248-.148-.397-.296-.446-.594-.1-.247-.05-.544.148-.842zm.149.149c-.1.198-.149.446-.1.644a.63.63 0 00.348.446.702.702 0 00.544.05.971.971 0 00.446-.447v-.05c.099-.148.099-.296.148-.445 0-.149 0-.248-.05-.396a.596.596 0 00-.247-.248.7.7 0 00-.544-.05c-.248.1-.396.248-.545.496zm-1.585.198l.99-1.585-.296-.198.099-.149.297.198.148-.198a.662.662 0 01.396-.346c.149-.05.297 0 .496.099.05.05.148.099.198.148l-.1.149-.148-.149c-.099-.05-.198-.099-.297-.05-.099.05-.198.1-.248.248l-.148.198.396.248-.099.149-.396-.248-.99 1.585-.298-.099zm-.99-1.635c-.198.199-.396.347-.644.347-.247 0-.495-.05-.693-.248-.148-.099-.297-.247-.346-.445-.05-.198-.1-.397-.05-.545.05-.198.149-.396.248-.594l.198-.298c.148-.198.297-.346.495-.446a.998.998 0 01.545-.148c.198 0 .396.099.544.198.248.198.396.396.446.594.05.248 0 .446-.149.694l-.198-.149c.248-.396.149-.743-.198-1.04-.198-.148-.445-.198-.643-.099-.248.05-.446.248-.644.495l-.198.298c-.198.247-.297.495-.248.743 0 .247.1.445.297.594a.921.921 0 00.545.198c.148 0 .346-.099.495-.297l.198.148zm-1.881-1.832a1.549 1.549 0 01-.545.446c-.198.099-.396.099-.594.099-.198-.05-.396-.1-.545-.248-.248-.198-.396-.446-.396-.793 0-.297.099-.594.396-.891l.198-.198c.149-.198.347-.347.545-.446.198-.1.396-.149.594-.1.198.05.347.1.545.249.148.148.297.297.346.495.05.198.05.396 0 .594-.05.198-.148.396-.297.595l-.247.198zm0-.397c.198-.247.346-.495.346-.743a.707.707 0 00-.297-.594c-.198-.148-.396-.248-.644-.198-.247.05-.445.198-.693.446l-.198.198a1.685 1.685 0 00-.346.743c0 .248.099.446.297.644.198.148.445.248.643.198.248-.05.446-.198.694-.446l.198-.248zm-2.526-1.04a.562.562 0 00.149-.396c0-.148-.1-.347-.248-.594-.148-.248-.247-.446-.247-.644-.05-.248 0-.397.148-.595.149-.148.347-.198.545-.198.198.05.445.149.644.347.148.149.247.248.297.396.05.149.05.297.05.446-.05.149-.1.297-.199.396l-.148-.148a.605.605 0 00.198-.446c0-.149-.1-.347-.248-.495-.148-.149-.297-.248-.445-.248-.15-.05-.298 0-.397.148-.099.1-.148.248-.099.347 0 .149.1.347.248.545.148.248.198.396.247.545.05.149.05.248.05.396a.798.798 0 01-.198.347c-.149.148-.347.248-.545.198a1.38 1.38 0 01-.643-.347 1.17 1.17 0 01-.297-.445c-.05-.149-.1-.298-.05-.446.05-.149.099-.297.198-.396l.149.148c-.149.149-.198.297-.149.495.05.199.149.347.297.545.149.149.297.248.495.248-.05 0 .1-.05.198-.149zm38.968-5.549c0-.247.05-.446.15-.644.098-.198.197-.346.395-.446a.998.998 0 01.545-.148c.346 0 .594.099.792.347.198.247.297.544.297.891v.05c0 .247-.05.446-.148.644-.1.198-.198.346-.396.446a1.177 1.177 0 01-.595.148c-.346 0-.594-.099-.792-.347a1.762 1.762 0 01-.247-.94zm.446.05c0 .247.05.495.198.644a.61.61 0 00.495.247.61.61 0 00.496-.247c.099-.149.198-.397.198-.694 0-.247-.05-.495-.198-.644a.61.61 0 00-.495-.247c-.199 0-.347.099-.496.247-.148.149-.198.397-.198.694zm-1.139.545c0-.1-.05-.199-.148-.248a2.31 2.31 0 00-.446-.149c-.198-.05-.396-.099-.495-.148-.099-.05-.198-.149-.248-.198-.049-.1-.099-.198-.099-.298 0-.198.1-.346.248-.495.149-.148.396-.198.644-.198.247 0 .495.05.643.198.149.149.248.297.248.545h-.396c0-.1-.05-.198-.149-.297-.099-.1-.198-.1-.346-.1a.715.715 0 00-.347.1.272.272 0 00-.148.247c0 .1.05.199.099.248.05.05.198.1.445.149.198.05.347.099.495.148.149.05.199.149.297.248.05.099.1.198.1.347a.61.61 0 01-.248.495c-.149.149-.396.198-.644.198-.198 0-.346-.05-.495-.099-.148-.05-.248-.148-.347-.297a.563.563 0 01-.148-.396h.396c0 .148.05.247.149.346.099.1.247.1.396.1.148 0 .297-.05.396-.1.099-.148.148-.247.148-.346zm-2.178-.446h.445v.346h-.445v.744h-.396v-.743h-1.486v-.248l1.436-2.23h.446v2.13zm-1.387 0h.99V59.41l-.049.099-.94 1.486zm-1.584.792c.148 0 .297-.05.396-.148a.798.798 0 00.198-.347h.396c0 .149-.05.297-.148.396-.1.1-.199.248-.347.297-.149.05-.297.1-.446.1-.346 0-.594-.1-.792-.347-.198-.198-.297-.495-.297-.892v-.05c0-.247.05-.445.149-.643.099-.198.198-.347.346-.446a.997.997 0 01.545-.149c.247 0 .495.1.693.248.198.149.297.347.297.644h-.396a.45.45 0 00-.198-.396.562.562 0 00-.396-.149c-.198 0-.347.1-.495.248-.1.148-.149.346-.149.644v.099c0 .297.05.495.149.644.148.148.297.247.495.247zm-3.516-.94c0-.248.05-.447.149-.645.099-.198.198-.346.396-.446a.999.999 0 01.545-.148c.346 0 .594.099.792.347.198.247.297.544.297.891v.05c0 .247-.05.446-.149.644-.099.198-.198.346-.396.446a1.177 1.177 0 01-.594.148c-.346 0-.594-.099-.792-.347a1.763 1.763 0 01-.248-.94zm.396.049c0 .247.05.495.199.644a.61.61 0 00.495.247.61.61 0 00.495-.247c.099-.149.198-.397.198-.694 0-.247-.05-.495-.198-.644a.61.61 0 00-.495-.247c-.199 0-.347.099-.495.247-.15.149-.199.397-.199.694zm-1.139.545a.27.27 0 00-.148-.248 2.309 2.309 0 00-.446-.149c-.198-.05-.396-.099-.495-.148a1.092 1.092 0 01-.247-.198c-.05-.1-.1-.198-.1-.298 0-.198.1-.346.248-.495.149-.148.396-.198.644-.198s.495.05.644.198c.148.149.247.297.247.545H44.3c0-.1-.05-.198-.148-.297-.1-.1-.199-.1-.347-.1a.714.714 0 00-.347.1.272.272 0 00-.148.247c0 .1.05.199.099.248.099.05.198.1.445.149.199.05.347.099.495.148.15.05.199.149.298.248a.71.71 0 01.099.347.61.61 0 01-.248.495c-.148.149-.396.198-.644.198-.198 0-.346-.05-.495-.099-.148-.05-.247-.148-.346-.297a.563.563 0 01-.149-.396h.396c0 .148.05.247.149.346.099.1.247.1.396.1.148 0 .297-.05.396-.1.099-.148.148-.247.148-.346zm-3.07.891h-.346l1.337-3.517h.346l-1.336 3.517zm-2.624-1.486c0-.396.1-.693.248-.891a.866.866 0 01.693-.347c.297 0 .495.099.693.297v-.248h.396v2.328c0 .298-.099.545-.297.743-.198.199-.445.248-.742.248a1.77 1.77 0 01-.495-.099c-.15-.05-.298-.198-.397-.297l.198-.248c.199.198.397.347.644.347.198 0 .347-.05.446-.149.099-.099.148-.247.148-.495v-.198c-.148.198-.396.297-.693.297-.297 0-.495-.099-.693-.347-.05-.247-.149-.544-.149-.94zm.446.05c0 .247.05.495.148.644a.52.52 0 00.446.247c.248 0 .446-.099.545-.346v-1.09c-.149-.248-.297-.347-.545-.347a.52.52 0 00-.446.248c-.099.099-.148.347-.148.644zm-.594-.842h-.198c-.248 0-.446.099-.545.346v1.684h-.396v-2.377h.396v.297a.706.706 0 01.594-.297c.1 0 .149 0 .198.05v.297h-.05zm-3.763.792c0-.247.05-.446.148-.644.1-.198.198-.346.396-.446a.998.998 0 01.545-.148c.347 0 .594.099.792.347.198.247.297.544.297.891v.05c0 .247-.05.446-.148.644-.1.198-.198.346-.396.446a1.176 1.176 0 01-.595.148c-.346 0-.594-.099-.792-.347a1.763 1.763 0 01-.247-.94zm.445.05c0 .247.05.495.198.644a.61.61 0 00.495.247.61.61 0 00.496-.247c.099-.149.198-.397.198-.694 0-.247-.05-.495-.198-.644a.61.61 0 00-.495-.247c-.199 0-.347.099-.496.247-.148.149-.198.397-.198.694zm-1.386.94c0-.049 0-.148.05-.197.049-.05.098-.05.197-.05.1 0 .149 0 .199.05.049.05.049.099.049.198 0 .05 0 .099-.05.148-.049.05-.098.05-.198.05-.099 0-.148 0-.198-.05-.05 0-.05-.099-.05-.148zm-.891.248c0-.049-.05-.148-.05-.247-.198.198-.396.297-.693.297-.248 0-.446-.05-.594-.198-.149-.149-.248-.297-.248-.495 0-.248.1-.446.297-.595.198-.148.446-.198.792-.198h.397v-.198a.45.45 0 00-.149-.347c-.099-.099-.198-.148-.396-.148-.149 0-.248.05-.347.099a.272.272 0 00-.148.247h-.347c0-.099.05-.247.149-.346.099-.1.198-.199.346-.248.149-.05.297-.1.495-.1.298 0 .496.05.644.199a.82.82 0 01.248.594v1.09c0 .198.05.396.099.545v.05h-.495zm-.694-.346a.71.71 0 00.347-.1.597.597 0 00.248-.247v-.495h-.297c-.496 0-.743.148-.743.446 0 .148.05.247.148.297.05.05.198.099.297.099zm-1.188-.842c0 .346-.099.644-.248.891-.148.248-.396.347-.693.347-.297 0-.544-.099-.693-.297v1.14H29v-3.32h.396v.248c.149-.198.396-.297.693-.297.297 0 .495.099.693.347.149.198.248.495.248.94zm-.396-.05c0-.247-.05-.495-.149-.644a.61.61 0 00-.495-.247c-.247 0-.445.099-.544.346v1.14a.608.608 0 00.544.346.52.52 0 00.446-.247c.148-.149.198-.397.198-.694zm-2.922.941c.149 0 .298-.05.397-.148a.797.797 0 00.198-.347h.396c0 .149-.05.297-.149.396-.099.1-.198.248-.346.297-.149.05-.297.1-.446.1-.347 0-.594-.1-.792-.347-.198-.198-.297-.495-.297-.892v-.05c0-.247.05-.445.148-.643.1-.198.198-.347.347-.446a.998.998 0 01.544-.149c.248 0 .496.1.694.248.198.149.297.347.297.644h-.396a.45.45 0 00-.198-.396.562.562 0 00-.397-.149c-.198 0-.346.1-.495.248-.099.148-.148.346-.148.644v.099c0 .297.05.495.148.644a.61.61 0 00.495.247zm-1.93-2.773c0-.05 0-.1.049-.15.05-.049.099-.049.198-.049s.148 0 .198.05c.05.05.05.099.05.148 0 .05 0 .1-.05.15-.05.049-.099.049-.198.049s-.149 0-.198-.05c-.05 0-.05-.05-.05-.148zm0 3.07h.395v-2.377h-.396v2.378zm-.892 0c0-.049-.05-.148-.05-.247-.197.198-.395.297-.693.297-.247 0-.445-.05-.594-.198-.148-.149-.247-.297-.247-.495 0-.248.099-.446.297-.595.198-.148.445-.198.792-.198h.396v-.198a.45.45 0 00-.148-.347c-.1-.099-.198-.148-.396-.148-.15 0-.248.05-.347.099a.272.272 0 00-.149.247h-.396c0-.099.05-.247.149-.346.099-.1.198-.199.346-.248.149-.05.297-.1.495-.1.298 0 .496.05.644.199a.82.82 0 01.248.594v1.09c0 .198.05.396.099.545v.05h-.446zm-.693-.346a.71.71 0 00.347-.1.588.588 0 00.247-.247v-.495h-.297c-.495 0-.743.148-.743.446 0 .148.05.247.149.297.05.05.148.099.297.099z" fill="#fff"/></svg>