<svg width="82" height="82" fill="none" xmlns="http://www.w3.org/2000/svg"><path d="M80.916 39.386C81 39.89 81 40.396 81 40.9v.168c-.084 21.382-16.901 38.975-38.427 39.901-22.03.842-40.612-16.246-41.537-38.386C.11 20.53 17.264 1.926 39.294 1h1.682c21.357 0 39.015 16.92 39.94 38.386z" stroke="#fff"/><path d="M40.976 71.964c-17.069 0-30.943-13.89-30.943-30.978 0-17.089 13.874-30.978 30.943-30.978 17.07 0 30.943 13.89 30.943 30.978S58.045 71.964 40.976 71.964z" stroke="#fff"/><path d="M27.523 9.839l-1.261-3.115 1.85-.673.084.337-1.43.505.42 1.094 1.346-.505.084.337-1.345.505.588 1.346-.336.169zm2.186-.84l.168-3.536.337-.084L32.4 8.24l-.337.084-.756-.926-1.262.421v1.094L29.71 9zm.42-3.2l-.084 1.684 1.01-.336-.926-1.347zm2.944 2.275l-.757-3.283.337-.084.757 3.283-.337.084zm3.195-3.032c.084.505-.168.842-.504 1.01l.925 1.347h-.337l-.84-1.263-.841.169.252 1.347-.504.084-.505-3.367 1.177-.169c.673-.084 1.093.253 1.177.842zm-1.009.842c.505-.084.673-.337.673-.758-.084-.42-.42-.589-.84-.589l-.758.084.253 1.347.672-.084zm3.701-.168c0 .757.336 1.178 1.008 1.178.505 0 .841-.337.841-.757h.337c0 .589-.505 1.094-1.178 1.094-.84 0-1.345-.505-1.345-1.431v-.505c0-.926.42-1.516 1.261-1.6.673 0 1.262.421 1.262 1.095h-.337c0-.421-.336-.758-.84-.758-.59 0-.925.505-.925 1.263l-.085.42zm5.465-.84c0 .589-.337.841-.673.926l.589 1.515h-.42l-.59-1.431-.84-.084-.084 1.346h-.337l.169-3.367 1.177.084c.756 0 1.009.505 1.009 1.01zm-1.177.589c.504 0 .756-.169.756-.59 0-.42-.252-.673-.672-.757l-.757-.084-.084 1.347.757.084zm3.866 2.185l-1.934-.338.504-3.367 1.934.421-.084.337-1.598-.253-.168 1.095 1.514.252v.337l-1.514-.253L45.6 7.06l1.598.252-.084.337zm2.691-2.858c.925.252 1.261.926 1.009 2.02-.252 1.094-.84 1.515-1.85 1.263l-1.009-.253.84-3.283 1.01.253zm-1.43 2.778l.673.168c.757.168 1.177-.168 1.43-1.01.252-.842 0-1.431-.757-1.6l-.673-.168-.672 2.61zm2.859 1.176l1.01-3.2.336.085-1.01 3.199-.336-.084zm2.018.672l1.093-2.778-.925-.42.084-.337 2.27.926-.084.337-.924-.421-1.094 2.778-.42-.085zm4.036 63.894c-.252-.505-.084-.842.085-1.095l-1.262-.926.337-.168 1.177.926.757-.42-.673-1.18.336-.168 1.598 2.947-1.01.589c-.588.252-1.092 0-1.345-.505zm.673-1.095c-.42.253-.504.59-.336.926.252.421.588.421.925.253l.672-.337-.672-1.178-.589.336zm-4.457.255l1.85-.757 1.345 3.114-1.85.674-.168-.337 1.514-.673-.42-1.01-1.43.589-.168-.337 1.429-.59-.505-1.093-1.513.673-.084-.252zm-.84 3.872c-.589.169-1.093-.084-1.345-.673-.168-.59.084-1.095.672-1.347l.757-.253-.42-1.178.336-.084 1.093 3.198-1.093.337zm.168-1.936l-.504.252c-.589.169-.841.421-.673.927.168.42.42.589.84.42l.758-.252-.42-1.347zm-2.355 1.093c.252.926-.168 1.6-.925 1.768-.757.168-1.43-.253-1.598-1.179l-.084-.505c-.252-.926.168-1.6.925-1.767.757-.169 1.43.252 1.598 1.178l.084.505zm-.505-.42c-.168-.758-.672-1.01-1.177-.927-.504.169-.84.59-.672 1.347l.084.505c.168.758.672 1.01 1.177.926.504-.084.84-.59.672-1.347l-.084-.505zm-5.38 1.933c-.084-.505.252-.842.505-1.01l-.841-1.347.42-.084.841 1.263.841-.085-.168-1.347.336-.084.42 3.368-1.177.168c-.672.168-1.093-.253-1.177-.842zm1.093-.758c-.504.085-.672.337-.672.758.084.42.336.674.84.59l.757-.085-.168-1.347-.757.084zm-2.943-1.43l.168 3.03 1.009-.083v.336l-2.438.085v-.337l1.008-.084-.168-3.03.42.083zm-2.102-.002l-.085 3.367h-.336l.084-3.367h.336zm-1.43.001l-.336 3.367h-.336l-1.514-2.862-.252 2.693h-.337l.337-3.367h.336l1.514 2.862.252-2.693h.336zm-5.97 1.602c0 .42.252.757.672.926.589.084 1.01-.253 1.177-.926l.084-.505c.169-.758-.084-1.263-.756-1.347-.505-.084-.925.168-1.01.59l-.083.336.925.168v.253l-1.262-.169.169-.673c.084-.673.756-1.01 1.429-.842.84.169 1.177.758 1.009 1.768l-.084.42c-.168.927-.757 1.348-1.598 1.18-.672-.169-1.093-.674-1.009-1.263l.337.084zm-1.598-2.863l-2.186 2.778-.337-.084-.084-3.535.337.084V73.9l1.26.421.673-.842.337.084zm-2.27 2.358l1.009-1.347-1.01-.337v1.683zm-1.766-2.275c.337-.673.168-1.178-.42-1.431-.42-.168-.925-.084-1.093.337l-.337-.169c.253-.589.925-.757 1.514-.505.757.337.925 1.01.588 1.936l-.084.421c-.42.842-1.009 1.179-1.765.926-.673-.252-.925-.926-.673-1.515l.336.168c-.168.421 0 .842.505 1.095.588.252 1.009 0 1.345-.758l.084-.505zm-2.69-2.862l-1.514 2.61.925.505-.168.337-2.102-1.179.168-.252.925.505 1.43-2.694.336.168zm-2.776-23.74v-5.471h5.381v-1.01h-5.38v-4.546h5.8v-1.01h-6.978V47.13h1.177v-.085zm8.83-6.987c0-2.61 1.177-4.378 3.532-4.378 1.933 0 3.195 1.347 3.195 2.862h1.093c0-2.104-1.682-3.956-4.288-3.956-3.027 0-4.625 2.189-4.625 5.472v1.767c0 3.283 1.598 5.388 4.625 5.388 2.522 0 4.372-1.684 4.372-3.788h-1.093c0 1.6-1.346 2.778-3.195 2.778-2.355 0-3.532-1.768-3.532-4.378v-1.767h-.084zm14.715-5.136H41.48v12.122h1.094v-5.051h3.279l2.438 5.05h1.346L47.03 41.74c1.261-.336 2.354-1.43 2.354-3.367.084-1.852-1.177-3.451-3.7-3.451zm-3.027 6.06v-5.05h2.858c1.682 0 2.775.926 2.775 2.525 0 1.6-1.009 2.442-2.774 2.442h-2.86v.084zm9.586 6.062l1.345-3.873h4.793l1.345 3.873h1.177l-4.372-12.122h-1.177l-4.373 12.122h1.262zm3.784-10.775l2.017 5.892h-4.12l2.103-5.892zM5.24 38.207l.756 1.431 1.597.253-1.177 1.178.253 1.6-1.43-.758-1.513.758.336-1.6-1.177-1.178 1.597-.253.757-1.431zm71.218 0l.673 1.431 1.681.253-1.177 1.178.252 1.6-1.429-.758-1.513.758.252-1.6-1.178-1.178 1.682-.253.757-1.431z" fill="#fff"/></svg>