<svg width="64" height="64" fill="none" xmlns="http://www.w3.org/2000/svg"><rect width="64" height="64" rx="16" fill="#CCC"/><path d="M53.533 10.46H10.461v43.073h43.072V10.461z" fill="#CCC"/><path d="M45.297 38.67v-.379h.278c.184 0 .234.058.234.168 0 .113-.05.204-.267.21h-.245zm.195.23c.08.007.156 0 .214.06.066.07.066.188.083.315.01.086.034.18.05.263h.295c-.05-.133-.067-.287-.087-.427-.024-.16-.047-.25-.25-.291v-.007c.197-.04.3-.173.3-.344 0-.334-.281-.408-.552-.408h-.478v1.477h.23V38.9h.195zm.073 1.176c.696 0 1.254-.56 1.254-1.26 0-.692-.558-1.254-1.254-1.254a1.256 1.256 0 100 2.514zm0-.22a1.037 1.037 0 11-.004-2.072 1.037 1.037 0 01.004 2.072z" fill="#fff"/><path d="M43.441 27.384h-2.02V29.4h2.02a.866.866 0 010 1.732h-2.02v2.02h2.02a2.884 2.884 0 100-5.77zM31.933 38.058c2.417 0 4.5-1.416 5.474-3.464h2.574v3.464h1.44v-3.464h2.02a4.326 4.326 0 100-8.653h-3.46v5.192h-2.054a6.057 6.057 0 00-5.994-5.192h-7.101l-7.064 12.117h1.685l2.019-3.464h7.26v3.464h3.2zm17.855-7.79a6.346 6.346 0 01-6.347 6.345v3.46h-5.479v-2.7a8.063 8.063 0 01-6.029 2.7h-5.221v-3.46H22.63l-2.019 3.46h-6.409l9.42-16.151h8.31a8.065 8.065 0 016.03 2.703v-2.703h5.478a6.348 6.348 0 016.347 6.346zm-23.076-2.884v3.749H23.49l-1.177 2.02h6.417v-5.77h-2.02zm9.837 4.614a4.616 4.616 0 01-4.616 4.615h-1.76v-2.02h1.76a2.596 2.596 0 100-5.192h-1.76v-2.017h1.76a4.615 4.615 0 014.616 4.614z" fill="#fff"/><path d="M43.441 27.384h-2.02V29.4h2.02a.866.866 0 010 1.732h-2.02v2.02h2.02a2.884 2.884 0 100-5.77zM31.933 38.058c2.417 0 4.5-1.416 5.474-3.464h2.574v3.464h1.44v-3.464h2.02a4.326 4.326 0 100-8.653h-3.46v5.192h-2.054a6.057 6.057 0 00-5.994-5.192h-7.101l-7.064 12.117h1.685l2.019-3.464h7.26v3.464h3.2zm17.855-7.79a6.346 6.346 0 01-6.347 6.345v3.46h-5.479v-2.7a8.063 8.063 0 01-6.029 2.7h-5.221v-3.46H22.63l-2.019 3.46h-6.409l9.42-16.151h8.31a8.065 8.065 0 016.03 2.703v-2.703h5.478a6.348 6.348 0 016.347 6.346zm-23.076-2.884v3.749H23.49l-1.177 2.02h6.417v-5.77h-2.02zm9.837 4.614a4.616 4.616 0 01-4.616 4.615h-1.76v-2.02h1.76a2.596 2.596 0 100-5.192h-1.76v-2.017h1.76a4.615 4.615 0 014.616 4.614z" fill="#fff"/><path d="M43.441 27.384h-2.02V29.4h2.02a.866.866 0 010 1.732h-2.02v2.02h2.02a2.884 2.884 0 100-5.77zM31.933 38.058c2.417 0 4.5-1.416 5.474-3.464h2.574v3.464h1.44v-3.464h2.02a4.326 4.326 0 100-8.653h-3.46v5.192h-2.054a6.057 6.057 0 00-5.994-5.192h-7.101l-7.064 12.117h1.685l2.019-3.464h7.26v3.464h3.2zm17.855-7.79a6.346 6.346 0 01-6.347 6.345v3.46h-5.479v-2.7a8.063 8.063 0 01-6.029 2.7h-5.221v-3.46H22.63l-2.019 3.46h-6.409l9.42-16.151h8.31a8.065 8.065 0 016.03 2.703v-2.703h5.478a6.348 6.348 0 016.347 6.346zm-23.076-2.884v3.749H23.49l-1.177 2.02h6.417v-5.77h-2.02zm9.837 4.614a4.616 4.616 0 01-4.616 4.615h-1.76v-2.02h1.76a2.596 2.596 0 100-5.192h-1.76v-2.017h1.76a4.615 4.615 0 014.616 4.614z" fill="#fff"/></svg>