<svg width="64" height="64" fill="none" xmlns="http://www.w3.org/2000/svg"><g clip-path="url(#clip0_2335_38724)"><path d="M66.439-1.828H-2.285v65.82h68.724v-65.82z" fill="#CCC"/><path d="M61.042 3.32H2.641v58.4h58.401V3.32z" fill="#CCC"/><path d="M35.216 47.053c-7.959 0-14.407-6.448-14.407-14.407 0-7.958 6.448-14.396 14.407-14.396 3.396 0 6.51 1.177 8.97 3.146l1.79-2.615a17.459 17.459 0 00-10.76-3.687c-9.698 0-17.563 7.865-17.563 17.562 0 9.698 7.865 17.563 17.563 17.563a17.47 17.47 0 0010.678-3.625l-1.771-2.635a14.324 14.324 0 01-8.907 3.093z" fill="#F0F0F0"/><path d="M20.82 32.656c0 7.959 6.449 14.407 14.407 14.407 3.365 0 6.449-1.167 8.907-3.094l-1.77-2.625a11.202 11.202 0 01-7.137 2.552c-6.208 0-11.24-5.031-11.24-11.24 0-6.208 5.032-11.24 11.24-11.24 2.73 0 5.24.98 7.188 2.595l1.792-2.615a14.292 14.292 0 00-8.97-3.146c-7.979 0-14.416 6.448-14.416 14.406z" fill="#fff"/></g><defs><clipPath id="clip0_2335_38724"><rect width="64" height="64" rx="16" fill="#fff"/></clipPath></defs></svg>