<svg width="64" height="64" fill="none" xmlns="http://www.w3.org/2000/svg"><g clip-path="url(#clip0_2335_38725)"><path d="M64.589-.648H-.914v65.502h65.503V-.647z" fill="url(#paint0_linear_2335_38725)"/><path d="M64.589-.648H-.914v65.502h65.503V-.647z" fill="#CCC"/><path d="M13.152 22.596c0 .181.09.332.241.422l16.53 9.23a3.548 3.548 0 011.75 3.077c0 .572-.122 1.085-.363 1.568l-2.473 4.554c-.15.242.09.694.513.604l20.178-6.154a1.43 1.43 0 00.996-1.357 1.43 1.43 0 00-1.026-1.387l-35.652-10.98c-.06-.03-.09-.03-.15-.03-.303-.03-.544.181-.544.453z" fill="#fff"/></g><defs><linearGradient id="paint0_linear_2335_38725" x1="-.914" y1="32.103" x2="64.589" y2="32.103" gradientUnits="userSpaceOnUse"><stop stop-color="#FCAF17"/><stop offset=".25" stop-color="#F78C1D"/><stop offset=".5" stop-color="#F47421"/><stop offset="1" stop-color="#F47421"/></linearGradient><clipPath id="clip0_2335_38725"><rect width="64" height="64" rx="16" fill="#fff"/></clipPath></defs></svg>