<svg width="64" height="64" fill="none" xmlns="http://www.w3.org/2000/svg"><rect width="64" height="64" rx="16" fill="#CCC"/><path d="M50.298 25.68c-1.946-3.509-5.754-5.693-9.895-5.68H9.07a1.1 1.1 0 00-.595.177 1.056 1.056 0 00-.395.466 1 1 0 00.232 1.124l6.826 6.587c.602.584 1.423.91 2.277.91h22.088c1.575-.016 2.861 1.197 2.878 2.707.017 1.51-1.245 2.746-2.82 2.76H24.334a1.1 1.1 0 00-.595.175 1.056 1.056 0 00-.397.466 1 1 0 00.23 1.126l6.83 6.593c.607.583 1.425.91 2.278.909h6.888c8.96 0 15.736-9.196 10.73-18.324" fill="#fff"/></svg>