<svg width="64" height="64" fill="none" xmlns="http://www.w3.org/2000/svg"><rect width="64" height="64" rx="16" fill="#CCC"/><path fill-rule="evenodd" clip-rule="evenodd" d="M26.452 25.135v9.97c0 .566-.457 1.025-1.021 1.025-.564 0-1.021-.46-1.021-1.025v-9.97h-6.611V36.86c0 2.11.696 4.777 3.864 5.646 3.171.87 5.011-.93 5.011-.93-.168 1.185-1.255 2.054-3.005 2.24-1.325.14-3.02-.31-3.864-.682v6.212c2.153.652 4.43.863 6.66.419 4.045-.807 6.598-4.28 6.598-8.903V25.135h-6.611zm25.305 8.73v-1.937h2.038v-6.793h-2.238C50.698 21.056 47.165 18 42.938 18c-4.868 0-8.815 4.055-8.815 9.058v15.864c1.387.2 3.04-.024 4.446-1.222 1.459-1.244 2.123-3.289 2.123-5.212v-.584h3.337V29.11h-3.337v-2.052h.008c0-1.27 1.002-2.3 2.238-2.3 1.237 0 2.243 1.03 2.243 2.3v6.806c0 5.003 3.95 9.058 8.819 9.058v-6.757c-1.236 0-2.242-1.03-2.242-2.3zM10 18.557h6.682v18.426c0 2.916 1.298 4.653 2.324 5.398-1.087.993-4.407 1.861-6.883-.248C10.663 40.89 10 38.846 10 36.922V18.56z" fill="#fff"/></svg>