<svg width="64" height="64" fill="none" xmlns="http://www.w3.org/2000/svg"><path d="M64 0H0v64h64V0z" fill="url(#paint0_linear_2335_38723)"/><path d="M64 0H0v64h64V0z" fill="#CCC"/><path d="M48.46 30.347C46.053 18.39 40.385 13.991 35.463 14.28c-3.832.224-7.28 3.233-8.81 13.636.039.072.286.115.306.034.543-2.233 2.697-9.033 5.137-8.765 2.766.305 4.837 8.171 5.455 11.163H48.46zm-32.902 0h9.676c.554-4.829 1.351-11.242 5.47-15.49-5.402-2.448-13.23 2.899-15.146 15.49zm-.015 3.312c2.407 11.959 8.074 16.357 12.997 16.069 3.831-.225 7.279-3.233 8.81-13.637-.04-.072-.287-.115-.306-.034-.543 2.233-2.697 9.033-5.137 8.765-2.767-.304-4.837-8.171-5.456-11.164H15.543zm32.901 0H38.77c-.554 4.829-1.352 11.243-5.47 15.49 5.401 2.448 13.23-2.898 15.145-15.49z" fill="#fff"/><defs><linearGradient id="paint0_linear_2335_38723" x1="66.902" y1="-2.484" x2="-6.223" y2="69.766" gradientUnits="userSpaceOnUse"><stop stop-color="#F78F24"/><stop offset="1" stop-color="#EE2526"/></linearGradient></defs></svg>