<svg width="64" height="64" fill="none" xmlns="http://www.w3.org/2000/svg"><g clip-path="url(#clip0_2335_38722)"><path d="M66.365-.914H-2.359v65.821h68.724V-.914z" fill="#CCC"/><path d="M53.733 10.266H10.262v43.471h43.471V10.266z" fill="#CCC"/><path fill-rule="evenodd" clip-rule="evenodd" d="M31.226 14.895c2.654 0 5.308-.024 7.962.008 2.008.024 3.933.444 5.662 1.519 2.402 1.493 3.558 3.783 4.06 6.478 1.272 6.833-2.224 12.768-8.81 14.998a17.673 17.673 0 01-5.615.92c-2.148.012-4.295.02-6.442-.007-.511-.006-.72.16-.82.658-.575 2.886-1.203 5.762-1.758 8.651-.137.718-.38 1.009-1.159.996-2.894-.047-5.79-.017-8.685-.02-.864-.001-.879-.025-.706-.856l6.165-29.537c.217-1.038.46-2.072.65-3.116.096-.531.351-.708.882-.704 2.871.02 5.743.01 8.614.01v.002zm-2.061 15.51c.155.065.22.115.286.115 1.227.01 2.458.073 3.681 0 1.05-.062 2.123-.163 3.125-.455 1.633-.478 2.43-1.885 2.263-3.658-.137-1.46-.997-2.334-2.776-2.511-1.576-.157-3.172-.128-4.759-.121-.185 0-.472.352-.533.588-.244.93-.418 1.88-.616 2.821l-.671 3.221z" fill="#fff"/></g><defs><clipPath id="clip0_2335_38722"><rect width="64" height="64" rx="16" fill="#fff"/></clipPath></defs></svg>