<svg width="64" height="64" fill="none" xmlns="http://www.w3.org/2000/svg"><rect width="64" height="64" rx="16" fill="#CCC"/><path d="M54 10H10v44h44V10z" fill="#CCC"/><path fill-rule="evenodd" clip-rule="evenodd" d="M31.995 25.466c.937 0 1.709-.488 1.813-1.117l.925-10.465c0-1.035-1.212-1.884-2.735-1.884-1.522 0-2.733.85-2.733 1.884l.925 10.465c.102.63.873 1.117 1.808 1.117h-.003zm-5.656 3.268c.47-.81.434-1.722-.061-2.127l-8.602-6.034c-.894-.518-2.235.106-2.996 1.425-.764 1.319-.629 2.791.263 3.309l9.525 4.435c.595.22 1.407-.204 1.874-1.014l-.003.006zm11.317-.005c.47.81 1.277 1.235 1.873 1.014l9.524-4.435c.898-.518 1.026-1.99.269-3.308-.765-1.32-2.108-1.944-3-1.426l-8.603 6.034c-.491.404-.528 1.316-.06 2.127l-.003-.006zm-5.661 9.809c.937 0 1.709.483 1.813 1.113l.925 10.464c0 1.038-1.212 1.885-2.735 1.885-1.522 0-2.733-.847-2.733-1.885l.925-10.464c.102-.63.873-1.113 1.808-1.113h-.003zm5.661-3.269c.47-.813 1.277-1.234 1.873-1.01l9.524 4.431c.898.519 1.026 1.992.269 3.312-.765 1.314-2.108 1.94-3 1.423l-8.603-6.028c-.491-.408-.528-1.32-.06-2.13h-.004m-11.316 0c.47.81.434 1.722-.061 2.13l-8.602 6.028c-.894.517-2.235-.11-2.996-1.423-.764-1.32-.629-2.794.263-3.312l9.525-4.432c.595-.223 1.407.198 1.874 1.01h-.003" fill="#fff"/></svg>