<svg width="64" height="64" fill="none" xmlns="http://www.w3.org/2000/svg"><rect width="64" height="64" rx="16" fill="#CCC"/><path d="M19.761 44.83l-1.142 1.142-.751-.753 1.14-1.141-2.95-2.95c-.48-.48-.545-.57-1.143-.26-.218.118-.454.116-.634-.066-.377-.376.025-.828.077-.881l3.668-3.668c.052-.052.505-.453.881-.078.183.183.184.416.067.636-.312.597-.22.661.26 1.142l6.806 6.807c.48.482.546.573 1.143.26.22-.116.453-.115.636.066.375.378-.025.831-.076.883l-3.67 3.667c-.052.052-.506.453-.882.078-.18-.182-.181-.416-.066-.636.313-.597.22-.662-.26-1.143l-3.104-3.105zm-.05 9.17h-1.496l.012-.023c.31-.595.22-.661-.26-1.141l-6.808-6.807c-.482-.482-.546-.573-1.142-.262l-.017.009v-1.497l3.127-3.127c.052-.05.505-.453.881-.078.182.183.184.416.067.636-.312.599-.221.662.26 1.144l6.807 6.806c.481.482.545.572 1.143.26.22-.116.454-.116.636.066.375.378-.026.83-.078.882L19.711 54zm18.69-38.121l3.42-3.421 9.718 9.713-3.422 3.424c-.052.052-.507.454-.882.077-.183-.182-.183-.417-.066-.636.31-.597.221-.662-.26-1.143L40.1 17.086c-.48-.479-.544-.57-1.142-.259-.22.116-.454.116-.635-.066-.377-.375.026-.831.077-.882zM44.278 10h2.035l1.618 1.62c.066.064.3.325-.09.712-.22.221-.415.157-.674.028-1.388-.718-2.686-.691-4.01.267l-.754-.753L44.28 10zM54 17.506v2.205l-1.879 1.878-.752-.752c.921-1.181 1.008-2.699.32-4.087-.105-.286-.235-.573-.002-.805.415-.415.765.014.817.067L54 17.506zm-7.255-1.294c.401-.687.14-1.44-.237-2.05-.153-.284-.285-.572-.013-.844.401-.4.807.131.91.235l2.805 2.805c.104.104.636.508.235.91-.273.273-.558.14-.846-.015-.61-.376-1.362-.635-2.05-.236l-.804-.805zm-12.06 36.184L33.082 54h-.853c.022-.05.05-.103.076-.159.097-.181-.116-.365-.224-.474l-3.828-3.828c-.11-.109-.292-.32-.475-.225-.197.095-.358.212-.541.03-.19-.19-.029-.396.117-.54l1.87-1.87 5.463 5.462zm12.24-23.165l1.789-1.79 4.645 4.645c.27.27.307.322.641.148v.848l-1.751 1.75c-.029.03-.285.256-.496.044-.102-.101-.103-.233-.037-.357.176-.336.124-.372-.145-.642l-4.647-4.646zm4.872-1.469c.028.03.19.234-.03.453-.205.204-.431.052-.613-.088-.453-.32-1.038-.7-1.687-.59l-.424-.423 1.052-1.053 1.702 1.701zm-6.251 2.849l1.05-1.051.425.423c-.11.65.27 1.234.59 1.686.14.183.292.41.088.614a.31.31 0 01-.453.029l-1.7-1.701zM23.25 32.145c-.389.83-.05 1.27.275 1.595l6.728 6.729c.325.325.767.662 1.596.274l.753.754c-2.994 2.5-6.498 1.563-9.084-1.021-2.584-2.586-3.522-6.09-1.021-9.085l.753.754zm9.183 8.016c.389-.83.05-1.273-.276-1.597l-6.727-6.73c-.325-.323-.767-.66-1.596-.272l-.754-.753c2.994-2.501 6.5-1.564 9.084 1.02 2.585 2.586 3.523 6.09 1.021 9.085l-.752-.753zm14.323-14.012c-.183-.18-.415-.182-.636-.065-.598.311-.661.22-1.143-.26l-6.807-6.807c-.481-.48-.573-.545-.26-1.143.115-.22.115-.454-.066-.636-.377-.376-.83.026-.882.078l-3.422 3.421 2.795 5.18-.027.025-5.372-2.599-3.291 3.29c-.155.155-.546.544-.144.948.312.312.689-.012.856-.156.235-.206.443-.102.753-.024.273.065.532.195.793.327l10.747 5.33.375-.375-5.257-9.717L41.802 29c.48.481.572.547.26 1.142-.118.222-.116.455.068.637.375.375.829-.025.881-.078l3.67-3.669c.052-.052.452-.506.076-.882zm-10.153 6.852l-2.234-2.233L31.5 29.35l-.026.026 4.377 4.378c1.416 1.83.08 2.154.64 2.713.402.402.907-.156 1.05-.299l1.477-1.476c.142-.143.698-.647.296-1.049-.56-.56-.88.776-2.711-.642zM29.55 46.604c1.227-1.257 3.125-1.432 5.098.366 1.796 1.635 1.578 3.885.365 5.097l-.423-.424c.387-.505-.007-.943-.286-1.22l-3.11-3.111c-.278-.277-.716-.671-1.22-.284l-.424-.424zm2.724-2.723l1.927-1.928 5.462 5.463-1.927 1.928c-.03.028-.285.255-.497.044-.101-.102-.102-.234-.036-.358.176-.336.124-.372-.145-.643l-3.827-3.827c-.27-.27-.307-.32-.642-.147-.125.068-.256.068-.36-.035-.211-.21.015-.468.045-.497zm2.256-2.257l1.628-1.628 1.483 1.482c.036.036.169.182-.051.402-.125.124-.233.088-.38.015-.782-.402-1.511-.387-2.258.152l-.422-.423zm5.039 5.04c.518-.664.57-1.52.182-2.302-.057-.16-.132-.32 0-.452.234-.233.431.007.46.037l1.462 1.461-1.68 1.68-.424-.424zm-2.6-2.6c.226-.387.08-.81-.13-1.153-.09-.162-.163-.323-.008-.476.226-.226.453.074.512.132l1.578 1.578c.057.058.357.285.13.511-.152.154-.313.08-.475-.008-.342-.21-.766-.357-1.153-.13l-.454-.455zm2.008-6.886c.694-.694 1.175-1.031 1.717-1.176.862-.22 1.556.051 2.17.663.612.613.882 1.308.663 2.17-.146.541-.482 1.024-1.176 1.717l-.423-.423c.35-.513.074-.834-.284-1.193l-1.103-1.102c-.329-.328-.695-.562-1.14-.233l-.424-.423zm-1.3 2.937c-.27-.27-.307-.321-.643-.147-.124.067-.256.065-.358-.037-.211-.211.015-.467.044-.497l1.928-1.926 4.646 4.645c.269.27.306.322.642.145.125-.065.256-.066.358.037.213.212-.014.468-.043.496l-2.067 2.067a.297.297 0 01-.44-.012c-.101-.103-.12-.217-.054-.342.175-.335.084-.331-.186-.602l-3.828-3.827z" fill="#fff"/><path d="M43.607 33.178c-.22.467-.03.715.152.897l3.784 3.783c.182.182.431.372.898.153l.423.423c-1.686 1.41-3.658.885-5.111-.569-1.455-1.453-1.98-3.425-.57-5.112l.424.425zm5.163 4.505c.219-.467.03-.715-.154-.899l-3.782-3.782c-.183-.183-.431-.372-.899-.154l-.422-.423c1.687-1.41 3.659-.883 5.11.57 1.455 1.453 1.982 3.424.571 5.112l-.424-.424zM15.273 26.66l1.681-1.682 4.366 4.366c.254.254.289.302.604.137.117-.062.24-.062.337.034.199.2-.014.44-.041.467l-1.943 1.943c-.028.027-.268.24-.467.04-.096-.095-.096-.219-.034-.336.165-.316.117-.35-.137-.604l-4.366-4.365zm4.578-1.38a.293.293 0 01-.027.425c-.193.193-.405.048-.577-.082-.425-.302-.975-.66-1.585-.556l-.399-.398.99-.988 1.598 1.599zm-5.876 2.677l.989-.989.398.399c-.103.61.254 1.16.556 1.586.13.171.274.384.082.576a.292.292 0 01-.425.027l-1.6-1.599zm10.915-2.183c.254.255.288.302.604.138.116-.062.24-.062.336.034.199.199-.014.44-.041.467l-1.942 1.942c-.028.028-.268.24-.467.042-.096-.097-.096-.22-.034-.337.164-.316.116-.35-.138-.604l-3.597-3.597c-.254-.254-.288-.302-.604-.137-.117.061-.24.061-.336-.035-.2-.199.013-.44.04-.467l1.944-1.942c.027-.027.267-.24.466-.041.097.096.097.22.034.336-.164.316-.116.35.138.604l3.597 3.597zm-.728-2.553l-.604.604-.398-.399.604-.603-1.558-1.559c-.254-.254-.289-.302-.604-.137-.117.062-.24.062-.337-.035-.199-.199.014-.439.041-.466l1.943-1.943c.027-.027.268-.24.467-.04.096.095.096.219.034.335-.165.316-.116.35.137.605l3.597 3.596c.254.255.288.302.604.138.117-.062.24-.062.337.034.199.2-.014.44-.041.466l-1.943 1.944c-.027.027-.267.24-.467.04-.096-.095-.096-.219-.034-.336.165-.316.116-.35-.137-.604l-1.641-1.64zm-.266-5.184l1.812-1.813 5.135 5.135-1.812 1.812c-.027.027-.268.24-.467.04-.096-.095-.096-.219-.035-.335.165-.316.117-.35-.137-.604l-3.597-3.598c-.254-.253-.288-.302-.604-.137-.117.062-.24.062-.336-.034-.2-.2.014-.44.04-.466zm2.122-2.122l1.53-1.53 1.393 1.393c.034.035.158.171-.047.377-.117.117-.22.083-.357.014-.735-.377-1.422-.364-2.121.144l-.398-.398zm4.736 4.736c.487-.624.535-1.427.171-2.162-.055-.151-.123-.302 0-.425.22-.22.405.006.433.034l1.372 1.373-1.578 1.579-.398-.398zm-2.444-2.444c.213-.363.075-.761-.124-1.084-.082-.15-.15-.302-.006-.446.213-.213.425.068.48.124l1.483 1.482c.055.055.336.268.124.48-.145.145-.296.076-.447-.006-.323-.199-.72-.336-1.084-.123l-.426-.427z" fill="#fff"/></svg>