<svg width="64" height="64" fill="none" xmlns="http://www.w3.org/2000/svg"><rect width="64" height="64" rx="16" fill="#CCC"/><path d="M10.762 36.251c.202.537.483.996.842 1.377s.784.673 1.276.875a4.171 4.171 0 001.603.304c.561 0 1.088-.105 1.58-.316a3.893 3.893 0 002.141-2.251 4.92 4.92 0 00.304-1.774V24.385h2.458V40.72h-2.434v-1.517a5.645 5.645 0 01-1.931 1.33 6.134 6.134 0 01-2.399.467 6.513 6.513 0 01-2.446-.455A5.729 5.729 0 019.79 39.25a6.108 6.108 0 01-1.31-2.019c-.32-.785-.48-1.66-.48-2.625V24.385h2.457v10.081c0 .654.102 1.248.305 1.785zm14.44-11.866v5.95a6.262 6.262 0 011.895-1.295 5.698 5.698 0 012.34-.478 6.28 6.28 0 014.447 1.82 6.259 6.259 0 011.334 1.984 6.08 6.08 0 01.492 2.427c0 .855-.164 1.66-.492 2.415a6.294 6.294 0 01-1.334 1.972A6.28 6.28 0 0129.437 41a5.78 5.78 0 01-2.352-.478 6.217 6.217 0 01-1.907-1.295v1.493h-2.34V24.385H25.2zm.268 12.018c.211.498.504.933.878 1.307.375.373.812.669 1.31.887.5.217 1.038.326 1.616.326.561 0 1.092-.109 1.591-.326a4.1 4.1 0 001.299-.887c.367-.374.66-.81.878-1.307a3.963 3.963 0 00.327-1.61 4.05 4.05 0 00-.327-1.622 4.287 4.287 0 00-.878-1.319 3.94 3.94 0 00-1.299-.875c-.5-.21-1.03-.315-1.591-.315a4.074 4.074 0 00-2.902 1.19 4.192 4.192 0 00-.89 1.319 4.047 4.047 0 00-.327 1.622c0 .575.105 1.112.316 1.61zm11.573-4.014a6.349 6.349 0 011.288-1.972 6.02 6.02 0 014.377-1.832 6.05 6.05 0 012.386.467 5.661 5.661 0 011.896 1.295 5.92 5.92 0 011.24 1.96c.297.755.445 1.576.445 2.462v.77h-9.713a4.049 4.049 0 001.346 2.415c.351.304.75.541 1.194.713.444.17.916.256 1.416.256 1.42 0 2.566-.583 3.44-1.75l1.708 1.26a6.35 6.35 0 01-2.2 1.867c-.873.451-1.856.677-2.948.677-.89 0-1.72-.156-2.493-.467a6.071 6.071 0 01-3.358-3.279 6.113 6.113 0 01-.492-2.462c0-.84.156-1.633.468-2.38zm3.288-.922c-.663.553-1.103 1.288-1.322 2.206h7.279c-.203-.918-.636-1.653-1.3-2.206-.662-.552-1.438-.828-2.328-.828-.89 0-1.665.276-2.328.828zm12.767.269c-.5.544-.749 1.283-.749 2.217v6.767h-2.364v-11.9h2.34v1.47a3.323 3.323 0 011.16-1.144c.475-.28 1.04-.42 1.696-.42H56v2.194h-.983c-.78 0-1.42.272-1.919.817z" fill="#fff"/></svg>