<svg width="33" height="32" fill="none" xmlns="http://www.w3.org/2000/svg"><circle cx="16.502" cy="16" r="14.4" fill="#FF5502"/><path d="M24.544 20.8h-8.42V10.73A4.3 4.3 0 0119.02 9.6c2.442 0 4.428 2.083 4.472 4.671.33-.123.684-.191 1.053-.191 1.744 0 3.158 1.504 3.158 3.36 0 1.856-1.414 3.36-3.158 3.36zm-9.185-9.164H14.33V20.8h1.029v-9.164zm-3.086 1.019h1.029V20.8h-1.029v-8.146zm-1.029 2.035h-1.028v6.11h1.028v-6.11zm-3.085-1.017h1.028V20.8H8.16v-7.127zM7.13 15.71H6.102v5.09H7.13v-5.09z" fill="#fff"/></svg>