<svg width="33" height="32" fill="none" xmlns="http://www.w3.org/2000/svg"><path d="M2.102 16c0-7.953 6.446-14.4 14.4-14.4 7.953.001 14.4 6.448 14.4 14.4 0 7.953-6.447 14.4-14.4 14.4-7.954 0-14.4-6.447-14.4-14.4z" fill="#fff"/><path d="M16.502 1.6c-7.954 0-14.4 6.447-14.4 14.4s6.446 14.4 14.4 14.4c7.953 0 14.4-6.447 14.4-14.4 0-7.952-6.447-14.399-14.4-14.4zm6.604 20.768a.897.897 0 01-1.235.299c-3.38-2.067-7.637-2.533-12.65-1.389a.897.897 0 11-.4-1.75c5.485-1.252 10.191-.713 13.987 1.606.422.26.557.812.298 1.234zm1.761-3.92a1.124 1.124 0 01-1.544.37c-3.87-2.379-9.771-3.068-14.35-1.678a1.124 1.124 0 01-1.4-.748 1.125 1.125 0 01.748-1.4c5.23-1.587 11.732-.819 16.176 1.913.529.325.696 1.016.37 1.544zm.152-4.083c-4.642-2.756-12.298-3.01-16.73-1.666a1.346 1.346 0 11-.781-2.577c5.087-1.544 13.542-1.246 18.885 1.926a1.347 1.347 0 01-1.374 2.317z" fill="#24D665"/></svg>