<svg width="96" height="29" fill="none" xmlns="http://www.w3.org/2000/svg"><path d="M5.052 27.965c-1.58 0-2.822-.385-3.727-1.156C.442 26.04 0 24.992 0 23.67V9.062h3.97v14.459c0 .454.163.83.489 1.125.325.277.754.415 1.288.415h3.727v2.904H5.052zM0 15.758v-2.903h9.51v2.903H0zm13.136 12.207V17.15c0-1.343.441-2.39 1.324-3.14.905-.771 2.147-1.156 3.726-1.156h4.284v2.903h-3.552c-.558 0-.999.139-1.324.415-.302.277-.453.652-.453 1.126v10.666h-4.005zm20.611.355c-1.719 0-3.216-.286-4.494-.859-1.277-.592-2.264-1.402-2.96-2.43-.697-1.026-1.045-2.182-1.045-3.466v-8.71h4.005v8.68c0 .77.198 1.452.593 2.045a4.44 4.44 0 001.637 1.363 5.415 5.415 0 002.264.474c.812 0 1.555-.158 2.229-.474.696-.336 1.242-.79 1.637-1.363.418-.593.627-1.274.627-2.044v-8.681h4.005v8.71c0 1.284-.36 2.44-1.08 3.467-.696 1.027-1.683 1.837-2.96 2.43-1.254.572-2.74.858-4.458.858zm20.931 0c-.928 0-1.764-.217-2.507-.651-.72-.435-1.242-1.018-1.568-1.748L45.17 12.854h4.354l4.632 11.732c.07.139.151.237.244.297a.57.57 0 00.313.088.57.57 0 00.314-.088.49.49 0 00.244-.297l4.667-11.732h4.284L58.754 25.92c-.302.73-.825 1.313-1.568 1.748-.743.434-1.579.651-2.508.651z" fill="#000"/><path d="M2.789 5.664c-.901 0-1.588-.164-2.061-.492C.28 4.86.038 4.422 0 3.858h1.465c.044.292.148.502.312.63.22.18.558.27 1.012.27.34 0 .611-.067.813-.2.202-.139.302-.316.302-.53a.524.524 0 00-.264-.477c-.196-.098-.533-.177-1.012-.239-.889-.092-1.51-.26-1.862-.507-.385-.24-.577-.627-.577-1.16C.19 1.178.413.786.86.469 1.32.16 1.916.008 2.647.008c.769 0 1.368.138 1.796.415.429.276.675.686.738 1.23H3.772c-.082-.487-.457-.73-1.125-.73-.328 0-.58.056-.756.168a.52.52 0 00-.256.454c0 .21.082.358.246.445.17.108.508.193 1.012.254.857.087 1.475.243 1.853.469.416.256.624.656.624 1.199 0 .507-.23.92-.69 1.237-.486.343-1.116.515-1.891.515zM6.71.085h4.406v.968H8.233v1.283h2.306v.907H8.233v1.368h3.034v.969H6.711V.085zm5.861 0h4.406v.968h-2.884v1.283H16.4v.907h-2.307v1.368h3.035v.969H12.57V.085zm5.861 0h1.531v2.367L22.327.077h1.626l-2.676 2.605 2.808 2.898h-1.787l-2.335-2.467V5.58h-1.531V.085zm6.757 0h1.54V5.58h-1.54V.085zm3.265 0h1.777l2.572 3.62V.084h1.361V5.58h-1.531l-2.818-3.912V5.58h-1.36V.085zm10.485 5.579c-1.084 0-1.932-.264-2.544-.792-.598-.497-.898-1.165-.898-2.005v-.062c0-.83.325-1.504.974-2.021C37.114.26 37.937 0 38.94 0c.813 0 1.48.149 2.004.446.599.348.933.84 1.002 1.475h-1.522c-.139-.625-.627-.937-1.465-.937-.587 0-1.044.164-1.371.492-.328.327-.492.776-.492 1.345v.061c0 .564.148 1 .444 1.306.316.344.794.515 1.437.515.536 0 .946-.115 1.23-.345.252-.2.384-.472.396-.815H39.08v-.907h3.035v.584c0 .743-.277 1.332-.832 1.768-.567.45-1.349.676-2.344.676zm8.051-4.611h-1.825V.085h5.19v.968h-1.824V5.58H46.99V1.053zm4.555-.968h1.532v2.244h2.713V.085h1.532V5.58H55.79V3.312h-2.713V5.58h-1.532V.085zm7.458 0h4.406v.968h-2.884v1.283h2.307v.907h-2.307v1.368h3.035v.969h-4.557V.085zm25.412 20.144c-3.834 0-6.952-2.723-6.952-6.069V6.07c0-3.348 3.117-6.07 6.952-6.07 3.833 0 6.951 2.722 6.951 6.069v8.091c0 3.346-3.118 6.069-6.951 6.069zm0-18.206c-2.556 0-4.635 1.815-4.635 4.046v8.091c0 2.23 2.08 4.046 4.635 4.046 2.555 0 4.634-1.815 4.634-4.046V6.07c0-2.231-2.08-4.046-4.634-4.046zm10.427 10.114c-.64 0-1.158.453-1.158 1.012v1.011c0 4.462-4.158 8.092-9.27 8.092-5.11 0-9.269-3.63-9.269-8.092v-1.01c0-.559-.518-1.012-1.158-1.012-.64 0-1.159.453-1.159 1.012v1.011c0 5.236 4.581 9.554 10.428 10.063v2.074h-2.317c-.64 0-1.159.453-1.159 1.012 0 .558.519 1.011 1.159 1.011h6.952c.64 0 1.158-.453 1.158-1.011 0-.559-.519-1.012-1.159-1.012h-2.317v-2.074c5.847-.51 10.428-4.827 10.428-10.063V13.15c0-.559-.519-1.012-1.159-1.012z" fill="#2C64E3"/><path d="M81.435 9.912c0-.47.445-.85.993-.85h3.973c.548 0 .993.38.993.85s-.445.85-.993.85h-3.973c-.548 0-.993-.38-.993-.85zm.662 3.965c0-.47.445-.85.993-.85h2.649c.548 0 .993.38.993.85s-.445.85-.993.85H83.09c-.548 0-.993-.38-.993-.85zm0-7.93c0-.469.445-.85.993-.85h2.649c.548 0 .993.381.993.85 0 .47-.445.85-.993.85H83.09c-.548 0-.993-.38-.993-.85z" fill="#2C64E3"/></svg>