<svg width="33" height="32" viewBox="0 0 33 32" fill="none" xmlns="http://www.w3.org/2000/svg">
<path d="M2.10156 16C2.10156 8.04681 8.5484 1.59998 16.5016 1.59998C24.4547 1.60096 30.9016 8.0478 30.9016 16C30.9016 23.9531 24.4547 30.4 16.5016 30.4C8.5484 30.4 2.10156 23.9531 2.10156 16Z" fill="white"/>
<path d="M16.5016 1.59998C8.5484 1.59998 2.10156 8.04681 2.10156 16C2.10156 23.9531 8.5484 30.4 16.5016 30.4C24.4547 30.4 30.9016 23.9531 30.9016 16C30.9016 8.0478 24.4547 1.60096 16.5016 1.59998ZM23.1056 22.3682C22.8472 22.7927 22.294 22.9253 21.8715 22.6669C18.4903 20.6005 14.2337 20.1338 9.22148 21.2785C8.73804 21.3895 8.25657 21.0869 8.14652 20.6035C8.03548 20.12 8.33714 19.6385 8.82156 19.5285C14.3064 18.2757 19.0121 18.8151 22.8079 21.1341C23.2304 21.3944 23.365 21.9457 23.1056 22.3682ZM24.8674 18.4486C24.5422 18.9773 23.8504 19.1423 23.3228 18.8181C19.4533 16.4392 13.5518 15.7504 8.97387 17.1398C8.38038 17.3196 7.75348 16.9845 7.57268 16.392C7.39384 15.7985 7.72891 15.1726 8.32142 14.9918C13.5508 13.4049 20.0527 14.1733 24.497 16.9049C25.0256 17.2302 25.1927 17.921 24.8674 18.4486ZM25.0187 14.3649C20.3769 11.6087 12.7205 11.3552 8.28899 12.6994C7.57759 12.9156 6.82492 12.5137 6.60973 11.8023C6.39454 11.0909 6.79544 10.3382 7.50783 10.1221C12.5947 8.5784 21.05 8.87613 26.3934 12.048C27.0331 12.4282 27.2433 13.2546 26.8641 13.8933C26.4858 14.5339 25.6574 14.7452 25.0187 14.3649Z" fill="#24D665"/>
</svg>
